<svg width="629" height="415" viewBox="0 0 629 415" fill="none" xmlns="http://www.w3.org/2000/svg">
<rect x="0.683013" y="242.872" width="273.996" height="196.82" rx="19.5" transform="rotate(-30 0.683013 242.872)" fill="white" stroke="#F1ECFF"/>
<mask id="mask0" style="mask-type:alpha" maskUnits="userSpaceOnUse" x="7" y="112" width="324" height="295">
<rect x="0.331299" y="242.498" width="274.996" height="197.82" rx="20" transform="rotate(-30 0.331299 242.498)" fill="white"/>
</mask>
<g mask="url(#mask0)">
<path d="M53.2417 340.907L56.887 311.805L74.7893 301.469L72.109 253.829L85.3361 235.395L100.838 219.247L135.56 236.39L147.748 216.157L154.938 185.613L187.905 201.37L191.459 164.528L232.415 192.468L250.836 183.032L264.78 164.185L297.227 179.042L321.56 178.19" stroke="#7951F9" stroke-width="2"/>
<path d="M46.5802 336.95L55.3285 309.105L79.4646 309.566L87.6934 280.822L94.6867 251.591L121.617 255.237L118.417 206.698L144.112 209.859L181.951 232.401L198.814 220.265L212.238 200.518L230.856 189.769L256.551 192.929L284 197.476L302.942 188.94L321.56 178.19" stroke="#FB4C5C" stroke-width="2"/>
<g filter="url(#filter0_d)">
<path d="M175.34 184.388C174.236 182.475 174.891 180.028 176.804 178.924L209.713 159.924C211.627 158.819 214.073 159.475 215.178 161.388L224.378 177.323C225.482 179.236 224.827 181.682 222.913 182.787L212.15 189.001L209.759 198.003L200.768 195.573L190.004 201.787C188.091 202.891 185.645 202.236 184.54 200.323L175.34 184.388Z" fill="#F7F4FD"/>
<path d="M200.898 195.09L200.698 195.036L200.518 195.14L189.754 201.354C188.08 202.32 185.94 201.747 184.973 200.073L175.773 184.138C174.807 182.464 175.38 180.323 177.054 179.357L209.963 160.357C211.637 159.39 213.778 159.964 214.744 161.638L223.944 177.573C224.911 179.247 224.337 181.387 222.663 182.354L211.9 188.568L211.72 188.672L211.667 188.873L209.405 197.389L200.898 195.09Z" stroke="#E8E0FF"/>
</g>
<path d="M197.612 185.132C197.92 185.665 197.978 186.237 197.785 186.847C197.588 187.45 197.107 188.001 196.341 188.498L197.031 189.693L196.511 189.993L195.827 188.809C195.306 189.073 194.772 189.252 194.225 189.346C193.682 189.428 193.206 189.412 192.798 189.297L192.757 188.53C193.136 188.626 193.565 188.641 194.045 188.577C194.532 188.508 194.998 188.364 195.443 188.143L193.865 185.41C193.319 185.568 192.849 185.674 192.454 185.726C192.056 185.772 191.675 185.728 191.312 185.596C190.952 185.453 190.648 185.166 190.4 184.737C190.092 184.203 190.028 183.644 190.208 183.06C190.384 182.469 190.835 181.922 191.561 181.42L190.871 180.224L191.391 179.924L192.075 181.109C192.478 180.895 192.897 180.741 193.332 180.647C193.77 180.542 194.179 180.504 194.557 180.536L194.651 181.299C194.263 181.283 193.879 181.315 193.501 181.395C193.122 181.475 192.773 181.598 192.453 181.764L194.043 184.518C194.628 184.347 195.121 184.233 195.523 184.176C195.92 184.113 196.306 184.149 196.68 184.284C197.053 184.42 197.364 184.702 197.612 185.132ZM191.147 184.278C191.355 184.638 191.645 184.836 192.016 184.871C192.394 184.902 192.871 184.839 193.445 184.683L191.945 182.085C191.457 182.422 191.151 182.788 191.028 183.183C190.907 183.566 190.947 183.931 191.147 184.278ZM195.963 187.843C196.486 187.486 196.821 187.113 196.966 186.724C197.111 186.336 197.081 185.965 196.877 185.611C196.661 185.237 196.357 185.038 195.965 185.015C195.573 184.992 195.073 185.069 194.463 185.245L195.963 187.843ZM204.683 182.726L205.067 183.391L199.965 186.337L199.659 185.807L200.973 181.099C201.138 180.505 201.208 180.035 201.184 179.688C201.162 179.331 201.072 179.014 200.912 178.737C200.664 178.308 200.323 178.061 199.889 177.997C199.458 177.923 198.969 178.044 198.421 178.36C197.569 178.852 197.064 179.504 196.904 180.316L196.11 180.165C196.202 179.668 196.415 179.204 196.747 178.772C197.087 178.336 197.533 177.958 198.088 177.638C198.829 177.21 199.516 177.048 200.15 177.154C200.787 177.248 201.281 177.6 201.633 178.21C201.849 178.584 201.974 178.992 202.007 179.435C202.041 179.877 201.956 180.458 201.752 181.176L200.682 185.036L204.683 182.726ZM205.787 177.253C206.84 176.645 207.716 176.393 208.414 176.498C209.115 176.592 209.661 176.979 210.053 177.658C210.297 178.08 210.415 178.516 210.406 178.965C210.404 179.409 210.261 179.842 209.978 180.264C209.691 180.679 209.26 181.053 208.685 181.385C208.166 181.685 207.622 181.888 207.055 181.994C206.491 182.088 205.985 182.076 205.537 181.956L205.559 181.153C205.945 181.263 206.382 181.283 206.869 181.214C207.352 181.139 207.822 180.969 208.279 180.705C208.882 180.357 209.268 179.954 209.438 179.496C209.614 179.034 209.572 178.577 209.312 178.127C209.024 177.628 208.619 177.359 208.097 177.318C207.582 177.274 206.885 177.506 206.005 178.014L204.456 178.908L202.724 175.044L206.705 172.746L207.089 173.411L203.763 175.331L204.852 177.793L205.787 177.253Z" fill="#232D42"/>
<path opacity="0.7" d="M108.893 341.265L113.075 348.509L112.129 349.055L107.947 341.811L108.893 341.265ZM113.349 341.797L115.287 345.153C115.447 345.43 115.619 345.594 115.805 345.644C115.987 345.687 116.223 345.624 116.514 345.456L117.211 345.054L117.673 345.854L116.82 346.346C116.294 346.65 115.829 346.757 115.426 346.666C115.022 346.576 114.661 346.254 114.341 345.699L112.403 342.343L111.665 342.769L111.215 341.989L111.953 341.563L111.125 340.129L112.071 339.583L112.899 341.017L114.385 340.159L114.835 340.939L113.349 341.797ZM122.591 338.927C122.695 339.107 122.795 339.304 122.89 339.517L118.338 342.145C118.697 342.686 119.141 343.016 119.672 343.134C120.205 343.242 120.721 343.152 121.22 342.864C121.629 342.628 121.914 342.338 122.076 341.995C122.241 341.641 122.287 341.273 122.214 340.89L123.233 340.302C123.396 340.938 123.349 341.561 123.092 342.171C122.831 342.774 122.361 343.272 121.682 343.664C121.141 343.976 120.586 344.135 120.017 344.14C119.454 344.142 118.924 343.991 118.425 343.688C117.923 343.377 117.502 342.928 117.162 342.339C116.822 341.75 116.641 341.166 116.621 340.586C116.6 340.007 116.733 339.477 117.02 338.998C117.31 338.507 117.732 338.102 118.286 337.782C118.826 337.47 119.372 337.312 119.924 337.307C120.476 337.303 120.982 337.445 121.444 337.732C121.909 338.009 122.291 338.407 122.591 338.927ZM121.5 339.293C121.292 338.933 121.034 338.671 120.727 338.507C120.416 338.335 120.084 338.264 119.73 338.292C119.38 338.31 119.039 338.414 118.706 338.606C118.228 338.882 117.907 339.271 117.744 339.772C117.587 340.268 117.641 340.801 117.904 341.369L121.5 339.293ZM129.456 331.319C129.9 331.063 130.349 330.929 130.803 330.916C131.253 330.896 131.685 331.011 132.098 331.263C132.511 331.514 132.869 331.903 133.173 332.429L135.111 335.786L134.176 336.326L132.316 333.104C131.988 332.536 131.596 332.185 131.14 332.051C130.687 331.906 130.221 331.972 129.743 332.248C129.251 332.532 128.952 332.917 128.845 333.404C128.734 333.884 128.85 334.422 129.194 335.017L131.006 338.156L130.071 338.696L128.211 335.474C127.883 334.906 127.491 334.555 127.035 334.421C126.582 334.276 126.116 334.342 125.638 334.618C125.146 334.902 124.847 335.287 124.74 335.774C124.629 336.254 124.745 336.792 125.089 337.387L126.901 340.526L125.956 341.072L122.668 335.377L123.613 334.831L124.087 335.652C124.102 335.246 124.22 334.873 124.44 334.534C124.666 334.191 124.97 333.909 125.351 333.689C125.829 333.413 126.314 333.276 126.805 333.279C127.296 333.282 127.752 333.439 128.172 333.751C128.099 333.257 128.183 332.793 128.422 332.36C128.661 331.926 129.006 331.579 129.456 331.319ZM136.703 327.37C136.384 326.705 136.342 326.064 136.577 325.448C136.813 324.832 137.284 324.32 137.99 323.912C138.461 323.64 138.917 323.492 139.356 323.469C139.799 323.436 140.19 323.514 140.532 323.705C140.88 323.892 141.16 324.169 141.372 324.537C141.62 324.966 141.709 325.409 141.64 325.865C141.577 326.316 141.375 326.701 141.032 327.019L141.062 327.071C141.576 326.922 142.059 326.934 142.51 327.108C142.961 327.282 143.339 327.632 143.643 328.158C143.871 328.553 143.987 328.962 143.991 329.385C143.991 329.8 143.862 330.202 143.606 330.59C143.35 330.979 142.969 331.319 142.463 331.611C141.729 332.035 141.016 332.192 140.325 332.083C139.63 331.967 139.05 331.572 138.587 330.897L139.502 330.369C139.79 330.757 140.156 330.998 140.599 331.094C141.042 331.189 141.506 331.096 141.991 330.816C142.476 330.536 142.771 330.2 142.876 329.806C142.985 329.402 142.923 328.999 142.691 328.597C142.391 328.077 142.002 327.803 141.523 327.775C141.045 327.746 140.456 327.934 139.756 328.338L139.517 328.476L139.061 327.686L139.31 327.542C139.944 327.167 140.365 326.785 140.575 326.396C140.781 326 140.759 325.588 140.511 325.158C140.299 324.791 140.008 324.566 139.638 324.485C139.274 324.399 138.871 324.484 138.427 324.74C137.998 324.988 137.715 325.299 137.58 325.673C137.445 326.046 137.461 326.434 137.628 326.836L136.703 327.37ZM144.222 325.413C143.534 324.221 143.192 323.181 143.196 322.292C143.196 321.396 143.681 320.668 144.651 320.108C145.614 319.552 146.484 319.498 147.26 319.946C148.032 320.387 148.762 321.203 149.45 322.395C150.15 323.607 150.5 324.661 150.5 325.557C150.5 326.453 150.018 327.18 149.055 327.736C148.085 328.296 147.212 328.351 146.436 327.903C145.66 327.455 144.922 326.625 144.222 325.413ZM148.514 322.935C148.166 322.332 147.831 321.847 147.508 321.479C147.187 321.1 146.829 320.855 146.431 320.743C146.041 320.626 145.613 320.702 145.149 320.97C144.678 321.242 144.392 321.578 144.29 321.979C144.196 322.375 144.229 322.808 144.39 323.279C144.554 323.739 144.81 324.27 145.158 324.873C145.518 325.496 145.858 325.997 146.178 326.376C146.505 326.751 146.864 326.996 147.254 327.112C147.652 327.225 148.086 327.145 148.557 326.873C149.021 326.605 149.301 326.273 149.395 325.876C149.497 325.476 149.463 325.043 149.296 324.576C149.135 324.105 148.874 323.558 148.514 322.935ZM158.92 322.137C158.442 322.413 157.964 322.578 157.487 322.632C157.013 322.674 156.583 322.609 156.196 322.435C155.805 322.254 155.492 321.968 155.257 321.577L156.265 320.995C156.496 321.315 156.801 321.522 157.179 321.618C157.561 321.703 157.987 321.609 158.458 321.337C158.908 321.077 159.198 320.762 159.326 320.392C159.457 320.012 159.421 319.645 159.217 319.291C159.057 319.014 158.851 318.833 158.598 318.748C158.346 318.663 158.079 318.641 157.799 318.683C157.518 318.725 157.154 318.806 156.706 318.926C156.156 319.077 155.699 319.175 155.336 319.218C154.98 319.257 154.622 319.205 154.262 319.062C153.905 318.908 153.597 318.605 153.337 318.155C153.109 317.76 153.007 317.352 153.032 316.931C153.057 316.511 153.202 316.113 153.466 315.739C153.737 315.36 154.108 315.035 154.58 314.763C155.259 314.371 155.911 314.221 156.536 314.313C157.169 314.4 157.675 314.708 158.054 315.238L157.015 315.838C156.82 315.58 156.535 315.422 156.158 315.362C155.778 315.295 155.377 315.384 154.954 315.628C154.559 315.856 154.297 316.146 154.168 316.498C154.034 316.843 154.073 317.199 154.285 317.566C154.437 317.829 154.634 318.002 154.876 318.084C155.124 318.162 155.382 318.185 155.648 318.151C155.918 318.106 156.282 318.025 156.741 317.908C157.295 317.763 157.756 317.673 158.123 317.637C158.486 317.593 158.849 317.647 159.213 317.797C159.573 317.94 159.885 318.241 160.149 318.698C160.353 319.051 160.451 319.438 160.444 319.857C160.437 320.277 160.306 320.69 160.051 321.096C159.796 321.502 159.419 321.849 158.92 322.137ZM161.018 317.005C160.682 316.423 160.505 315.845 160.489 315.273C160.469 314.693 160.593 314.165 160.861 313.686C161.137 313.204 161.528 312.816 162.034 312.524C162.532 312.236 163.028 312.094 163.519 312.096C164.01 312.099 164.44 312.211 164.808 312.433L164.208 311.394L165.164 310.842L168.452 316.537L167.496 317.089L166.884 316.029C166.889 316.469 166.768 316.908 166.522 317.346C166.279 317.773 165.911 318.128 165.419 318.412C164.914 318.704 164.384 318.844 163.831 318.83C163.279 318.817 162.755 318.653 162.259 318.339C161.763 318.024 161.35 317.58 161.018 317.005ZM165.846 314.231C165.598 313.801 165.295 313.477 164.938 313.259C164.581 313.04 164.205 312.933 163.811 312.939C163.42 312.934 163.048 313.033 162.695 313.237C162.341 313.441 162.067 313.71 161.872 314.045C161.677 314.379 161.585 314.755 161.596 315.174C161.607 315.593 161.736 316.017 161.984 316.447C162.236 316.883 162.543 317.214 162.904 317.44C163.261 317.658 163.635 317.77 164.026 317.776C164.413 317.774 164.783 317.671 165.137 317.467C165.49 317.263 165.764 316.994 165.959 316.66C166.157 316.314 166.251 315.932 166.24 315.514C166.225 315.088 166.094 314.66 165.846 314.231ZM166.902 307.178L171.342 314.868L170.396 315.414L165.956 307.724L166.902 307.178ZM176.726 307.672C176.83 307.852 176.93 308.049 177.025 308.261L172.473 310.889C172.832 311.431 173.277 311.761 173.807 311.879C174.34 311.987 174.856 311.897 175.355 311.609C175.764 311.373 176.049 311.083 176.212 310.74C176.377 310.386 176.423 310.018 176.35 309.635L177.368 309.047C177.532 309.683 177.485 310.305 177.228 310.916C176.966 311.519 176.496 312.017 175.817 312.409C175.277 312.721 174.722 312.88 174.152 312.885C173.59 312.887 173.059 312.736 172.561 312.433C172.058 312.122 171.637 311.673 171.297 311.084C170.957 310.495 170.777 309.911 170.756 309.331C170.736 308.752 170.869 308.222 171.155 307.743C171.445 307.252 171.867 306.847 172.421 306.527C172.962 306.215 173.508 306.057 174.059 306.052C174.611 306.048 175.118 306.19 175.579 306.477C176.044 306.754 176.426 307.152 176.726 307.672ZM175.636 308.038C175.428 307.678 175.17 307.416 174.862 307.251C174.551 307.08 174.219 307.009 173.866 307.037C173.516 307.055 173.174 307.159 172.842 307.351C172.364 307.627 172.043 308.016 171.879 308.517C171.723 309.013 171.776 309.546 172.04 310.114L175.636 308.038ZM182.161 308.746C181.725 308.998 181.291 309.152 180.861 309.206C180.426 309.254 180.033 309.204 179.68 309.057C179.323 308.902 179.034 308.658 178.813 308.324L179.79 307.76C179.982 308.028 180.248 308.184 180.587 308.228C180.934 308.268 181.301 308.176 181.689 307.952C182.049 307.744 182.287 307.501 182.403 307.221C182.519 306.942 182.507 306.681 182.367 306.438C182.223 306.189 182.006 306.069 181.716 306.08C181.422 306.083 181.01 306.16 180.477 306.31C179.991 306.443 179.58 306.532 179.246 306.577C178.915 306.612 178.588 306.574 178.266 306.464C177.947 306.343 177.682 306.1 177.47 305.732C177.302 305.441 177.234 305.125 177.267 304.782C177.301 304.44 177.437 304.107 177.675 303.785C177.91 303.455 178.232 303.172 178.64 302.936C179.271 302.572 179.872 302.438 180.444 302.532C181.016 302.627 181.476 302.944 181.824 303.482L180.878 304.028C180.685 303.742 180.426 303.573 180.1 303.521C179.781 303.465 179.439 303.543 179.071 303.755C178.732 303.951 178.504 304.179 178.387 304.441C178.27 304.702 178.279 304.951 178.415 305.186C178.523 305.373 178.672 305.495 178.862 305.552C179.055 305.598 179.263 305.607 179.487 305.579C179.714 305.54 180.017 305.472 180.394 305.374C180.867 305.249 181.264 305.168 181.584 305.131C181.9 305.087 182.211 305.12 182.515 305.231C182.826 305.337 183.085 305.562 183.292 305.904C183.472 306.216 183.547 306.547 183.518 306.896C183.489 307.246 183.357 307.585 183.122 307.915C182.89 308.233 182.57 308.51 182.161 308.746Z" fill="#232D42"/>
<circle cx="97.446" cy="352.706" r="4" transform="rotate(-30 97.446 352.706)" fill="#7951F9"/>
<path d="M126.796 360.431C127.039 360.852 127.159 361.311 127.155 361.808C127.155 362.293 127.015 362.779 126.734 363.264C126.457 363.736 126.048 364.156 125.505 364.523L126.072 365.505L125.296 365.953L124.722 364.959C123.872 365.353 123.081 365.486 122.35 365.358C121.615 365.223 121.033 364.804 120.606 364.102L122.425 363.052C122.81 363.606 123.312 363.785 123.931 363.589L122.594 361.273C121.928 361.464 121.376 361.589 120.936 361.649C120.496 361.708 120.054 361.651 119.608 361.477C119.163 361.303 118.779 360.937 118.457 360.38C118.051 359.677 117.971 358.958 118.215 358.224C118.468 357.486 118.975 356.853 119.738 356.326L119.171 355.344L119.947 354.896L120.514 355.878C121.328 355.495 122.081 355.372 122.775 355.51C123.477 355.644 124.062 356.05 124.529 356.729L122.699 357.786C122.539 357.565 122.337 357.412 122.094 357.326C121.854 357.228 121.596 357.21 121.319 357.273L122.642 359.564C123.337 359.368 123.9 359.242 124.332 359.187C124.767 359.119 125.207 359.172 125.652 359.346C126.093 359.512 126.474 359.873 126.796 360.431ZM120.179 359.273C120.333 359.54 120.539 359.711 120.799 359.788C121.054 359.856 121.365 359.854 121.733 359.782L120.522 357.684C120.255 357.893 120.087 358.135 120.02 358.411C119.953 358.686 120.006 358.974 120.179 359.273ZM124.721 363.165C124.996 362.931 125.162 362.668 125.22 362.376C125.285 362.08 125.239 361.794 125.08 361.519C124.926 361.252 124.718 361.087 124.455 361.023C124.192 360.96 123.872 360.966 123.496 361.043L124.721 363.165ZM130.815 358.047C131.085 358.365 131.389 358.556 131.727 358.619C132.069 358.67 132.434 358.583 132.822 358.359C133.323 358.07 133.567 357.653 133.556 357.111C133.539 356.56 133.247 355.791 132.677 354.805C132.641 355.171 132.495 355.525 132.239 355.866C131.992 356.203 131.674 356.483 131.286 356.707C130.769 357.006 130.239 357.172 129.698 357.204C129.159 357.224 128.648 357.094 128.163 356.813C127.673 356.525 127.253 356.078 126.903 355.471C126.385 354.574 126.241 353.709 126.471 352.876C126.697 352.034 127.27 351.347 128.192 350.815C129.339 350.153 130.36 350.054 131.253 350.519C132.155 350.979 133.033 351.949 133.887 353.428C134.493 354.479 134.897 355.393 135.099 356.171C135.308 356.945 135.291 357.634 135.047 358.238C134.811 358.837 134.314 359.357 133.554 359.795C132.956 360.141 132.381 360.321 131.83 360.338C131.275 360.346 130.776 360.23 130.335 359.988C129.898 359.735 129.532 359.391 129.238 358.957L130.815 358.047ZM130.84 355.122C131.26 354.88 131.517 354.559 131.61 354.16C131.703 353.762 131.624 353.344 131.372 352.908C131.096 352.431 130.755 352.138 130.347 352.028C129.942 351.906 129.522 351.971 129.085 352.223C128.649 352.475 128.38 352.813 128.28 353.237C128.184 353.649 128.264 354.077 128.521 354.521C128.768 354.95 129.092 355.231 129.493 355.366C129.898 355.488 130.347 355.407 130.84 355.122ZM139.01 347.786C138.733 347.493 138.445 347.321 138.145 347.267C137.853 347.21 137.521 347.288 137.149 347.503C136.591 347.825 136.31 348.289 136.304 348.896C136.302 349.49 136.589 350.294 137.164 351.309C137.172 350.874 137.31 350.46 137.579 350.067C137.843 349.667 138.194 349.341 138.63 349.089C139.156 348.785 139.686 348.63 140.221 348.623C140.755 348.616 141.262 348.765 141.74 349.071C142.214 349.369 142.626 349.821 142.976 350.427C143.307 351.001 143.486 351.582 143.513 352.17C143.544 352.745 143.409 353.286 143.109 353.794C142.809 354.301 142.352 354.732 141.738 355.087C140.897 355.572 140.127 355.769 139.427 355.677C138.736 355.58 138.102 355.257 137.525 354.706C136.952 354.142 136.383 353.372 135.818 352.394C134.964 350.914 134.575 349.652 134.65 348.606C134.72 347.552 135.305 346.708 136.405 346.074C137.253 345.584 138.045 345.434 138.78 345.624C139.515 345.814 140.117 346.231 140.586 346.876L139.01 347.786ZM139.047 350.707C138.619 350.954 138.332 351.287 138.185 351.706C138.039 352.124 138.103 352.572 138.379 353.049C138.654 353.526 139.005 353.825 139.43 353.946C139.863 354.062 140.327 353.977 140.82 353.693C141.256 353.441 141.523 353.109 141.619 352.698C141.724 352.282 141.646 351.847 141.384 351.395C141.114 350.926 140.774 350.626 140.364 350.496C139.963 350.361 139.524 350.432 139.047 350.707ZM145.82 350.143C146.223 349.048 146.531 348.154 146.744 347.46C146.953 346.757 147.075 346.083 147.112 345.437C147.148 344.79 147.036 344.241 146.774 343.788C146.536 343.376 146.253 343.109 145.923 342.987C145.594 342.864 145.227 342.92 144.823 343.153C144.419 343.386 144.187 343.703 144.128 344.104C144.063 344.497 144.163 344.93 144.425 345.403L142.776 346.355C142.249 345.367 142.111 344.466 142.363 343.652C142.623 342.833 143.174 342.181 144.015 341.696C144.936 341.164 145.786 341.002 146.563 341.211C147.336 341.411 147.954 341.911 148.416 342.711C148.78 343.342 148.958 344.042 148.95 344.812C148.941 345.582 148.843 346.307 148.654 346.987C148.46 347.66 148.184 348.498 147.826 349.502L151.403 347.437L152.215 348.844L146.225 352.302L145.497 351.041L145.82 350.143ZM154.73 347.666C154.423 347.843 154.115 347.897 153.805 347.828C153.499 347.746 153.265 347.564 153.101 347.281C152.938 346.998 152.9 346.708 152.986 346.41C153.076 346.099 153.275 345.855 153.582 345.678C153.881 345.505 154.184 345.46 154.49 345.542C154.791 345.616 155.023 345.794 155.187 346.077C155.35 346.36 155.391 346.654 155.309 346.96C155.222 347.258 155.029 347.493 154.73 347.666ZM153.531 339.564C153.105 338.732 153.029 337.947 153.302 337.207C153.579 336.454 154.15 335.828 155.015 335.329C155.605 334.988 156.17 334.802 156.712 334.769C157.249 334.729 157.725 334.826 158.141 335.06C158.56 335.281 158.897 335.615 159.154 336.059C159.448 336.568 159.564 337.078 159.503 337.587C159.445 338.084 159.269 338.498 158.975 338.83L159.003 338.878C159.556 338.753 160.069 338.802 160.543 339.024C161.024 339.242 161.433 339.642 161.769 340.224C162.049 340.709 162.185 341.206 162.178 341.717C162.179 342.223 162.025 342.711 161.714 343.181C161.407 343.639 160.95 344.042 160.344 344.392C159.431 344.92 158.554 345.119 157.714 344.989C156.874 344.86 156.179 344.356 155.629 343.477L157.278 342.525C157.523 342.912 157.84 343.154 158.231 343.252C158.625 343.337 159.044 343.252 159.489 342.995C159.901 342.757 160.151 342.462 160.239 342.109C160.33 341.744 160.27 341.38 160.06 341.016C159.78 340.531 159.426 340.272 158.997 340.24C158.569 340.207 158.031 340.377 157.385 340.75L157.033 340.953L156.228 339.559L156.58 339.356C157.727 338.693 158.08 337.978 157.636 337.21C157.436 336.863 157.174 336.653 156.852 336.58C156.538 336.503 156.187 336.576 155.799 336.8C155.419 337.019 155.185 337.295 155.096 337.626C155.011 337.945 155.043 338.271 155.192 338.605L153.531 339.564ZM165.434 338.059C165.704 338.377 166.008 338.568 166.347 338.631C166.688 338.682 167.053 338.595 167.441 338.371C167.942 338.082 168.187 337.666 168.176 337.123C168.159 336.572 167.866 335.803 167.297 334.817C167.26 335.183 167.114 335.537 166.859 335.878C166.612 336.215 166.294 336.496 165.906 336.72C165.389 337.018 164.859 337.184 164.317 337.216C163.779 337.236 163.268 337.106 162.782 336.826C162.293 336.537 161.873 336.09 161.523 335.484C161.005 334.587 160.861 333.721 161.091 332.888C161.316 332.046 161.89 331.36 162.811 330.828C163.959 330.165 164.98 330.066 165.873 330.531C166.775 330.991 167.652 331.961 168.506 333.44C169.113 334.491 169.517 335.405 169.719 336.184C169.928 336.957 169.911 337.646 169.667 338.25C169.431 338.85 168.933 339.369 168.174 339.808C167.575 340.153 167.001 340.334 166.45 340.35C165.894 340.358 165.396 340.242 164.955 340.001C164.517 339.747 164.152 339.403 163.858 338.969L165.434 338.059ZM165.459 335.135C165.88 334.892 166.137 334.571 166.23 334.173C166.323 333.774 166.243 333.356 165.991 332.92C165.716 332.443 165.374 332.15 164.966 332.041C164.562 331.918 164.141 331.983 163.705 332.235C163.268 332.487 163 332.826 162.9 333.25C162.804 333.661 162.884 334.089 163.14 334.534C163.388 334.962 163.712 335.244 164.113 335.378C164.518 335.501 164.966 335.419 165.459 335.135Z" fill="#232D42"/>
<path opacity="0.7" d="M216.28 279.265L220.462 286.509L219.516 287.055L215.334 279.811L216.28 279.265ZM220.736 279.797L222.674 283.153C222.834 283.43 223.007 283.594 223.192 283.644C223.374 283.687 223.611 283.624 223.902 283.456L224.598 283.054L225.06 283.854L224.208 284.346C223.681 284.65 223.216 284.757 222.813 284.666C222.41 284.576 222.048 284.254 221.728 283.699L219.79 280.343L219.052 280.769L218.602 279.989L219.34 279.563L218.512 278.129L219.458 277.583L220.286 279.017L221.772 278.159L222.222 278.939L220.736 279.797ZM229.978 276.927C230.082 277.107 230.182 277.304 230.277 277.517L225.725 280.145C226.084 280.686 226.528 281.016 227.059 281.134C227.592 281.242 228.108 281.152 228.607 280.864C229.016 280.628 229.301 280.338 229.463 279.995C229.629 279.641 229.675 279.273 229.601 278.89L230.62 278.302C230.783 278.938 230.737 279.561 230.479 280.171C230.218 280.774 229.748 281.272 229.069 281.664C228.529 281.976 227.974 282.135 227.404 282.14C226.841 282.142 226.311 281.991 225.812 281.688C225.31 281.377 224.889 280.928 224.549 280.339C224.209 279.75 224.028 279.166 224.008 278.586C223.988 278.007 224.121 277.477 224.407 276.998C224.697 276.507 225.119 276.102 225.673 275.782C226.213 275.47 226.759 275.312 227.311 275.307C227.863 275.303 228.37 275.445 228.831 275.732C229.296 276.009 229.678 276.407 229.978 276.927ZM228.887 277.293C228.679 276.933 228.422 276.671 228.114 276.507C227.803 276.335 227.471 276.264 227.118 276.292C226.767 276.31 226.426 276.414 226.093 276.606C225.615 276.882 225.295 277.271 225.131 277.772C224.975 278.268 225.028 278.801 225.292 279.369L228.887 277.293ZM236.843 269.319C237.287 269.063 237.736 268.929 238.19 268.916C238.641 268.896 239.072 269.011 239.485 269.263C239.898 269.514 240.257 269.903 240.561 270.429L242.499 273.786L241.563 274.326L239.703 271.104C239.375 270.536 238.983 270.185 238.527 270.051C238.074 269.906 237.608 269.972 237.13 270.248C236.638 270.532 236.339 270.917 236.232 271.404C236.121 271.884 236.238 272.422 236.582 273.017L238.394 276.156L237.458 276.696L235.598 273.474C235.27 272.906 234.878 272.555 234.422 272.421C233.969 272.276 233.503 272.342 233.025 272.618C232.534 272.902 232.234 273.287 232.127 273.774C232.016 274.254 232.133 274.792 232.477 275.387L234.289 278.526L233.343 279.072L230.055 273.377L231.001 272.831L231.475 273.652C231.49 273.246 231.607 272.873 231.827 272.534C232.054 272.191 232.357 271.909 232.738 271.689C233.217 271.413 233.701 271.276 234.192 271.279C234.684 271.282 235.139 271.439 235.559 271.751C235.487 271.257 235.57 270.793 235.809 270.36C236.048 269.926 236.393 269.579 236.843 269.319ZM243.268 264.474L242.77 263.611L244.724 262.483L249.062 269.997L248.106 270.549L244.266 263.898L243.268 264.474ZM249.838 267.318L249.424 266.601L250.156 259.444L251.288 258.79L254.144 263.737L255.184 263.137L255.658 263.958L254.618 264.558L255.584 266.231L254.649 266.771L253.683 265.098L249.838 267.318ZM250.965 260.293L250.455 265.867L253.251 264.253L250.965 260.293ZM263.526 261.743C263.048 262.019 262.571 262.183 262.094 262.237C261.62 262.28 261.189 262.214 260.802 262.04C260.412 261.86 260.099 261.574 259.864 261.183L260.872 260.601C261.103 260.92 261.407 261.128 261.786 261.223C262.167 261.308 262.593 261.214 263.064 260.942C263.515 260.682 263.804 260.367 263.932 259.998C264.064 259.617 264.027 259.25 263.823 258.897C263.663 258.62 263.457 258.439 263.205 258.353C262.952 258.268 262.686 258.246 262.405 258.288C262.124 258.33 261.76 258.411 261.312 258.531C260.762 258.683 260.306 258.78 259.943 258.823C259.587 258.863 259.229 258.811 258.869 258.667C258.512 258.513 258.203 258.211 257.943 257.761C257.715 257.366 257.614 256.958 257.639 256.537C257.664 256.116 257.808 255.719 258.073 255.344C258.344 254.966 258.715 254.641 259.186 254.369C259.865 253.977 260.517 253.827 261.143 253.918C261.775 254.006 262.281 254.314 262.661 254.843L261.621 255.443C261.427 255.186 261.141 255.027 260.765 254.968C260.385 254.901 259.983 254.989 259.56 255.233C259.166 255.461 258.903 255.751 258.774 256.103C258.641 256.448 258.68 256.804 258.892 257.171C259.044 257.435 259.241 257.607 259.482 257.69C259.731 257.768 259.988 257.79 260.255 257.756C260.525 257.711 260.889 257.63 261.348 257.513C261.902 257.369 262.362 257.278 262.729 257.242C263.092 257.199 263.456 257.252 263.82 257.402C264.179 257.546 264.491 257.846 264.755 258.303C264.959 258.657 265.058 259.043 265.051 259.463C265.044 259.883 264.913 260.296 264.657 260.702C264.402 261.108 264.025 261.455 263.526 261.743ZM265.624 256.61C265.288 256.028 265.112 255.451 265.095 254.878C265.075 254.299 265.199 253.77 265.468 253.292C265.744 252.809 266.134 252.422 266.64 252.13C267.139 251.842 267.634 251.699 268.125 251.702C268.616 251.705 269.046 251.817 269.414 252.039L268.814 250.999L269.77 250.447L273.058 256.142L272.102 256.694L271.49 255.634C271.495 256.075 271.374 256.514 271.128 256.952C270.885 257.378 270.518 257.734 270.026 258.018C269.52 258.31 268.991 258.449 268.438 258.436C267.885 258.422 267.361 258.258 266.865 257.944C266.37 257.63 265.956 257.185 265.624 256.61ZM270.452 253.836C270.204 253.407 269.902 253.083 269.544 252.864C269.187 252.645 268.812 252.539 268.418 252.545C268.027 252.539 267.655 252.639 267.301 252.843C266.948 253.047 266.674 253.316 266.479 253.65C266.284 253.984 266.192 254.361 266.202 254.78C266.213 255.198 266.343 255.622 266.591 256.052C266.843 256.489 267.149 256.82 267.51 257.045C267.868 257.264 268.242 257.376 268.633 257.381C269.02 257.379 269.39 257.276 269.743 257.072C270.097 256.868 270.371 256.599 270.566 256.265C270.764 255.92 270.857 255.538 270.846 255.119C270.832 254.694 270.7 254.266 270.452 253.836ZM271.508 246.783L275.948 254.474L275.003 255.02L270.563 247.329L271.508 246.783ZM281.333 247.277C281.437 247.457 281.536 247.654 281.632 247.867L277.08 250.495C277.438 251.036 277.883 251.366 278.413 251.485C278.947 251.592 279.463 251.502 279.962 251.214C280.37 250.978 280.656 250.689 280.818 250.346C280.983 249.992 281.029 249.623 280.956 249.241L281.975 248.653C282.138 249.288 282.091 249.911 281.834 250.521C281.573 251.125 281.103 251.623 280.424 252.015C279.883 252.327 279.328 252.485 278.759 252.491C278.196 252.492 277.666 252.341 277.167 252.038C276.665 251.728 276.243 251.278 275.903 250.689C275.563 250.1 275.383 249.516 275.363 248.937C275.342 248.357 275.475 247.828 275.762 247.348C276.051 246.858 276.473 246.453 277.028 246.133C277.568 245.821 278.114 245.662 278.666 245.658C279.217 245.653 279.724 245.795 280.186 246.083C280.651 246.36 281.033 246.758 281.333 247.277ZM280.242 247.644C280.034 247.284 279.776 247.021 279.469 246.857C279.158 246.686 278.825 246.614 278.472 246.643C278.122 246.66 277.781 246.765 277.448 246.957C276.97 247.233 276.649 247.621 276.486 248.122C276.329 248.619 276.383 249.151 276.646 249.72L280.242 247.644ZM286.768 248.352C286.331 248.604 285.898 248.757 285.467 248.812C285.033 248.859 284.639 248.809 284.286 248.662C283.929 248.508 283.641 248.264 283.42 247.929L284.397 247.365C284.588 247.633 284.854 247.789 285.194 247.833C285.54 247.874 285.907 247.782 286.295 247.558C286.656 247.35 286.894 247.106 287.009 246.827C287.125 246.547 287.113 246.286 286.973 246.044C286.829 245.794 286.612 245.675 286.323 245.685C286.029 245.688 285.616 245.765 285.084 245.915C284.597 246.049 284.187 246.138 283.853 246.183C283.521 246.217 283.195 246.179 282.873 246.07C282.554 245.949 282.288 245.705 282.076 245.338C281.908 245.047 281.841 244.73 281.874 244.388C281.907 244.045 282.043 243.713 282.282 243.39C282.516 243.061 282.838 242.778 283.247 242.542C283.877 242.178 284.479 242.043 285.051 242.138C285.623 242.233 286.082 242.549 286.43 243.087L285.484 243.633C285.292 243.347 285.032 243.178 284.707 243.126C284.388 243.07 284.045 243.148 283.678 243.36C283.338 243.556 283.11 243.785 282.993 244.046C282.876 244.308 282.886 244.556 283.022 244.792C283.13 244.979 283.279 245.101 283.468 245.158C283.661 245.203 283.87 245.212 284.094 245.184C284.321 245.146 284.623 245.077 285.001 244.98C285.474 244.854 285.87 244.773 286.19 244.736C286.507 244.692 286.817 244.725 287.121 244.836C287.432 244.943 287.691 245.167 287.898 245.51C288.078 245.822 288.154 246.152 288.124 246.502C288.095 246.851 287.963 247.191 287.728 247.52C287.497 247.839 287.176 248.116 286.768 248.352Z" fill="#232D42"/>
<circle cx="204.833" cy="290.706" r="4" transform="rotate(-30 204.833 290.706)" fill="#DFD5FE"/>
<path d="M233.184 296.699C233.426 297.12 233.546 297.579 233.542 298.076C233.542 298.562 233.402 299.047 233.122 299.532C232.845 300.004 232.435 300.424 231.892 300.791L232.459 301.773L231.684 302.221L231.11 301.227C230.259 301.621 229.469 301.754 228.737 301.626C228.002 301.491 227.42 301.072 226.994 300.37L228.812 299.32C229.197 299.874 229.699 300.053 230.319 299.857L228.982 297.541C228.316 297.732 227.763 297.857 227.323 297.917C226.883 297.976 226.441 297.919 225.996 297.745C225.55 297.571 225.167 297.206 224.845 296.648C224.439 295.945 224.358 295.226 224.602 294.492C224.855 293.754 225.363 293.121 226.126 292.594L225.559 291.612L226.334 291.164L226.901 292.146C227.715 291.763 228.468 291.64 229.162 291.779C229.865 291.912 230.449 292.318 230.917 292.997L229.086 294.054C228.926 293.833 228.725 293.68 228.481 293.594C228.241 293.496 227.983 293.478 227.706 293.541L229.029 295.832C229.724 295.636 230.288 295.51 230.719 295.455C231.154 295.387 231.594 295.44 232.04 295.614C232.48 295.78 232.862 296.142 233.184 296.699ZM226.566 295.541C226.72 295.808 226.927 295.979 227.186 296.056C227.441 296.124 227.753 296.122 228.121 296.05L226.91 293.952C226.642 294.161 226.474 294.403 226.407 294.679C226.34 294.954 226.393 295.242 226.566 295.541ZM231.108 299.433C231.383 299.199 231.549 298.936 231.607 298.644C231.673 298.348 231.626 298.062 231.468 297.787C231.314 297.52 231.105 297.355 230.842 297.291C230.579 297.228 230.259 297.234 229.883 297.311L231.108 299.433ZM237.202 294.315C237.472 294.633 237.776 294.824 238.114 294.887C238.456 294.938 238.821 294.851 239.209 294.627C239.71 294.338 239.955 293.922 239.943 293.379C239.927 292.828 239.634 292.059 239.065 291.073C239.028 291.439 238.882 291.793 238.626 292.134C238.379 292.471 238.061 292.751 237.673 292.975C237.156 293.274 236.627 293.44 236.085 293.472C235.547 293.492 235.035 293.362 234.55 293.081C234.06 292.793 233.64 292.346 233.29 291.74C232.772 290.842 232.628 289.977 232.858 289.144C233.084 288.302 233.657 287.615 234.579 287.083C235.726 286.421 236.747 286.322 237.641 286.787C238.542 287.247 239.42 288.217 240.274 289.696C240.881 290.747 241.285 291.661 241.486 292.439C241.696 293.213 241.678 293.902 241.434 294.506C241.199 295.106 240.701 295.625 239.941 296.063C239.343 296.409 238.768 296.589 238.217 296.606C237.662 296.614 237.163 296.498 236.722 296.257C236.285 296.003 235.919 295.659 235.626 295.225L237.202 294.315ZM237.227 291.39C237.647 291.148 237.904 290.827 237.997 290.428C238.09 290.03 238.011 289.612 237.759 289.176C237.484 288.699 237.142 288.406 236.734 288.296C236.329 288.174 235.909 288.239 235.472 288.491C235.036 288.743 234.768 289.081 234.668 289.505C234.571 289.917 234.651 290.345 234.908 290.789C235.155 291.218 235.479 291.499 235.881 291.634C236.285 291.756 236.734 291.675 237.227 291.39ZM245.397 284.054C245.12 283.762 244.832 283.589 244.532 283.535C244.24 283.478 243.908 283.556 243.536 283.771C242.978 284.093 242.697 284.557 242.692 285.164C242.69 285.758 242.976 286.562 243.551 287.577C243.559 287.142 243.697 286.728 243.966 286.336C244.231 285.935 244.581 285.609 245.018 285.357C245.543 285.053 246.073 284.898 246.608 284.891C247.143 284.884 247.649 285.034 248.128 285.339C248.601 285.637 249.013 286.089 249.363 286.695C249.694 287.269 249.873 287.85 249.9 288.438C249.931 289.013 249.796 289.555 249.496 290.062C249.196 290.569 248.739 291 248.125 291.355C247.284 291.84 246.514 292.037 245.814 291.945C245.123 291.848 244.489 291.525 243.912 290.974C243.339 290.41 242.77 289.64 242.205 288.662C241.351 287.182 240.962 285.92 241.037 284.874C241.108 283.82 241.693 282.976 242.792 282.342C243.641 281.852 244.432 281.702 245.167 281.892C245.902 282.082 246.504 282.499 246.973 283.144L245.397 284.054ZM245.435 286.975C245.006 287.222 244.719 287.555 244.573 287.974C244.426 288.392 244.491 288.84 244.766 289.317C245.041 289.794 245.392 290.093 245.817 290.214C246.251 290.33 246.714 290.245 247.207 289.961C247.643 289.709 247.91 289.377 248.007 288.966C248.111 288.55 248.033 288.115 247.771 287.663C247.501 287.194 247.161 286.894 246.752 286.764C246.35 286.629 245.911 286.7 245.435 286.975ZM252.207 286.411C252.61 285.317 252.918 284.422 253.131 283.728C253.34 283.025 253.462 282.351 253.499 281.705C253.535 281.059 253.423 280.509 253.162 280.057C252.924 279.644 252.64 279.377 252.311 279.255C251.981 279.132 251.615 279.188 251.21 279.421C250.806 279.654 250.574 279.971 250.515 280.372C250.451 280.765 250.55 281.198 250.812 281.672L249.164 282.624C248.636 281.635 248.498 280.734 248.75 279.92C249.011 279.101 249.561 278.449 250.402 277.964C251.323 277.432 252.173 277.27 252.95 277.479C253.724 277.679 254.341 278.179 254.803 278.98C255.167 279.61 255.345 280.31 255.337 281.08C255.329 281.85 255.23 282.575 255.041 283.255C254.847 283.928 254.571 284.766 254.213 285.77L257.79 283.705L258.602 285.112L252.613 288.57L251.885 287.309L252.207 286.411ZM261.117 283.934C260.81 284.111 260.502 284.166 260.193 284.096C259.887 284.014 259.652 283.832 259.489 283.549C259.325 283.266 259.287 282.976 259.374 282.678C259.464 282.367 259.662 282.123 259.969 281.946C260.268 281.773 260.571 281.728 260.877 281.81C261.178 281.884 261.411 282.062 261.574 282.345C261.737 282.628 261.778 282.922 261.696 283.228C261.609 283.526 261.416 283.761 261.117 283.934ZM259.918 275.832C259.492 275.001 259.416 274.215 259.689 273.475C259.966 272.722 260.537 272.096 261.402 271.597C261.992 271.256 262.558 271.07 263.099 271.037C263.636 270.997 264.112 271.094 264.528 271.328C264.947 271.55 265.285 271.883 265.541 272.327C265.835 272.836 265.952 273.346 265.89 273.855C265.832 274.352 265.656 274.766 265.363 275.098L265.391 275.146C265.943 275.021 266.457 275.07 266.93 275.292C267.411 275.51 267.82 275.91 268.156 276.492C268.436 276.977 268.572 277.475 268.565 277.985C268.567 278.491 268.412 278.979 268.101 279.449C267.794 279.907 267.338 280.311 266.731 280.661C265.818 281.188 264.941 281.387 264.102 281.257C263.262 281.128 262.567 280.624 262.016 279.746L263.665 278.794C263.91 279.18 264.228 279.423 264.618 279.52C265.012 279.605 265.432 279.52 265.876 279.263C266.288 279.025 266.538 278.73 266.626 278.378C266.717 278.012 266.657 277.648 266.447 277.284C266.167 276.799 265.813 276.54 265.385 276.508C264.956 276.475 264.419 276.645 263.772 277.018L263.42 277.221L262.615 275.827L262.967 275.624C264.115 274.961 264.467 274.246 264.024 273.478C263.823 273.131 263.561 272.921 263.239 272.848C262.925 272.771 262.574 272.844 262.186 273.068C261.806 273.287 261.572 273.563 261.483 273.894C261.398 274.213 261.43 274.539 261.58 274.873L259.918 275.832ZM271.821 274.327C272.091 274.645 272.396 274.836 272.734 274.899C273.076 274.95 273.441 274.863 273.829 274.639C274.33 274.35 274.574 273.934 274.563 273.391C274.546 272.84 274.254 272.071 273.684 271.085C273.648 271.451 273.502 271.805 273.246 272.147C272.999 272.483 272.681 272.764 272.293 272.988C271.776 273.286 271.246 273.452 270.705 273.485C270.166 273.504 269.655 273.374 269.17 273.094C268.68 272.805 268.26 272.358 267.91 271.752C267.392 270.855 267.248 269.989 267.478 269.156C267.704 268.314 268.277 267.628 269.198 267.096C270.346 266.433 271.367 266.334 272.26 266.799C273.162 267.259 274.04 268.229 274.894 269.708C275.5 270.759 275.904 271.673 276.106 272.452C276.315 273.225 276.298 273.914 276.054 274.518C275.818 275.118 275.321 275.637 274.561 276.076C273.963 276.421 273.388 276.602 272.837 276.618C272.281 276.626 271.783 276.51 271.342 276.269C270.905 276.015 270.539 275.671 270.245 275.237L271.821 274.327ZM271.847 271.403C272.267 271.16 272.524 270.839 272.617 270.441C272.71 270.042 272.631 269.624 272.379 269.188C272.103 268.711 271.762 268.418 271.354 268.309C270.949 268.187 270.529 268.252 270.092 268.504C269.656 268.756 269.387 269.094 269.287 269.518C269.191 269.929 269.271 270.357 269.527 270.802C269.775 271.23 270.099 271.512 270.5 271.647C270.905 271.769 271.354 271.687 271.847 271.403Z" fill="#232D42"/>
</g>
<rect x="291.683" y="137.681" width="273.996" height="196.82" rx="19.5" transform="rotate(-30 291.683 137.681)" fill="white" stroke="#F1ECFF"/>
<path d="M383.753 240.888C393.923 235.016 385.306 220.091 395.578 214.161C405.747 208.289 402.457 202.59 412.728 196.66C422.898 190.788 410.805 169.843 421.077 163.913C431.247 158.042 437.396 168.692 447.667 162.762C457.837 156.891 469.23 176.624 479.4 170.753C489.671 164.823 472.232 134.617 482.401 128.745C492.673 122.815 511.86 156.049 522.03 150.177C532.302 144.247 530.06 140.364 540.23 134.493C550.501 128.563 557.452 140.603 567.622 134.731" stroke="#7951F9" stroke-width="2"/>
<path d="M383.753 240.888C393.923 235.016 387.519 223.925 397.791 217.994C407.96 212.123 413.571 221.841 423.843 215.911C434.012 210.04 432.122 206.765 442.393 200.835C452.563 194.963 444.838 181.583 455.109 175.653C465.279 169.781 456.354 154.323 466.524 148.452C476.795 142.521 488.769 163.261 498.939 157.39C509.21 151.459 505.002 144.171 515.172 138.299C525.443 132.369 529.082 138.672 539.252 132.8C549.524 126.87 557.452 140.603 567.622 134.731" stroke="#F25368" stroke-width="2"/>
<path d="M386.718 239.176C387.204 240.018 386.916 240.987 386.228 241.384C385.541 241.78 384.558 241.545 384.072 240.704C383.586 239.862 383.874 238.894 384.562 238.497C385.249 238.1 386.232 238.335 386.718 239.176Z" fill="white" stroke="#1F78B4" stroke-width="2"/>
<circle cx="396.869" cy="213.108" r="1.5" transform="rotate(-30 396.869 213.108)" fill="white" stroke="#7951F9" stroke-width="2"/>
<circle cx="414.33" cy="195.329" r="1.5" transform="rotate(-30 414.33 195.329)" fill="white" stroke="#7951F9" stroke-width="2"/>
<circle cx="422.577" cy="162.855" r="1.5" transform="rotate(-30 422.577 162.855)" fill="white" stroke="#7951F9" stroke-width="2"/>
<circle cx="449.372" cy="161.241" r="1.5" transform="rotate(-30 449.372 161.241)" fill="white" stroke="#7951F9" stroke-width="2"/>
<path d="M482.383 168.548C482.869 169.389 482.581 170.358 481.893 170.755C481.206 171.152 480.223 170.917 479.737 170.076C479.251 169.234 479.539 168.265 480.227 167.868C480.914 167.471 481.897 167.707 482.383 168.548Z" fill="white" stroke="#7951F9" stroke-width="2"/>
<circle cx="483.867" cy="127.469" r="1.5" transform="rotate(-30 483.867 127.469)" fill="white" stroke="#7951F9" stroke-width="2"/>
<circle cx="523.662" cy="148.373" r="1.5" transform="rotate(-30 523.662 148.373)" fill="white" stroke="#7951F9" stroke-width="2"/>
<path d="M543.339 132.585C543.825 133.427 543.537 134.395 542.849 134.792C542.162 135.189 541.179 134.954 540.693 134.113C540.207 133.271 540.495 132.302 541.183 131.905C541.87 131.509 542.853 131.744 543.339 132.585Z" fill="white" stroke="#7951F9" stroke-width="2"/>
<path d="M571.134 132.704C571.62 133.545 571.332 134.514 570.644 134.911C569.957 135.308 568.974 135.073 568.488 134.231C568.002 133.39 568.29 132.421 568.977 132.024C569.665 131.627 570.648 131.862 571.134 132.704Z" fill="white" stroke="#7951F9" stroke-width="2"/>
<circle cx="385.288" cy="239.81" r="1.5" transform="rotate(-30 385.288 239.81)" fill="white" stroke="#F25368" stroke-width="2"/>
<circle cx="398.869" cy="216.573" r="1.5" transform="rotate(-30 398.869 216.573)" fill="white" stroke="#F25368" stroke-width="2"/>
<circle cx="425.33" cy="214.382" r="1.5" transform="rotate(-30 425.33 214.382)" fill="white" stroke="#F25368" stroke-width="2"/>
<circle cx="443.577" cy="199.228" r="1.5" transform="rotate(-30 443.577 199.228)" fill="white" stroke="#F25368" stroke-width="2"/>
<circle cx="456.705" cy="173.943" r="1.5" transform="rotate(-30 456.705 173.943)" fill="white" stroke="#F25368" stroke-width="2"/>
<circle cx="467.953" cy="146.665" r="1.5" transform="rotate(-30 467.953 146.665)" fill="white" stroke="#F25368" stroke-width="2"/>
<circle cx="500.2" cy="155.759" r="1.5" transform="rotate(-30 500.2 155.759)" fill="white" stroke="#F25368" stroke-width="2"/>
<circle cx="516.995" cy="136.825" r="1.5" transform="rotate(-30 516.995 136.825)" fill="white" stroke="#F25368" stroke-width="2"/>
<circle cx="540.909" cy="131.486" r="1.5" transform="rotate(-30 540.909 131.486)" fill="white" stroke="#F25368" stroke-width="2"/>
<circle cx="569.704" cy="133.337" r="1.5" transform="rotate(-30 569.704 133.337)" fill="white" stroke="#F25368" stroke-width="2"/>
<g filter="url(#filter1_d)">
<path d="M365.945 199.306C364.84 197.393 365.496 194.947 367.409 193.842L395.122 177.842C397.035 176.738 399.481 177.393 400.586 179.306L407.386 191.084C408.49 192.997 407.835 195.444 405.922 196.548L397.014 201.691L394.765 209.225L387.117 207.406L378.209 212.548C376.296 213.653 373.849 212.998 372.745 211.084L365.945 199.306Z" fill="#F7F4FD"/>
<path d="M387.232 206.919L387.039 206.873L386.867 206.973L377.959 212.115C376.285 213.082 374.144 212.508 373.178 210.834L366.378 199.056C365.411 197.382 365.985 195.242 367.659 194.275L395.372 178.275C397.046 177.309 399.186 177.882 400.153 179.556L406.953 191.334C407.919 193.008 407.346 195.149 405.672 196.115L396.764 201.258L396.592 201.358L396.535 201.548L394.421 208.629L387.232 206.919Z" stroke="#E8E0FF"/>
</g>
<path d="M383.494 199.035C383.661 199.323 383.745 199.636 383.748 199.974C383.756 200.308 383.671 200.641 383.494 200.975C383.323 201.304 383.059 201.595 382.704 201.846L383.109 202.548L382.546 202.873L382.141 202.171C381.568 202.433 381.031 202.516 380.53 202.42C380.028 202.325 379.641 202.041 379.368 201.567L380.424 200.957C380.571 201.172 380.752 201.318 380.966 201.395C381.176 201.466 381.411 201.453 381.671 201.357L380.571 199.452C380.128 199.577 379.756 199.661 379.457 199.703C379.155 199.739 378.854 199.697 378.554 199.578C378.26 199.455 378.003 199.203 377.783 198.822C377.506 198.343 377.445 197.851 377.6 197.345C377.751 196.835 378.083 196.396 378.596 196.031L378.191 195.33L378.754 195.005L379.159 195.706C379.694 195.459 380.194 195.386 380.66 195.486C381.129 195.577 381.521 195.851 381.838 196.307L380.782 196.917C380.661 196.748 380.5 196.629 380.299 196.561C380.094 196.486 379.876 196.482 379.644 196.546L380.724 198.417C381.164 198.286 381.536 198.202 381.838 198.166C382.137 198.124 382.434 198.165 382.728 198.288C383.019 198.405 383.274 198.654 383.494 199.035ZM378.757 198.19C378.894 198.427 379.07 198.571 379.285 198.624C379.506 198.674 379.77 198.664 380.076 198.595L379.066 196.845C378.835 197.017 378.687 197.222 378.624 197.459C378.566 197.692 378.61 197.936 378.757 198.19ZM382.234 201.032C382.465 200.845 382.606 200.629 382.657 200.384C382.704 200.133 382.661 199.892 382.528 199.662C382.395 199.431 382.219 199.293 382.002 199.25C381.786 199.197 381.526 199.205 381.219 199.274L382.234 201.032ZM386.042 198.06C386.32 197.261 386.529 196.617 386.67 196.127C386.813 195.629 386.895 195.15 386.915 194.692C386.935 194.234 386.849 193.838 386.656 193.503C386.456 193.156 386.215 192.933 385.934 192.834C385.659 192.731 385.346 192.781 384.994 192.984C384.653 193.181 384.451 193.444 384.387 193.773C384.326 194.094 384.394 194.439 384.592 194.809L383.64 195.359C383.277 194.691 383.183 194.075 383.359 193.512C383.536 192.94 383.917 192.486 384.5 192.149C385.129 191.786 385.72 191.676 386.272 191.819C386.83 191.959 387.276 192.317 387.609 192.894C387.849 193.31 387.974 193.773 387.984 194.283C387.996 194.784 387.943 195.273 387.825 195.749C387.71 196.216 387.542 196.778 387.322 197.437L387.132 198.008L389.877 196.423L390.352 197.246L386.144 199.676L385.729 198.957L386.042 198.06ZM392.531 188.817L389.63 190.492L390.625 192.215C390.653 191.984 390.754 191.745 390.927 191.498C391.106 191.249 391.332 191.045 391.603 190.889C392.088 190.609 392.541 190.486 392.961 190.521C393.387 190.552 393.755 190.689 394.065 190.934C394.381 191.175 394.641 191.471 394.844 191.823C395.091 192.251 395.227 192.68 395.253 193.111C395.282 193.534 395.186 193.935 394.967 194.316C394.754 194.693 394.41 195.018 393.937 195.292C393.308 195.655 392.713 195.791 392.152 195.699C391.59 195.607 391.124 195.326 390.752 194.856L391.714 194.301C391.934 194.535 392.2 194.67 392.513 194.705C392.822 194.734 393.142 194.654 393.471 194.464C393.881 194.227 394.115 193.926 394.174 193.562C394.238 193.193 394.152 192.804 393.915 192.394C393.675 191.979 393.388 191.721 393.054 191.622C392.716 191.516 392.345 191.581 391.941 191.814C391.658 191.977 391.46 192.188 391.347 192.445C391.236 192.694 391.208 192.964 391.261 193.257L390.326 193.797L388.221 190.151L392.031 187.951L392.531 188.817Z" fill="#232D42"/>
<path d="M342.993 144.477L345.539 159.127L342.594 160.827L331.18 151.297L333.778 149.797L342.654 157.49L340.412 145.967L342.993 144.477ZM346.456 144.278C346.029 144.525 345.594 144.599 345.152 144.5C344.715 144.383 344.38 144.122 344.147 143.718C343.913 143.314 343.858 142.899 343.982 142.474C344.111 142.03 344.389 141.685 344.816 141.438C345.243 141.191 345.676 141.126 346.113 141.244C346.555 141.343 346.892 141.594 347.126 141.998C347.359 142.402 347.411 142.826 347.283 143.27C347.159 143.696 346.883 144.032 346.456 144.278ZM348.311 144.732L353.851 154.327L351.426 155.727L345.886 146.132L348.311 144.732ZM362.277 142.788C362.477 143.135 362.634 143.46 362.748 143.764L355.733 147.814C356.191 148.473 356.747 148.876 357.4 149.022C358.054 149.168 358.693 149.061 359.317 148.701C360.217 148.181 360.635 147.424 360.569 146.43L363.185 144.92C363.441 146.004 363.35 147.073 362.911 148.127C362.466 149.169 361.672 150.02 360.529 150.68C359.605 151.213 358.657 151.491 357.684 151.514C356.717 151.518 355.809 151.265 354.96 150.754C354.122 150.237 353.42 149.488 352.854 148.506C352.28 147.513 351.979 146.525 351.95 145.541C351.921 144.557 352.153 143.653 352.647 142.829C353.141 142.005 353.862 141.319 354.809 140.773C355.721 140.246 356.648 139.972 357.591 139.951C358.545 139.924 359.428 140.161 360.241 140.662C361.058 141.144 361.737 141.853 362.277 142.788ZM359.366 143.546C358.994 142.929 358.482 142.562 357.83 142.446C357.171 142.318 356.524 142.438 355.889 142.804C355.289 143.151 354.887 143.629 354.685 144.239C354.488 144.83 354.529 145.476 354.81 146.176L359.366 143.546ZM374.699 129.497L377.433 140.712L374.818 142.222L369.199 136.529L371.319 144.242L368.686 145.762L360.323 137.797L362.783 136.377L368.7 142.706L366.316 134.337L368.88 132.857L374.891 139.108L372.378 130.837L374.699 129.497ZM385.313 136.37C384.528 136.824 383.744 137.092 382.96 137.175C382.17 137.246 381.45 137.146 380.801 136.874C380.163 136.596 379.656 136.172 379.282 135.604L381.724 134.194C381.983 134.536 382.339 134.739 382.791 134.802C383.254 134.857 383.722 134.749 384.196 134.475C384.658 134.209 384.962 133.91 385.11 133.578C385.269 133.24 385.265 132.927 385.098 132.638C384.918 132.326 384.623 132.189 384.213 132.225C383.808 132.243 383.206 132.36 382.406 132.576C381.59 132.816 380.898 132.977 380.33 133.059C379.773 133.134 379.217 133.078 378.662 132.89C378.118 132.696 377.66 132.275 377.287 131.628C376.98 131.097 376.85 130.526 376.897 129.913C376.956 129.295 377.194 128.695 377.613 128.114C378.044 127.527 378.646 127.01 379.42 126.563C380.563 125.903 381.642 125.665 382.657 125.849C383.665 126.022 384.483 126.573 385.112 127.503L382.791 128.843C382.537 128.482 382.202 128.275 381.787 128.222C381.376 128.151 380.934 128.252 380.461 128.526C380.022 128.779 379.728 129.057 379.579 129.358C379.441 129.653 379.456 129.945 379.622 130.234C379.809 130.557 380.114 130.712 380.537 130.699C380.954 130.673 381.553 130.551 382.334 130.331C383.127 130.104 383.802 129.953 384.359 129.878C384.916 129.802 385.469 129.868 386.019 130.074C386.574 130.261 387.041 130.67 387.419 131.298C387.739 131.852 387.87 132.439 387.811 133.058C387.764 133.67 387.526 134.269 387.095 134.857C386.669 135.426 386.075 135.93 385.313 136.37Z" fill="#232D42"/>
<rect opacity="0.2" x="490.013" y="53.1977" width="31" height="31" rx="3.5" transform="rotate(-30 490.013 53.1977)" stroke="#232D42"/>
<path fill-rule="evenodd" clip-rule="evenodd" d="M504.323 58.9845C503.771 58.0279 504.099 56.8047 505.055 56.2524L511.983 52.2524C512.94 51.7002 514.163 52.0279 514.716 52.9845L518.716 59.9127C519.268 60.8693 518.94 62.0925 517.983 62.6447L511.055 66.6447C510.099 67.197 508.876 66.8693 508.323 65.9127L504.323 58.9845Z" stroke="#232D42" stroke-width="2" stroke-linecap="round" stroke-linejoin="round"/>
<path d="M510.162 51.7642L511.495 54.0736" stroke="#232D42" stroke-width="2" stroke-linecap="round" stroke-linejoin="round"/>
<path d="M505.543 54.4307L506.877 56.7401" stroke="#232D42" stroke-width="2" stroke-linecap="round" stroke-linejoin="round"/>
<path d="M505.323 60.7163L515.716 54.7163" stroke="#232D42" stroke-width="2" stroke-linecap="round" stroke-linejoin="round"/>
<path opacity="0.5" d="M485.026 222.966L488.511 229.002L487.723 229.457L484.238 223.421L485.026 222.966ZM488.796 223.375L490.411 226.172C490.545 226.403 490.689 226.54 490.844 226.581C490.995 226.617 491.192 226.565 491.435 226.425L492.015 226.09L492.4 226.756L491.69 227.166C491.251 227.42 490.864 227.509 490.527 227.433C490.191 227.358 489.89 227.089 489.623 226.627L488.008 223.83L487.393 224.185L487.018 223.536L487.633 223.181L486.943 221.986L487.731 221.531L488.421 222.726L489.66 222.011L490.035 222.66L488.796 223.375ZM496.556 220.95C496.643 221.101 496.726 221.264 496.805 221.442L493.012 223.632C493.311 224.083 493.681 224.358 494.123 224.457C494.568 224.546 494.998 224.471 495.414 224.231C495.754 224.035 495.992 223.793 496.127 223.507C496.265 223.212 496.303 222.906 496.242 222.587L497.091 222.097C497.227 222.626 497.188 223.145 496.974 223.654C496.756 224.157 496.364 224.571 495.799 224.898C495.348 225.158 494.886 225.29 494.411 225.295C493.942 225.296 493.5 225.171 493.085 224.918C492.666 224.659 492.315 224.284 492.032 223.794C491.748 223.303 491.598 222.816 491.581 222.333C491.564 221.85 491.675 221.409 491.914 221.01C492.155 220.601 492.507 220.263 492.969 219.996C493.419 219.736 493.874 219.605 494.334 219.601C494.793 219.597 495.216 219.715 495.6 219.955C495.988 220.186 496.306 220.517 496.556 220.95ZM495.647 221.256C495.474 220.956 495.259 220.737 495.003 220.6C494.744 220.457 494.467 220.398 494.172 220.421C493.881 220.436 493.596 220.523 493.319 220.683C492.921 220.913 492.653 221.237 492.517 221.654C492.387 222.068 492.431 222.512 492.651 222.986L495.647 221.256ZM502.335 214.577C502.705 214.364 503.079 214.252 503.457 214.241C503.833 214.224 504.192 214.321 504.536 214.53C504.881 214.74 505.179 215.064 505.433 215.502L507.048 218.3L506.268 218.75L504.718 216.065C504.445 215.592 504.118 215.299 503.738 215.187C503.36 215.067 502.973 215.121 502.574 215.351C502.164 215.588 501.915 215.909 501.826 216.315C501.733 216.715 501.83 217.163 502.117 217.659L503.627 220.275L502.847 220.725L501.297 218.04C501.024 217.567 500.697 217.274 500.317 217.162C499.94 217.042 499.552 217.096 499.153 217.326C498.743 217.563 498.494 217.884 498.405 218.29C498.312 218.69 498.409 219.138 498.696 219.634L500.206 222.25L499.418 222.705L496.678 217.959L497.466 217.504L497.861 218.188C497.874 217.85 497.971 217.539 498.155 217.256C498.343 216.97 498.597 216.736 498.914 216.552C499.313 216.322 499.716 216.208 500.126 216.211C500.535 216.213 500.915 216.344 501.265 216.604C501.204 216.192 501.274 215.806 501.473 215.444C501.672 215.083 501.96 214.794 502.335 214.577ZM511.167 210.61L511.738 212.358L512.933 211.668L513.333 212.361L511.991 213.136L512.619 215.083L511.865 215.518L511.237 213.571L509.419 214.621L510.046 216.568L509.293 217.003L508.665 215.056L507.306 215.841L506.906 215.148L508.413 214.278L507.842 212.53L506.499 213.305L506.099 212.612L507.589 211.752L506.961 209.805L507.715 209.37L508.342 211.317L510.161 210.267L509.533 208.32L510.287 207.885L510.914 209.832L512.118 209.137L512.518 209.83L511.167 210.61ZM510.414 211.045L508.595 212.095L509.166 213.843L510.985 212.793L510.414 211.045ZM515.716 212.452C516.109 211.44 516.406 210.626 516.605 210.011C516.8 209.39 516.921 208.792 516.968 208.219C517.016 207.637 516.926 207.146 516.696 206.748C516.479 206.373 516.217 206.132 515.908 206.025C515.603 205.909 515.248 205.967 514.844 206.201C514.451 206.427 514.217 206.728 514.141 207.103C514.067 207.469 514.14 207.862 514.359 208.282L513.597 208.722C513.247 208.062 513.155 207.449 513.321 206.883C513.487 206.318 513.862 205.867 514.445 205.53C515.04 205.187 515.605 205.08 516.142 205.209C516.684 205.334 517.122 205.686 517.455 206.263C517.732 206.743 517.857 207.294 517.832 207.916C517.809 208.53 517.716 209.115 517.552 209.671C517.385 210.222 517.15 210.889 516.848 211.672L519.827 209.952L520.207 210.61L516.041 213.015L515.716 212.452Z" fill="#232D42"/>
<circle cx="473.263" cy="233.186" r="4" transform="rotate(-30 473.263 233.186)" fill="#F25368"/>
<path opacity="0.5" d="M418.342 261.466L421.827 267.502L421.039 267.957L417.554 261.921L418.342 261.466ZM422.113 261.875L423.728 264.672C423.861 264.903 424.005 265.04 424.16 265.081C424.312 265.117 424.509 265.065 424.751 264.925L425.331 264.59L425.716 265.256L425.006 265.666C424.567 265.92 424.18 266.009 423.844 265.933C423.508 265.858 423.206 265.589 422.94 265.127L421.325 262.33L420.71 262.685L420.335 262.036L420.95 261.681L420.26 260.486L421.048 260.031L421.738 261.226L422.976 260.511L423.351 261.16L422.113 261.875ZM429.873 259.45C429.959 259.601 430.042 259.764 430.122 259.942L426.328 262.132C426.627 262.583 426.998 262.858 427.44 262.957C427.884 263.046 428.314 262.971 428.73 262.731C429.071 262.535 429.309 262.293 429.444 262.007C429.581 261.712 429.62 261.406 429.559 261.087L430.407 260.597C430.544 261.126 430.505 261.645 430.29 262.154C430.073 262.657 429.681 263.071 429.115 263.398C428.665 263.658 428.202 263.79 427.728 263.795C427.259 263.796 426.817 263.671 426.401 263.418C425.982 263.159 425.631 262.784 425.348 262.294C425.065 261.803 424.915 261.316 424.898 260.833C424.88 260.35 424.991 259.909 425.23 259.51C425.472 259.101 425.823 258.763 426.285 258.496C426.735 258.236 427.19 258.105 427.65 258.101C428.11 258.097 428.532 258.215 428.917 258.455C429.304 258.686 429.623 259.017 429.873 259.45ZM428.964 259.756C428.79 259.456 428.576 259.237 428.319 259.1C428.06 258.957 427.783 258.898 427.489 258.921C427.197 258.936 426.912 259.023 426.635 259.183C426.237 259.413 425.97 259.737 425.833 260.154C425.703 260.568 425.748 261.012 425.967 261.486L428.964 259.756ZM435.651 253.077C436.021 252.864 436.395 252.752 436.774 252.741C437.149 252.724 437.509 252.821 437.853 253.03C438.197 253.24 438.496 253.564 438.749 254.002L440.364 256.8L439.585 257.25L438.035 254.565C437.761 254.092 437.435 253.799 437.055 253.687C436.677 253.567 436.289 253.621 435.891 253.851C435.481 254.088 435.231 254.409 435.142 254.815C435.049 255.215 435.147 255.663 435.433 256.159L436.943 258.775L436.164 259.225L434.614 256.54C434.34 256.067 434.014 255.774 433.634 255.662C433.256 255.542 432.868 255.596 432.47 255.826C432.06 256.063 431.81 256.384 431.721 256.79C431.629 257.19 431.726 257.638 432.012 258.134L433.522 260.75L432.734 261.205L429.994 256.459L430.782 256.004L431.177 256.688C431.19 256.35 431.288 256.039 431.471 255.756C431.66 255.47 431.913 255.236 432.231 255.052C432.629 254.822 433.033 254.708 433.442 254.711C433.851 254.713 434.231 254.844 434.581 255.104C434.521 254.692 434.59 254.306 434.79 253.944C434.989 253.583 435.276 253.294 435.651 253.077ZM444.484 249.11L445.055 250.858L446.25 250.168L446.65 250.861L445.307 251.636L445.935 253.583L445.181 254.018L444.554 252.071L442.735 253.121L443.363 255.068L442.609 255.503L441.982 253.556L440.622 254.341L440.222 253.648L441.729 252.778L441.158 251.03L439.816 251.805L439.416 251.112L440.905 250.252L440.278 248.305L441.031 247.87L441.659 249.817L443.477 248.767L442.85 246.82L443.603 246.385L444.231 248.332L445.435 247.637L445.835 248.33L444.484 249.11ZM443.73 249.545L441.912 250.595L442.482 252.343L444.301 251.293L443.73 249.545ZM446.085 246.106L445.67 245.388L447.298 244.448L450.913 250.709L450.116 251.169L446.916 245.626L446.085 246.106Z" fill="#232D42"/>
<circle cx="405.713" cy="272.186" r="4" transform="rotate(-30 405.713 272.186)" fill="#7951F9"/>
<defs>
<filter id="filter0_d" x="163.34" y="153.924" width="76.3372" height="71.5786" filterUnits="userSpaceOnUse" color-interpolation-filters="sRGB">
<feFlood flood-opacity="0" result="BackgroundImageFix"/>
<feColorMatrix in="SourceAlpha" type="matrix" values="0 0 0 0 0 0 0 0 0 0 0 0 0 0 0 0 0 0 127 0" result="hardAlpha"/>
<feOffset dy="6"/>
<feGaussianBlur stdDeviation="5"/>
<feColorMatrix type="matrix" values="0 0 0 0 0.863571 0 0 0 0 0.82875 0 0 0 0 0.975 0 0 0 0.4 0"/>
<feBlend mode="normal" in2="BackgroundImageFix" result="effect1_dropShadow"/>
<feBlend mode="normal" in="SourceGraphic" in2="effect1_dropShadow" result="shape"/>
</filter>
<filter id="filter1_d" x="353.945" y="171.842" width="68.1411" height="63.3828" filterUnits="userSpaceOnUse" color-interpolation-filters="sRGB">
<feFlood flood-opacity="0" result="BackgroundImageFix"/>
<feColorMatrix in="SourceAlpha" type="matrix" values="0 0 0 0 0 0 0 0 0 0 0 0 0 0 0 0 0 0 127 0" result="hardAlpha"/>
<feOffset dy="6"/>
<feGaussianBlur stdDeviation="5"/>
<feColorMatrix type="matrix" values="0 0 0 0 0.863571 0 0 0 0 0.82875 0 0 0 0 0.975 0 0 0 0.4 0"/>
<feBlend mode="normal" in2="BackgroundImageFix" result="effect1_dropShadow"/>
<feBlend mode="normal" in="SourceGraphic" in2="effect1_dropShadow" result="shape"/>
</filter>
</defs>
</svg>
