<svg width="650" height="502" viewBox="0 0 650 502" fill="none" xmlns="http://www.w3.org/2000/svg">
<g filter="url(#filter0_d)">
<rect x="40" y="10" width="274.996" height="197.82" rx="10" fill="white"/>
</g>
<path d="M79.7174 98.26C79.7841 96.9267 80.2508 95.9 81.1174 95.18C81.9974 94.4467 83.1508 94.08 84.5774 94.08C85.5508 94.08 86.3841 94.2533 87.0774 94.6C87.7708 94.9333 88.2908 95.3933 88.6374 95.98C88.9974 96.5533 89.1774 97.2067 89.1774 97.94C89.1774 98.78 88.9574 99.4933 88.5174 100.08C88.0908 100.653 87.5774 101.04 86.9774 101.24V101.32C87.7508 101.56 88.3508 101.987 88.7774 102.6C89.2174 103.213 89.4374 104 89.4374 104.96C89.4374 105.76 89.2508 106.473 88.8774 107.1C88.5174 107.727 87.9774 108.22 87.2574 108.58C86.5508 108.927 85.6974 109.1 84.6974 109.1C83.1908 109.1 81.9641 108.72 81.0174 107.96C80.0708 107.2 79.5708 106.08 79.5174 104.6H82.2374C82.2641 105.253 82.4841 105.78 82.8974 106.18C83.3241 106.567 83.9041 106.76 84.6374 106.76C85.3174 106.76 85.8374 106.573 86.1974 106.2C86.5708 105.813 86.7574 105.32 86.7574 104.72C86.7574 103.92 86.5041 103.347 85.9974 103C85.4908 102.653 84.7041 102.48 83.6374 102.48H83.0574V100.18H83.6374C85.5308 100.18 86.4774 99.5467 86.4774 98.28C86.4774 97.7067 86.3041 97.26 85.9574 96.94C85.6241 96.62 85.1374 96.46 84.4974 96.46C83.8708 96.46 83.3841 96.6333 83.0374 96.98C82.7041 97.3133 82.5108 97.74 82.4574 98.26H79.7174ZM95.0301 106.06L92.6901 111.68H90.8901L92.1901 106.06H95.0301ZM106.008 96.54L100.688 109H97.8482L103.208 96.86H96.3682V94.46H106.008V96.54ZM108.565 105.84C109.845 104.773 110.865 103.887 111.625 103.18C112.385 102.46 113.019 101.713 113.525 100.94C114.032 100.167 114.285 99.4067 114.285 98.66C114.285 97.98 114.125 97.4467 113.805 97.06C113.485 96.6733 112.992 96.48 112.325 96.48C111.659 96.48 111.145 96.7067 110.785 97.16C110.425 97.6 110.239 98.2067 110.225 98.98H107.505C107.559 97.38 108.032 96.1667 108.925 95.34C109.832 94.5133 110.979 94.1 112.365 94.1C113.885 94.1 115.052 94.5067 115.865 95.32C116.679 96.12 117.085 97.18 117.085 98.5C117.085 99.54 116.805 100.533 116.245 101.48C115.685 102.427 115.045 103.253 114.325 103.96C113.605 104.653 112.665 105.493 111.505 106.48H117.405V108.8H107.525V106.72L108.565 105.84ZM122.41 104.9C122.516 105.487 122.756 105.94 123.13 106.26C123.516 106.567 124.03 106.72 124.67 106.72C125.496 106.72 126.096 106.38 126.47 105.7C126.843 105.007 127.03 103.847 127.03 102.22C126.723 102.647 126.29 102.98 125.73 103.22C125.183 103.46 124.59 103.58 123.95 103.58C123.096 103.58 122.323 103.407 121.63 103.06C120.95 102.7 120.41 102.173 120.01 101.48C119.61 100.773 119.41 99.92 119.41 98.92C119.41 97.44 119.85 96.2667 120.73 95.4C121.61 94.52 122.81 94.08 124.33 94.08C126.223 94.08 127.556 94.6867 128.33 95.9C129.116 97.1133 129.51 98.94 129.51 101.38C129.51 103.113 129.356 104.533 129.05 105.64C128.756 106.747 128.243 107.587 127.51 108.16C126.79 108.733 125.803 109.02 124.55 109.02C123.563 109.02 122.723 108.833 122.03 108.46C121.336 108.073 120.803 107.573 120.43 106.96C120.07 106.333 119.863 105.647 119.81 104.9H122.41ZM124.53 101.3C125.223 101.3 125.77 101.087 126.17 100.66C126.57 100.233 126.77 99.66 126.77 98.94C126.77 98.1533 126.556 97.5467 126.13 97.12C125.716 96.68 125.15 96.46 124.43 96.46C123.71 96.46 123.136 96.6867 122.71 97.14C122.296 97.58 122.09 98.1667 122.09 98.9C122.09 99.6067 122.29 100.187 122.69 100.64C123.103 101.08 123.716 101.3 124.53 101.3Z" fill="#232D42"/>
<path d="M99.3935 137.964L96.2015 145.44H94.4975L97.7135 138.156H93.6095V136.716H99.3935V137.964ZM102.828 143.676L101.424 147.048H100.344L101.124 143.676H102.828ZM104.247 140.952C104.247 139.568 104.495 138.484 104.991 137.7C105.495 136.916 106.327 136.524 107.487 136.524C108.647 136.524 109.475 136.916 109.971 137.7C110.475 138.484 110.727 139.568 110.727 140.952C110.727 142.344 110.475 143.436 109.971 144.228C109.475 145.02 108.647 145.416 107.487 145.416C106.327 145.416 105.495 145.02 104.991 144.228C104.495 143.436 104.247 142.344 104.247 140.952ZM109.071 140.952C109.071 140.36 109.031 139.864 108.951 139.464C108.879 139.056 108.727 138.724 108.495 138.468C108.271 138.212 107.935 138.084 107.487 138.084C107.039 138.084 106.699 138.212 106.467 138.468C106.243 138.724 106.091 139.056 106.011 139.464C105.939 139.864 105.903 140.36 105.903 140.952C105.903 141.56 105.939 142.072 106.011 142.488C106.083 142.896 106.235 143.228 106.467 143.484C106.699 143.732 107.039 143.856 107.487 143.856C107.935 143.856 108.275 143.732 108.507 143.484C108.739 143.228 108.891 142.896 108.963 142.488C109.035 142.072 109.071 141.56 109.071 140.952ZM112.404 140.952C112.404 139.568 112.652 138.484 113.148 137.7C113.652 136.916 114.484 136.524 115.644 136.524C116.804 136.524 117.632 136.916 118.128 137.7C118.632 138.484 118.884 139.568 118.884 140.952C118.884 142.344 118.632 143.436 118.128 144.228C117.632 145.02 116.804 145.416 115.644 145.416C114.484 145.416 113.652 145.02 113.148 144.228C112.652 143.436 112.404 142.344 112.404 140.952ZM117.228 140.952C117.228 140.36 117.188 139.864 117.108 139.464C117.036 139.056 116.884 138.724 116.652 138.468C116.428 138.212 116.092 138.084 115.644 138.084C115.196 138.084 114.856 138.212 114.624 138.468C114.4 138.724 114.248 139.056 114.168 139.464C114.096 139.864 114.06 140.36 114.06 140.952C114.06 141.56 114.096 142.072 114.168 142.488C114.24 142.896 114.392 143.228 114.624 143.484C114.856 143.732 115.196 143.856 115.644 143.856C116.092 143.856 116.432 143.732 116.664 143.484C116.896 143.228 117.048 142.896 117.12 142.488C117.192 142.072 117.228 141.56 117.228 140.952ZM120.37 138.84C120.37 138.232 120.546 137.756 120.898 137.412C121.258 137.068 121.718 136.896 122.278 136.896C122.838 136.896 123.294 137.068 123.646 137.412C124.006 137.756 124.186 138.232 124.186 138.84C124.186 139.456 124.006 139.936 123.646 140.28C123.294 140.624 122.838 140.796 122.278 140.796C121.718 140.796 121.258 140.624 120.898 140.28C120.546 139.936 120.37 139.456 120.37 138.84ZM128.074 137.04L123.358 145.44H121.726L126.43 137.04H128.074ZM122.266 137.904C121.826 137.904 121.606 138.216 121.606 138.84C121.606 139.472 121.826 139.788 122.266 139.788C122.482 139.788 122.65 139.712 122.77 139.56C122.89 139.4 122.95 139.16 122.95 138.84C122.95 138.216 122.722 137.904 122.266 137.904ZM125.638 143.628C125.638 143.012 125.814 142.536 126.166 142.2C126.526 141.856 126.986 141.684 127.546 141.684C128.106 141.684 128.558 141.856 128.902 142.2C129.254 142.536 129.43 143.012 129.43 143.628C129.43 144.244 129.254 144.724 128.902 145.068C128.558 145.412 128.106 145.584 127.546 145.584C126.978 145.584 126.518 145.412 126.166 145.068C125.814 144.724 125.638 144.244 125.638 143.628ZM127.534 142.692C127.078 142.692 126.85 143.004 126.85 143.628C126.85 144.26 127.078 144.576 127.534 144.576C127.982 144.576 128.206 144.26 128.206 143.628C128.206 143.004 127.982 142.692 127.534 142.692Z" fill="#4AAF05"/>
<path d="M82.1895 144.107V138.773" stroke="#4AAF05" stroke-width="2" stroke-linecap="round" stroke-linejoin="round"/>
<path d="M80.1895 140.773L82.1895 138.773L84.1895 140.773" stroke="#4AAF05" stroke-width="2" stroke-linecap="round" stroke-linejoin="round"/>
<rect x="174.189" y="62" width="128" height="70" fill="white"/>
<path d="M181.189 138.308C182.683 136.41 187.015 132.615 192.393 132.615C199.115 132.615 196.426 144 203.148 144C209.87 144 206.285 99.8846 213.903 99.8846C221.521 99.8846 215.696 115.538 224.658 115.538C233.621 115.538 226.899 132.615 235.414 132.615C243.928 132.615 238.102 99.8846 246.169 99.8846C254.235 99.8846 247.961 70 256.924 70C265.887 70 258.268 92.7692 267.679 92.7692C277.09 92.7692 268.575 129.058 278.434 129.058C288.293 129.058 283.364 115.538 289.189 115.538" stroke="#7A52F8" stroke-width="2"/>
<path opacity="0.4" d="M86.1174 73H85.0254L80.6334 66.34V73H79.5414V64.624H80.6334L85.0254 71.272V64.624H86.1174V73ZM93.9789 69.46C93.9789 69.668 93.9669 69.888 93.9429 70.12H88.6869C88.7269 70.768 88.9469 71.276 89.3469 71.644C89.7549 72.004 90.2469 72.184 90.8229 72.184C91.2949 72.184 91.6869 72.076 91.9989 71.86C92.3189 71.636 92.5429 71.34 92.6709 70.972H93.8469C93.6709 71.604 93.3189 72.12 92.7909 72.52C92.2629 72.912 91.6069 73.108 90.8229 73.108C90.1989 73.108 89.6389 72.968 89.1429 72.688C88.6549 72.408 88.2709 72.012 87.9909 71.5C87.7109 70.98 87.5709 70.38 87.5709 69.7C87.5709 69.02 87.7069 68.424 87.9789 67.912C88.2509 67.4 88.6309 67.008 89.1189 66.736C89.6149 66.456 90.1829 66.316 90.8229 66.316C91.4469 66.316 91.9989 66.452 92.4789 66.724C92.9589 66.996 93.3269 67.372 93.5829 67.852C93.8469 68.324 93.9789 68.86 93.9789 69.46ZM92.8509 69.232C92.8509 68.816 92.7589 68.46 92.5749 68.164C92.3909 67.86 92.1389 67.632 91.8189 67.48C91.5069 67.32 91.1589 67.24 90.7749 67.24C90.2229 67.24 89.7509 67.416 89.3589 67.768C88.9749 68.12 88.7549 68.608 88.6989 69.232H92.8509ZM104.18 66.424L102.128 73H101L99.4163 67.78L97.8323 73H96.7043L94.6403 66.424H95.7563L97.2683 71.944L98.9003 66.424H100.016L101.612 71.956L103.1 66.424H104.18ZM109.555 72.112H112.483V73H108.463V64.636H109.555V72.112ZM119.643 69.46C119.643 69.668 119.631 69.888 119.607 70.12H114.351C114.391 70.768 114.611 71.276 115.011 71.644C115.419 72.004 115.911 72.184 116.487 72.184C116.959 72.184 117.351 72.076 117.663 71.86C117.983 71.636 118.207 71.34 118.335 70.972H119.511C119.335 71.604 118.983 72.12 118.455 72.52C117.927 72.912 117.271 73.108 116.487 73.108C115.863 73.108 115.303 72.968 114.807 72.688C114.319 72.408 113.935 72.012 113.655 71.5C113.375 70.98 113.235 70.38 113.235 69.7C113.235 69.02 113.371 68.424 113.643 67.912C113.915 67.4 114.295 67.008 114.783 66.736C115.279 66.456 115.847 66.316 116.487 66.316C117.111 66.316 117.663 66.452 118.143 66.724C118.623 66.996 118.991 67.372 119.247 67.852C119.511 68.324 119.643 68.86 119.643 69.46ZM118.515 69.232C118.515 68.816 118.423 68.46 118.239 68.164C118.055 67.86 117.803 67.632 117.483 67.48C117.171 67.32 116.823 67.24 116.439 67.24C115.887 67.24 115.415 67.416 115.023 67.768C114.639 68.12 114.419 68.608 114.363 69.232H118.515ZM120.676 69.688C120.676 69.016 120.812 68.428 121.084 67.924C121.356 67.412 121.728 67.016 122.2 66.736C122.68 66.456 123.212 66.316 123.796 66.316C124.372 66.316 124.872 66.44 125.296 66.688C125.72 66.936 126.036 67.248 126.244 67.624V66.424H127.348V73H126.244V71.776C126.028 72.16 125.704 72.48 125.272 72.736C124.848 72.984 124.352 73.108 123.784 73.108C123.2 73.108 122.672 72.964 122.2 72.676C121.728 72.388 121.356 71.984 121.084 71.464C120.812 70.944 120.676 70.352 120.676 69.688ZM126.244 69.7C126.244 69.204 126.144 68.772 125.944 68.404C125.744 68.036 125.472 67.756 125.128 67.564C124.792 67.364 124.42 67.264 124.012 67.264C123.604 67.264 123.232 67.36 122.896 67.552C122.56 67.744 122.292 68.024 122.092 68.392C121.892 68.76 121.792 69.192 121.792 69.688C121.792 70.192 121.892 70.632 122.092 71.008C122.292 71.376 122.56 71.66 122.896 71.86C123.232 72.052 123.604 72.148 124.012 72.148C124.42 72.148 124.792 72.052 125.128 71.86C125.472 71.66 125.744 71.376 125.944 71.008C126.144 70.632 126.244 70.196 126.244 69.7ZM128.786 69.688C128.786 69.016 128.922 68.428 129.194 67.924C129.466 67.412 129.838 67.016 130.31 66.736C130.79 66.456 131.326 66.316 131.918 66.316C132.43 66.316 132.906 66.436 133.346 66.676C133.786 66.908 134.122 67.216 134.354 67.6V64.12H135.458V73H134.354V71.764C134.138 72.156 133.818 72.48 133.394 72.736C132.97 72.984 132.474 73.108 131.906 73.108C131.322 73.108 130.79 72.964 130.31 72.676C129.838 72.388 129.466 71.984 129.194 71.464C128.922 70.944 128.786 70.352 128.786 69.688ZM134.354 69.7C134.354 69.204 134.254 68.772 134.054 68.404C133.854 68.036 133.582 67.756 133.238 67.564C132.902 67.364 132.53 67.264 132.122 67.264C131.714 67.264 131.342 67.36 131.006 67.552C130.67 67.744 130.402 68.024 130.202 68.392C130.002 68.76 129.902 69.192 129.902 69.688C129.902 70.192 130.002 70.632 130.202 71.008C130.402 71.376 130.67 71.66 131.006 71.86C131.342 72.052 131.714 72.148 132.122 72.148C132.53 72.148 132.902 72.052 133.238 71.86C133.582 71.66 133.854 71.376 134.054 71.008C134.254 70.632 134.354 70.196 134.354 69.7ZM139.631 73.108C139.127 73.108 138.675 73.024 138.275 72.856C137.875 72.68 137.559 72.44 137.327 72.136C137.095 71.824 136.967 71.468 136.943 71.068H138.071C138.103 71.396 138.255 71.664 138.527 71.872C138.807 72.08 139.171 72.184 139.619 72.184C140.035 72.184 140.363 72.092 140.603 71.908C140.843 71.724 140.963 71.492 140.963 71.212C140.963 70.924 140.835 70.712 140.579 70.576C140.323 70.432 139.927 70.292 139.391 70.156C138.903 70.028 138.503 69.9 138.191 69.772C137.887 69.636 137.623 69.44 137.399 69.184C137.183 68.92 137.075 68.576 137.075 68.152C137.075 67.816 137.175 67.508 137.375 67.228C137.575 66.948 137.859 66.728 138.227 66.568C138.595 66.4 139.015 66.316 139.487 66.316C140.215 66.316 140.803 66.5 141.251 66.868C141.699 67.236 141.939 67.74 141.971 68.38H140.879C140.855 68.036 140.715 67.76 140.459 67.552C140.211 67.344 139.875 67.24 139.451 67.24C139.059 67.24 138.747 67.324 138.515 67.492C138.283 67.66 138.167 67.88 138.167 68.152C138.167 68.368 138.235 68.548 138.371 68.692C138.515 68.828 138.691 68.94 138.899 69.028C139.115 69.108 139.411 69.2 139.787 69.304C140.259 69.432 140.643 69.56 140.939 69.688C141.235 69.808 141.487 69.992 141.695 70.24C141.911 70.488 142.023 70.812 142.031 71.212C142.031 71.572 141.931 71.896 141.731 72.184C141.531 72.472 141.247 72.7 140.879 72.868C140.519 73.028 140.103 73.108 139.631 73.108Z" fill="#232D42"/>
<g filter="url(#filter1_d)">
<rect x="315" y="124" width="274.996" height="197.82" rx="10" fill="white"/>
</g>
<g filter="url(#filter2_d)">
<rect x="420" y="124" width="65" height="5" fill="#7951F9"/>
</g>
<path opacity="0.8" d="M360.229 231.636L357.805 240H356.581L354.637 233.268L352.621 240L351.409 240.012L349.069 231.636H350.233L352.057 238.728L354.073 231.636H355.297L357.217 238.704L359.053 231.636H360.229ZM367.524 236.46C367.524 236.668 367.512 236.888 367.488 237.12H362.232C362.272 237.768 362.492 238.276 362.892 238.644C363.3 239.004 363.792 239.184 364.368 239.184C364.84 239.184 365.232 239.076 365.544 238.86C365.864 238.636 366.088 238.34 366.216 237.972H367.392C367.216 238.604 366.864 239.12 366.336 239.52C365.808 239.912 365.152 240.108 364.368 240.108C363.744 240.108 363.184 239.968 362.688 239.688C362.2 239.408 361.816 239.012 361.536 238.5C361.256 237.98 361.116 237.38 361.116 236.7C361.116 236.02 361.252 235.424 361.524 234.912C361.796 234.4 362.176 234.008 362.664 233.736C363.16 233.456 363.728 233.316 364.368 233.316C364.992 233.316 365.544 233.452 366.024 233.724C366.504 233.996 366.872 234.372 367.128 234.852C367.392 235.324 367.524 235.86 367.524 236.46ZM366.396 236.232C366.396 235.816 366.304 235.46 366.12 235.164C365.936 234.86 365.684 234.632 365.364 234.48C365.052 234.32 364.704 234.24 364.32 234.24C363.768 234.24 363.296 234.416 362.904 234.768C362.52 235.12 362.3 235.608 362.244 236.232H366.396ZM374.693 240.108C374.189 240.108 373.737 240.024 373.337 239.856C372.937 239.68 372.621 239.44 372.389 239.136C372.157 238.824 372.029 238.468 372.005 238.068H373.133C373.165 238.396 373.317 238.664 373.589 238.872C373.869 239.08 374.233 239.184 374.681 239.184C375.097 239.184 375.425 239.092 375.665 238.908C375.905 238.724 376.025 238.492 376.025 238.212C376.025 237.924 375.897 237.712 375.641 237.576C375.385 237.432 374.989 237.292 374.453 237.156C373.965 237.028 373.565 236.9 373.253 236.772C372.949 236.636 372.685 236.44 372.461 236.184C372.245 235.92 372.137 235.576 372.137 235.152C372.137 234.816 372.237 234.508 372.437 234.228C372.637 233.948 372.921 233.728 373.289 233.568C373.657 233.4 374.077 233.316 374.549 233.316C375.277 233.316 375.865 233.5 376.313 233.868C376.761 234.236 377.001 234.74 377.033 235.38H375.941C375.917 235.036 375.777 234.76 375.521 234.552C375.273 234.344 374.937 234.24 374.513 234.24C374.121 234.24 373.809 234.324 373.577 234.492C373.345 234.66 373.229 234.88 373.229 235.152C373.229 235.368 373.297 235.548 373.433 235.692C373.577 235.828 373.753 235.94 373.961 236.028C374.177 236.108 374.473 236.2 374.849 236.304C375.321 236.432 375.705 236.56 376.001 236.688C376.297 236.808 376.549 236.992 376.757 237.24C376.973 237.488 377.085 237.812 377.093 238.212C377.093 238.572 376.993 238.896 376.793 239.184C376.593 239.472 376.309 239.7 375.941 239.868C375.581 240.028 375.165 240.108 374.693 240.108ZM380.066 234.324V238.2C380.066 238.52 380.134 238.748 380.27 238.884C380.406 239.012 380.642 239.076 380.978 239.076H381.782V240H380.798C380.19 240 379.734 239.86 379.43 239.58C379.126 239.3 378.974 238.84 378.974 238.2V234.324H378.122V233.424H378.974V231.768H380.066V233.424H381.782V234.324H380.066ZM384.297 234.492C384.489 234.116 384.761 233.824 385.113 233.616C385.473 233.408 385.909 233.304 386.421 233.304V234.432H386.133C384.909 234.432 384.297 235.096 384.297 236.424V240H383.205V233.424H384.297V234.492ZM390.65 240.108C390.034 240.108 389.474 239.968 388.97 239.688C388.474 239.408 388.082 239.012 387.794 238.5C387.514 237.98 387.374 237.38 387.374 236.7C387.374 236.028 387.518 235.436 387.806 234.924C388.102 234.404 388.502 234.008 389.006 233.736C389.51 233.456 390.074 233.316 390.698 233.316C391.322 233.316 391.886 233.456 392.39 233.736C392.894 234.008 393.29 234.4 393.578 234.912C393.874 235.424 394.022 236.02 394.022 236.7C394.022 237.38 393.87 237.98 393.566 238.5C393.27 239.012 392.866 239.408 392.354 239.688C391.842 239.968 391.274 240.108 390.65 240.108ZM390.65 239.148C391.042 239.148 391.41 239.056 391.754 238.872C392.098 238.688 392.374 238.412 392.582 238.044C392.798 237.676 392.906 237.228 392.906 236.7C392.906 236.172 392.802 235.724 392.594 235.356C392.386 234.988 392.114 234.716 391.778 234.54C391.442 234.356 391.078 234.264 390.686 234.264C390.286 234.264 389.918 234.356 389.582 234.54C389.254 234.716 388.99 234.988 388.79 235.356C388.59 235.724 388.49 236.172 388.49 236.7C388.49 237.236 388.586 237.688 388.778 238.056C388.978 238.424 389.242 238.7 389.57 238.884C389.898 239.06 390.258 239.148 390.65 239.148ZM398.762 233.304C399.562 233.304 400.21 233.548 400.706 234.036C401.202 234.516 401.45 235.212 401.45 236.124V240H400.37V236.28C400.37 235.624 400.206 235.124 399.878 234.78C399.55 234.428 399.102 234.252 398.534 234.252C397.958 234.252 397.498 234.432 397.154 234.792C396.818 235.152 396.65 235.676 396.65 236.364V240H395.558V233.424H396.65V234.36C396.866 234.024 397.158 233.764 397.526 233.58C397.902 233.396 398.314 233.304 398.762 233.304ZM406.045 233.316C406.613 233.316 407.109 233.44 407.533 233.688C407.965 233.936 408.285 234.248 408.493 234.624V233.424H409.597V240.144C409.597 240.744 409.469 241.276 409.213 241.74C408.957 242.212 408.589 242.58 408.109 242.844C407.637 243.108 407.085 243.24 406.453 243.24C405.589 243.24 404.869 243.036 404.293 242.628C403.717 242.22 403.377 241.664 403.273 240.96H404.353C404.473 241.36 404.721 241.68 405.097 241.92C405.473 242.168 405.925 242.292 406.453 242.292C407.053 242.292 407.541 242.104 407.917 241.728C408.301 241.352 408.493 240.824 408.493 240.144V238.764C408.277 239.148 407.957 239.468 407.533 239.724C407.109 239.98 406.613 240.108 406.045 240.108C405.461 240.108 404.929 239.964 404.449 239.676C403.977 239.388 403.605 238.984 403.333 238.464C403.061 237.944 402.925 237.352 402.925 236.688C402.925 236.016 403.061 235.428 403.333 234.924C403.605 234.412 403.977 234.016 404.449 233.736C404.929 233.456 405.461 233.316 406.045 233.316ZM408.493 236.7C408.493 236.204 408.393 235.772 408.193 235.404C407.993 235.036 407.721 234.756 407.377 234.564C407.041 234.364 406.669 234.264 406.261 234.264C405.853 234.264 405.481 234.36 405.145 234.552C404.809 234.744 404.541 235.024 404.341 235.392C404.141 235.76 404.041 236.192 404.041 236.688C404.041 237.192 404.141 237.632 404.341 238.008C404.541 238.376 404.809 238.66 405.145 238.86C405.481 239.052 405.853 239.148 406.261 239.148C406.669 239.148 407.041 239.052 407.377 238.86C407.721 238.66 407.993 238.376 408.193 238.008C408.393 237.632 408.493 237.196 408.493 236.7ZM412.635 231.12V240H411.543V231.12H412.635ZM420.26 233.424L416.3 243.096H415.172L416.468 239.928L413.816 233.424H415.028L417.092 238.752L419.132 233.424H420.26ZM425.849 234.648C426.073 234.256 426.401 233.936 426.833 233.688C427.265 233.44 427.757 233.316 428.309 233.316C428.901 233.316 429.433 233.456 429.905 233.736C430.377 234.016 430.749 234.412 431.021 234.924C431.293 235.428 431.429 236.016 431.429 236.688C431.429 237.352 431.293 237.944 431.021 238.464C430.749 238.984 430.373 239.388 429.893 239.676C429.421 239.964 428.893 240.108 428.309 240.108C427.741 240.108 427.241 239.984 426.809 239.736C426.385 239.488 426.065 239.172 425.849 238.788V240H424.757V231.12H425.849V234.648ZM430.313 236.688C430.313 236.192 430.213 235.76 430.013 235.392C429.813 235.024 429.541 234.744 429.197 234.552C428.861 234.36 428.489 234.264 428.081 234.264C427.681 234.264 427.309 234.364 426.965 234.564C426.629 234.756 426.357 235.04 426.149 235.416C425.949 235.784 425.849 236.212 425.849 236.7C425.849 237.196 425.949 237.632 426.149 238.008C426.357 238.376 426.629 238.66 426.965 238.86C427.309 239.052 427.681 239.148 428.081 239.148C428.489 239.148 428.861 239.052 429.197 238.86C429.541 238.66 429.813 238.376 430.013 238.008C430.213 237.632 430.313 237.192 430.313 236.688ZM438.966 236.46C438.966 236.668 438.954 236.888 438.93 237.12H433.674C433.714 237.768 433.934 238.276 434.334 238.644C434.742 239.004 435.234 239.184 435.81 239.184C436.282 239.184 436.674 239.076 436.986 238.86C437.306 238.636 437.53 238.34 437.658 237.972H438.834C438.658 238.604 438.306 239.12 437.778 239.52C437.25 239.912 436.594 240.108 435.81 240.108C435.186 240.108 434.626 239.968 434.13 239.688C433.642 239.408 433.258 239.012 432.978 238.5C432.698 237.98 432.558 237.38 432.558 236.7C432.558 236.02 432.694 235.424 432.966 234.912C433.238 234.4 433.618 234.008 434.106 233.736C434.602 233.456 435.17 233.316 435.81 233.316C436.434 233.316 436.986 233.452 437.466 233.724C437.946 233.996 438.314 234.372 438.57 234.852C438.834 235.324 438.966 235.86 438.966 236.46ZM437.838 236.232C437.838 235.816 437.746 235.46 437.562 235.164C437.378 234.86 437.126 234.632 436.806 234.48C436.494 234.32 436.146 234.24 435.762 234.24C435.21 234.24 434.738 234.416 434.346 234.768C433.962 235.12 433.742 235.608 433.686 236.232H437.838ZM441.6 231.12V240H440.508V231.12H441.6ZM444.125 232.356C443.917 232.356 443.741 232.284 443.597 232.14C443.453 231.996 443.381 231.82 443.381 231.612C443.381 231.404 443.453 231.228 443.597 231.084C443.741 230.94 443.917 230.868 444.125 230.868C444.325 230.868 444.493 230.94 444.629 231.084C444.773 231.228 444.845 231.404 444.845 231.612C444.845 231.82 444.773 231.996 444.629 232.14C444.493 232.284 444.325 232.356 444.125 232.356ZM444.653 233.424V240H443.561V233.424H444.653ZM452.614 236.46C452.614 236.668 452.602 236.888 452.578 237.12H447.322C447.362 237.768 447.582 238.276 447.982 238.644C448.39 239.004 448.882 239.184 449.458 239.184C449.93 239.184 450.322 239.076 450.634 238.86C450.954 238.636 451.178 238.34 451.306 237.972H452.482C452.306 238.604 451.954 239.12 451.426 239.52C450.898 239.912 450.242 240.108 449.458 240.108C448.834 240.108 448.274 239.968 447.778 239.688C447.29 239.408 446.906 239.012 446.626 238.5C446.346 237.98 446.206 237.38 446.206 236.7C446.206 236.02 446.342 235.424 446.614 234.912C446.886 234.4 447.266 234.008 447.754 233.736C448.25 233.456 448.818 233.316 449.458 233.316C450.082 233.316 450.634 233.452 451.114 233.724C451.594 233.996 451.962 234.372 452.218 234.852C452.482 235.324 452.614 235.86 452.614 236.46ZM451.486 236.232C451.486 235.816 451.394 235.46 451.21 235.164C451.026 234.86 450.774 234.632 450.454 234.48C450.142 234.32 449.794 234.24 449.41 234.24C448.858 234.24 448.386 234.416 447.994 234.768C447.61 235.12 447.39 235.608 447.334 236.232H451.486ZM456.603 238.992L458.643 233.424H459.807L457.227 240H455.955L453.375 233.424H454.551L456.603 238.992ZM466.982 236.46C466.982 236.668 466.97 236.888 466.946 237.12H461.69C461.73 237.768 461.95 238.276 462.35 238.644C462.758 239.004 463.25 239.184 463.826 239.184C464.298 239.184 464.69 239.076 465.002 238.86C465.322 238.636 465.546 238.34 465.674 237.972H466.85C466.674 238.604 466.322 239.12 465.794 239.52C465.266 239.912 464.61 240.108 463.826 240.108C463.202 240.108 462.642 239.968 462.146 239.688C461.658 239.408 461.274 239.012 460.994 238.5C460.714 237.98 460.574 237.38 460.574 236.7C460.574 236.02 460.71 235.424 460.982 234.912C461.254 234.4 461.634 234.008 462.122 233.736C462.618 233.456 463.186 233.316 463.826 233.316C464.45 233.316 465.002 233.452 465.482 233.724C465.962 233.996 466.33 234.372 466.586 234.852C466.85 235.324 466.982 235.86 466.982 236.46ZM465.854 236.232C465.854 235.816 465.762 235.46 465.578 235.164C465.394 234.86 465.142 234.632 464.822 234.48C464.51 234.32 464.162 234.24 463.778 234.24C463.226 234.24 462.754 234.416 462.362 234.768C461.978 235.12 461.758 235.608 461.702 236.232H465.854ZM473.154 234.324V238.2C473.154 238.52 473.222 238.748 473.358 238.884C473.494 239.012 473.73 239.076 474.066 239.076H474.87V240H473.886C473.278 240 472.822 239.86 472.518 239.58C472.214 239.3 472.062 238.84 472.062 238.2V234.324H471.21V233.424H472.062V231.768H473.154V233.424H474.87V234.324H473.154ZM479.558 233.304C480.054 233.304 480.502 233.412 480.902 233.628C481.302 233.836 481.614 234.152 481.838 234.576C482.07 235 482.186 235.516 482.186 236.124V240H481.106V236.28C481.106 235.624 480.942 235.124 480.614 234.78C480.286 234.428 479.838 234.252 479.27 234.252C478.694 234.252 478.234 234.432 477.89 234.792C477.554 235.152 477.386 235.676 477.386 236.364V240H476.294V231.12H477.386V234.36C477.602 234.024 477.898 233.764 478.274 233.58C478.658 233.396 479.086 233.304 479.558 233.304ZM483.661 236.688C483.661 236.016 483.797 235.428 484.069 234.924C484.341 234.412 484.713 234.016 485.185 233.736C485.665 233.456 486.197 233.316 486.781 233.316C487.357 233.316 487.857 233.44 488.281 233.688C488.705 233.936 489.021 234.248 489.229 234.624V233.424H490.333V240H489.229V238.776C489.013 239.16 488.689 239.48 488.257 239.736C487.833 239.984 487.337 240.108 486.769 240.108C486.185 240.108 485.657 239.964 485.185 239.676C484.713 239.388 484.341 238.984 484.069 238.464C483.797 237.944 483.661 237.352 483.661 236.688ZM489.229 236.7C489.229 236.204 489.129 235.772 488.929 235.404C488.729 235.036 488.457 234.756 488.113 234.564C487.777 234.364 487.405 234.264 486.997 234.264C486.589 234.264 486.217 234.36 485.881 234.552C485.545 234.744 485.277 235.024 485.077 235.392C484.877 235.76 484.777 236.192 484.777 236.688C484.777 237.192 484.877 237.632 485.077 238.008C485.277 238.376 485.545 238.66 485.881 238.86C486.217 239.052 486.589 239.148 486.997 239.148C487.405 239.148 487.777 239.052 488.113 238.86C488.457 238.66 488.729 238.376 488.929 238.008C489.129 237.632 489.229 237.196 489.229 236.7ZM493.611 234.324V238.2C493.611 238.52 493.679 238.748 493.815 238.884C493.951 239.012 494.187 239.076 494.523 239.076H495.327V240H494.343C493.735 240 493.279 239.86 492.975 239.58C492.671 239.3 492.519 238.84 492.519 238.2V234.324H491.667V233.424H492.519V231.768H493.611V233.424H495.327V234.324H493.611ZM502.377 240.108C501.873 240.108 501.421 240.024 501.021 239.856C500.621 239.68 500.305 239.44 500.073 239.136C499.841 238.824 499.713 238.468 499.689 238.068H500.817C500.849 238.396 501.001 238.664 501.273 238.872C501.553 239.08 501.917 239.184 502.365 239.184C502.781 239.184 503.109 239.092 503.349 238.908C503.589 238.724 503.709 238.492 503.709 238.212C503.709 237.924 503.581 237.712 503.325 237.576C503.069 237.432 502.673 237.292 502.137 237.156C501.649 237.028 501.249 236.9 500.937 236.772C500.633 236.636 500.369 236.44 500.145 236.184C499.929 235.92 499.821 235.576 499.821 235.152C499.821 234.816 499.921 234.508 500.121 234.228C500.321 233.948 500.605 233.728 500.973 233.568C501.341 233.4 501.761 233.316 502.233 233.316C502.961 233.316 503.549 233.5 503.997 233.868C504.445 234.236 504.685 234.74 504.717 235.38H503.625C503.601 235.036 503.461 234.76 503.205 234.552C502.957 234.344 502.621 234.24 502.197 234.24C501.805 234.24 501.493 234.324 501.261 234.492C501.029 234.66 500.913 234.88 500.913 235.152C500.913 235.368 500.981 235.548 501.117 235.692C501.261 235.828 501.437 235.94 501.645 236.028C501.861 236.108 502.157 236.2 502.533 236.304C503.005 236.432 503.389 236.56 503.685 236.688C503.981 236.808 504.233 236.992 504.441 237.24C504.657 237.488 504.769 237.812 504.777 238.212C504.777 238.572 504.677 238.896 504.477 239.184C504.277 239.472 503.993 239.7 503.625 239.868C503.265 240.028 502.849 240.108 502.377 240.108ZM512.251 233.424V240H511.159V239.028C510.951 239.364 510.659 239.628 510.283 239.82C509.915 240.004 509.507 240.096 509.059 240.096C508.547 240.096 508.087 239.992 507.679 239.784C507.271 239.568 506.947 239.248 506.707 238.824C506.475 238.4 506.359 237.884 506.359 237.276V233.424H507.439V237.132C507.439 237.78 507.603 238.28 507.931 238.632C508.259 238.976 508.707 239.148 509.275 239.148C509.859 239.148 510.319 238.968 510.655 238.608C510.991 238.248 511.159 237.724 511.159 237.036V233.424H512.251ZM513.786 236.7C513.786 236.02 513.922 235.428 514.194 234.924C514.466 234.412 514.842 234.016 515.322 233.736C515.81 233.456 516.366 233.316 516.99 233.316C517.798 233.316 518.462 233.512 518.982 233.904C519.51 234.296 519.858 234.84 520.026 235.536H518.85C518.738 235.136 518.518 234.82 518.19 234.588C517.87 234.356 517.47 234.24 516.99 234.24C516.366 234.24 515.862 234.456 515.478 234.888C515.094 235.312 514.902 235.916 514.902 236.7C514.902 237.492 515.094 238.104 515.478 238.536C515.862 238.968 516.366 239.184 516.99 239.184C517.47 239.184 517.87 239.072 518.19 238.848C518.51 238.624 518.73 238.304 518.85 237.888H520.026C519.85 238.56 519.498 239.1 518.97 239.508C518.442 239.908 517.782 240.108 516.99 240.108C516.366 240.108 515.81 239.968 515.322 239.688C514.842 239.408 514.466 239.012 514.194 238.5C513.922 237.988 513.786 237.388 513.786 236.7ZM521.175 236.7C521.175 236.02 521.311 235.428 521.583 234.924C521.855 234.412 522.231 234.016 522.711 233.736C523.199 233.456 523.755 233.316 524.379 233.316C525.187 233.316 525.851 233.512 526.371 233.904C526.899 234.296 527.247 234.84 527.415 235.536H526.239C526.127 235.136 525.907 234.82 525.579 234.588C525.259 234.356 524.859 234.24 524.379 234.24C523.755 234.24 523.251 234.456 522.867 234.888C522.483 235.312 522.291 235.916 522.291 236.7C522.291 237.492 522.483 238.104 522.867 238.536C523.251 238.968 523.755 239.184 524.379 239.184C524.859 239.184 525.259 239.072 525.579 238.848C525.899 238.624 526.119 238.304 526.239 237.888H527.415C527.239 238.56 526.887 239.1 526.359 239.508C525.831 239.908 525.171 240.108 524.379 240.108C523.755 240.108 523.199 239.968 522.711 239.688C522.231 239.408 521.855 239.012 521.583 238.5C521.311 237.988 521.175 237.388 521.175 236.7ZM534.972 236.46C534.972 236.668 534.96 236.888 534.936 237.12H529.68C529.72 237.768 529.94 238.276 530.34 238.644C530.748 239.004 531.24 239.184 531.816 239.184C532.288 239.184 532.68 239.076 532.992 238.86C533.312 238.636 533.536 238.34 533.664 237.972H534.84C534.664 238.604 534.312 239.12 533.784 239.52C533.256 239.912 532.6 240.108 531.816 240.108C531.192 240.108 530.632 239.968 530.136 239.688C529.648 239.408 529.264 239.012 528.984 238.5C528.704 237.98 528.564 237.38 528.564 236.7C528.564 236.02 528.7 235.424 528.972 234.912C529.244 234.4 529.624 234.008 530.112 233.736C530.608 233.456 531.176 233.316 531.816 233.316C532.44 233.316 532.992 233.452 533.472 233.724C533.952 233.996 534.32 234.372 534.576 234.852C534.84 235.324 534.972 235.86 534.972 236.46ZM533.844 236.232C533.844 235.816 533.752 235.46 533.568 235.164C533.384 234.86 533.132 234.632 532.812 234.48C532.5 234.32 532.152 234.24 531.768 234.24C531.216 234.24 530.744 234.416 530.352 234.768C529.968 235.12 529.748 235.608 529.692 236.232H533.844ZM538.842 240.108C538.338 240.108 537.886 240.024 537.486 239.856C537.086 239.68 536.77 239.44 536.538 239.136C536.306 238.824 536.178 238.468 536.154 238.068H537.282C537.314 238.396 537.466 238.664 537.738 238.872C538.018 239.08 538.382 239.184 538.83 239.184C539.246 239.184 539.574 239.092 539.814 238.908C540.054 238.724 540.174 238.492 540.174 238.212C540.174 237.924 540.046 237.712 539.79 237.576C539.534 237.432 539.138 237.292 538.602 237.156C538.114 237.028 537.714 236.9 537.402 236.772C537.098 236.636 536.834 236.44 536.61 236.184C536.394 235.92 536.286 235.576 536.286 235.152C536.286 234.816 536.386 234.508 536.586 234.228C536.786 233.948 537.07 233.728 537.438 233.568C537.806 233.4 538.226 233.316 538.698 233.316C539.426 233.316 540.014 233.5 540.462 233.868C540.91 234.236 541.15 234.74 541.182 235.38H540.09C540.066 235.036 539.926 234.76 539.67 234.552C539.422 234.344 539.086 234.24 538.662 234.24C538.27 234.24 537.958 234.324 537.726 234.492C537.494 234.66 537.378 234.88 537.378 235.152C537.378 235.368 537.446 235.548 537.582 235.692C537.726 235.828 537.902 235.94 538.11 236.028C538.326 236.108 538.622 236.2 538.998 236.304C539.47 236.432 539.854 236.56 540.15 236.688C540.446 236.808 540.698 236.992 540.906 237.24C541.122 237.488 541.234 237.812 541.242 238.212C541.242 238.572 541.142 238.896 540.942 239.184C540.742 239.472 540.458 239.7 540.09 239.868C539.73 240.028 539.314 240.108 538.842 240.108ZM545.211 240.108C544.707 240.108 544.255 240.024 543.855 239.856C543.455 239.68 543.139 239.44 542.907 239.136C542.675 238.824 542.547 238.468 542.523 238.068H543.651C543.683 238.396 543.835 238.664 544.107 238.872C544.387 239.08 544.751 239.184 545.199 239.184C545.615 239.184 545.943 239.092 546.183 238.908C546.423 238.724 546.543 238.492 546.543 238.212C546.543 237.924 546.415 237.712 546.159 237.576C545.903 237.432 545.507 237.292 544.971 237.156C544.483 237.028 544.083 236.9 543.771 236.772C543.467 236.636 543.203 236.44 542.979 236.184C542.763 235.92 542.655 235.576 542.655 235.152C542.655 234.816 542.755 234.508 542.955 234.228C543.155 233.948 543.439 233.728 543.807 233.568C544.175 233.4 544.595 233.316 545.067 233.316C545.795 233.316 546.383 233.5 546.831 233.868C547.279 234.236 547.519 234.74 547.551 235.38H546.459C546.435 235.036 546.295 234.76 546.039 234.552C545.791 234.344 545.455 234.24 545.031 234.24C544.639 234.24 544.327 234.324 544.095 234.492C543.863 234.66 543.747 234.88 543.747 235.152C543.747 235.368 543.815 235.548 543.951 235.692C544.095 235.828 544.271 235.94 544.479 236.028C544.695 236.108 544.991 236.2 545.367 236.304C545.839 236.432 546.223 236.56 546.519 236.688C546.815 236.808 547.067 236.992 547.275 237.24C547.491 237.488 547.603 237.812 547.611 238.212C547.611 238.572 547.511 238.896 547.311 239.184C547.111 239.472 546.827 239.7 546.459 239.868C546.099 240.028 545.683 240.108 545.211 240.108ZM551.929 234.324H550.549V240H549.457V234.324H548.605V233.424H549.457V232.956C549.457 232.22 549.645 231.684 550.021 231.348C550.405 231.004 551.017 230.832 551.857 230.832V231.744C551.377 231.744 551.037 231.84 550.837 232.032C550.645 232.216 550.549 232.524 550.549 232.956V233.424H551.929V234.324ZM559.134 233.424V240H558.042V239.028C557.834 239.364 557.542 239.628 557.166 239.82C556.798 240.004 556.39 240.096 555.942 240.096C555.43 240.096 554.97 239.992 554.562 239.784C554.154 239.568 553.83 239.248 553.59 238.824C553.358 238.4 553.242 237.884 553.242 237.276V233.424H554.322V237.132C554.322 237.78 554.486 238.28 554.814 238.632C555.142 238.976 555.59 239.148 556.158 239.148C556.742 239.148 557.202 238.968 557.538 238.608C557.874 238.248 558.042 237.724 558.042 237.036V233.424H559.134ZM562.17 231.12V240H561.078V231.12H562.17ZM353.61 254.7C353.61 254.02 353.746 253.428 354.018 252.924C354.29 252.412 354.666 252.016 355.146 251.736C355.634 251.456 356.19 251.316 356.814 251.316C357.622 251.316 358.286 251.512 358.806 251.904C359.334 252.296 359.682 252.84 359.85 253.536H358.674C358.562 253.136 358.342 252.82 358.014 252.588C357.694 252.356 357.294 252.24 356.814 252.24C356.19 252.24 355.686 252.456 355.302 252.888C354.918 253.312 354.726 253.916 354.726 254.7C354.726 255.492 354.918 256.104 355.302 256.536C355.686 256.968 356.19 257.184 356.814 257.184C357.294 257.184 357.694 257.072 358.014 256.848C358.334 256.624 358.554 256.304 358.674 255.888H359.85C359.674 256.56 359.322 257.1 358.794 257.508C358.266 257.908 357.606 258.108 356.814 258.108C356.19 258.108 355.634 257.968 355.146 257.688C354.666 257.408 354.29 257.012 354.018 256.5C353.746 255.988 353.61 255.388 353.61 254.7ZM364.275 258.108C363.659 258.108 363.099 257.968 362.595 257.688C362.099 257.408 361.707 257.012 361.419 256.5C361.139 255.98 360.999 255.38 360.999 254.7C360.999 254.028 361.143 253.436 361.431 252.924C361.727 252.404 362.127 252.008 362.631 251.736C363.135 251.456 363.699 251.316 364.323 251.316C364.947 251.316 365.511 251.456 366.015 251.736C366.519 252.008 366.915 252.4 367.203 252.912C367.499 253.424 367.647 254.02 367.647 254.7C367.647 255.38 367.495 255.98 367.191 256.5C366.895 257.012 366.491 257.408 365.979 257.688C365.467 257.968 364.899 258.108 364.275 258.108ZM364.275 257.148C364.667 257.148 365.035 257.056 365.379 256.872C365.723 256.688 365.999 256.412 366.207 256.044C366.423 255.676 366.531 255.228 366.531 254.7C366.531 254.172 366.427 253.724 366.219 253.356C366.011 252.988 365.739 252.716 365.403 252.54C365.067 252.356 364.703 252.264 364.311 252.264C363.911 252.264 363.543 252.356 363.207 252.54C362.879 252.716 362.615 252.988 362.415 253.356C362.215 253.724 362.115 254.172 362.115 254.7C362.115 255.236 362.211 255.688 362.403 256.056C362.603 256.424 362.867 256.7 363.195 256.884C363.523 257.06 363.883 257.148 364.275 257.148ZM372.387 251.304C373.187 251.304 373.835 251.548 374.331 252.036C374.827 252.516 375.075 253.212 375.075 254.124V258H373.995V254.28C373.995 253.624 373.831 253.124 373.503 252.78C373.175 252.428 372.727 252.252 372.159 252.252C371.583 252.252 371.123 252.432 370.779 252.792C370.443 253.152 370.275 253.676 370.275 254.364V258H369.183V251.424H370.275V252.36C370.491 252.024 370.783 251.764 371.151 251.58C371.527 251.396 371.939 251.304 372.387 251.304ZM378.291 252.324V256.2C378.291 256.52 378.359 256.748 378.495 256.884C378.631 257.012 378.867 257.076 379.203 257.076H380.007V258H379.023C378.415 258 377.959 257.86 377.655 257.58C377.351 257.3 377.199 256.84 377.199 256.2V252.324H376.347V251.424H377.199V249.768H378.291V251.424H380.007V252.324H378.291ZM387.43 254.46C387.43 254.668 387.418 254.888 387.394 255.12H382.138C382.178 255.768 382.398 256.276 382.798 256.644C383.206 257.004 383.698 257.184 384.274 257.184C384.746 257.184 385.138 257.076 385.45 256.86C385.77 256.636 385.994 256.34 386.122 255.972H387.298C387.122 256.604 386.77 257.12 386.242 257.52C385.714 257.912 385.058 258.108 384.274 258.108C383.65 258.108 383.09 257.968 382.594 257.688C382.106 257.408 381.722 257.012 381.442 256.5C381.162 255.98 381.022 255.38 381.022 254.7C381.022 254.02 381.158 253.424 381.43 252.912C381.702 252.4 382.082 252.008 382.57 251.736C383.066 251.456 383.634 251.316 384.274 251.316C384.898 251.316 385.45 251.452 385.93 251.724C386.41 251.996 386.778 252.372 387.034 252.852C387.298 253.324 387.43 253.86 387.43 254.46ZM386.302 254.232C386.302 253.816 386.21 253.46 386.026 253.164C385.842 252.86 385.59 252.632 385.27 252.48C384.958 252.32 384.61 252.24 384.226 252.24C383.674 252.24 383.202 252.416 382.81 252.768C382.426 253.12 382.206 253.608 382.15 254.232H386.302ZM392.175 251.304C392.975 251.304 393.623 251.548 394.119 252.036C394.615 252.516 394.863 253.212 394.863 254.124V258H393.783V254.28C393.783 253.624 393.619 253.124 393.291 252.78C392.963 252.428 392.515 252.252 391.947 252.252C391.371 252.252 390.911 252.432 390.567 252.792C390.231 253.152 390.063 253.676 390.063 254.364V258H388.971V251.424H390.063V252.36C390.279 252.024 390.571 251.764 390.939 251.58C391.315 251.396 391.727 251.304 392.175 251.304ZM398.079 252.324V256.2C398.079 256.52 398.147 256.748 398.283 256.884C398.419 257.012 398.655 257.076 398.991 257.076H399.795V258H398.811C398.203 258 397.747 257.86 397.443 257.58C397.139 257.3 396.987 256.84 396.987 256.2V252.324H396.135V251.424H396.987V249.768H398.079V251.424H399.795V252.324H398.079ZM412.425 251.304C412.937 251.304 413.393 251.412 413.793 251.628C414.193 251.836 414.509 252.152 414.741 252.576C414.973 253 415.089 253.516 415.089 254.124V258H414.009V254.28C414.009 253.624 413.845 253.124 413.517 252.78C413.197 252.428 412.761 252.252 412.209 252.252C411.641 252.252 411.189 252.436 410.853 252.804C410.517 253.164 410.349 253.688 410.349 254.376V258H409.269V254.28C409.269 253.624 409.105 253.124 408.777 252.78C408.457 252.428 408.021 252.252 407.469 252.252C406.901 252.252 406.449 252.436 406.113 252.804C405.777 253.164 405.609 253.688 405.609 254.376V258H404.517V251.424H405.609V252.372C405.825 252.028 406.113 251.764 406.473 251.58C406.841 251.396 407.245 251.304 407.685 251.304C408.237 251.304 408.725 251.428 409.149 251.676C409.573 251.924 409.889 252.288 410.097 252.768C410.281 252.304 410.585 251.944 411.009 251.688C411.433 251.432 411.905 251.304 412.425 251.304ZM416.573 254.688C416.573 254.016 416.709 253.428 416.981 252.924C417.253 252.412 417.625 252.016 418.097 251.736C418.577 251.456 419.109 251.316 419.693 251.316C420.269 251.316 420.769 251.44 421.193 251.688C421.617 251.936 421.933 252.248 422.141 252.624V251.424H423.245V258H422.141V256.776C421.925 257.16 421.601 257.48 421.169 257.736C420.745 257.984 420.249 258.108 419.681 258.108C419.097 258.108 418.569 257.964 418.097 257.676C417.625 257.388 417.253 256.984 416.981 256.464C416.709 255.944 416.573 255.352 416.573 254.688ZM422.141 254.7C422.141 254.204 422.041 253.772 421.841 253.404C421.641 253.036 421.369 252.756 421.025 252.564C420.689 252.364 420.317 252.264 419.909 252.264C419.501 252.264 419.129 252.36 418.793 252.552C418.457 252.744 418.189 253.024 417.989 253.392C417.789 253.76 417.689 254.192 417.689 254.688C417.689 255.192 417.789 255.632 417.989 256.008C418.189 256.376 418.457 256.66 418.793 256.86C419.129 257.052 419.501 257.148 419.909 257.148C420.317 257.148 420.689 257.052 421.025 256.86C421.369 256.66 421.641 256.376 421.841 256.008C422.041 255.632 422.141 255.196 422.141 254.7ZM426.282 252.492C426.474 252.116 426.746 251.824 427.098 251.616C427.458 251.408 427.894 251.304 428.406 251.304V252.432H428.118C426.894 252.432 426.282 253.096 426.282 254.424V258H425.19V251.424H426.282V252.492ZM433.439 258L430.859 255.096V258H429.767V249.12H430.859V254.34L433.391 251.424H434.915L431.819 254.7L434.927 258H433.439ZM442.042 254.46C442.042 254.668 442.03 254.888 442.006 255.12H436.75C436.79 255.768 437.01 256.276 437.41 256.644C437.818 257.004 438.31 257.184 438.886 257.184C439.358 257.184 439.75 257.076 440.062 256.86C440.382 256.636 440.606 256.34 440.734 255.972H441.91C441.734 256.604 441.382 257.12 440.854 257.52C440.326 257.912 439.67 258.108 438.886 258.108C438.262 258.108 437.702 257.968 437.206 257.688C436.718 257.408 436.334 257.012 436.054 256.5C435.774 255.98 435.634 255.38 435.634 254.7C435.634 254.02 435.77 253.424 436.042 252.912C436.314 252.4 436.694 252.008 437.182 251.736C437.678 251.456 438.246 251.316 438.886 251.316C439.51 251.316 440.062 251.452 440.542 251.724C441.022 251.996 441.39 252.372 441.646 252.852C441.91 253.324 442.042 253.86 442.042 254.46ZM440.914 254.232C440.914 253.816 440.822 253.46 440.638 253.164C440.454 252.86 440.202 252.632 439.882 252.48C439.57 252.32 439.222 252.24 438.838 252.24C438.286 252.24 437.814 252.416 437.422 252.768C437.038 253.12 436.818 253.608 436.762 254.232H440.914ZM444.916 252.324V256.2C444.916 256.52 444.984 256.748 445.12 256.884C445.256 257.012 445.492 257.076 445.828 257.076H446.632V258H445.648C445.04 258 444.584 257.86 444.28 257.58C443.976 257.3 443.824 256.84 443.824 256.2V252.324H442.972V251.424H443.824V249.768H444.916V251.424H446.632V252.324H444.916ZM448.619 250.356C448.411 250.356 448.235 250.284 448.091 250.14C447.947 249.996 447.875 249.82 447.875 249.612C447.875 249.404 447.947 249.228 448.091 249.084C448.235 248.94 448.411 248.868 448.619 248.868C448.819 248.868 448.987 248.94 449.123 249.084C449.267 249.228 449.339 249.404 449.339 249.612C449.339 249.82 449.267 249.996 449.123 250.14C448.987 250.284 448.819 250.356 448.619 250.356ZM449.147 251.424V258H448.055V251.424H449.147ZM454.312 251.304C455.112 251.304 455.76 251.548 456.256 252.036C456.752 252.516 457 253.212 457 254.124V258H455.92V254.28C455.92 253.624 455.756 253.124 455.428 252.78C455.1 252.428 454.652 252.252 454.084 252.252C453.508 252.252 453.048 252.432 452.704 252.792C452.368 253.152 452.2 253.676 452.2 254.364V258H451.108V251.424H452.2V252.36C452.416 252.024 452.708 251.764 453.076 251.58C453.452 251.396 453.864 251.304 454.312 251.304ZM461.596 251.316C462.164 251.316 462.66 251.44 463.084 251.688C463.516 251.936 463.836 252.248 464.044 252.624V251.424H465.148V258.144C465.148 258.744 465.02 259.276 464.764 259.74C464.508 260.212 464.14 260.58 463.66 260.844C463.188 261.108 462.636 261.24 462.004 261.24C461.14 261.24 460.42 261.036 459.844 260.628C459.268 260.22 458.928 259.664 458.824 258.96H459.904C460.024 259.36 460.272 259.68 460.648 259.92C461.024 260.168 461.476 260.292 462.004 260.292C462.604 260.292 463.092 260.104 463.468 259.728C463.852 259.352 464.044 258.824 464.044 258.144V256.764C463.828 257.148 463.508 257.468 463.084 257.724C462.66 257.98 462.164 258.108 461.596 258.108C461.012 258.108 460.48 257.964 460 257.676C459.528 257.388 459.156 256.984 458.884 256.464C458.612 255.944 458.476 255.352 458.476 254.688C458.476 254.016 458.612 253.428 458.884 252.924C459.156 252.412 459.528 252.016 460 251.736C460.48 251.456 461.012 251.316 461.596 251.316ZM464.044 254.7C464.044 254.204 463.944 253.772 463.744 253.404C463.544 253.036 463.272 252.756 462.928 252.564C462.592 252.364 462.22 252.264 461.812 252.264C461.404 252.264 461.032 252.36 460.696 252.552C460.36 252.744 460.092 253.024 459.892 253.392C459.692 253.76 459.592 254.192 459.592 254.688C459.592 255.192 459.692 255.632 459.892 256.008C460.092 256.376 460.36 256.66 460.696 256.86C461.032 257.052 461.404 257.148 461.812 257.148C462.22 257.148 462.592 257.052 462.928 256.86C463.272 256.66 463.544 256.376 463.744 256.008C463.944 255.632 464.044 255.196 464.044 254.7ZM472.72 258.108C472.216 258.108 471.764 258.024 471.364 257.856C470.964 257.68 470.648 257.44 470.416 257.136C470.184 256.824 470.056 256.468 470.032 256.068H471.16C471.192 256.396 471.344 256.664 471.616 256.872C471.896 257.08 472.26 257.184 472.708 257.184C473.124 257.184 473.452 257.092 473.692 256.908C473.932 256.724 474.052 256.492 474.052 256.212C474.052 255.924 473.924 255.712 473.668 255.576C473.412 255.432 473.016 255.292 472.48 255.156C471.992 255.028 471.592 254.9 471.28 254.772C470.976 254.636 470.712 254.44 470.488 254.184C470.272 253.92 470.164 253.576 470.164 253.152C470.164 252.816 470.264 252.508 470.464 252.228C470.664 251.948 470.948 251.728 471.316 251.568C471.684 251.4 472.104 251.316 472.576 251.316C473.304 251.316 473.892 251.5 474.34 251.868C474.788 252.236 475.028 252.74 475.06 253.38H473.968C473.944 253.036 473.804 252.76 473.548 252.552C473.3 252.344 472.964 252.24 472.54 252.24C472.148 252.24 471.836 252.324 471.604 252.492C471.372 252.66 471.256 252.88 471.256 253.152C471.256 253.368 471.324 253.548 471.46 253.692C471.604 253.828 471.78 253.94 471.988 254.028C472.204 254.108 472.5 254.2 472.876 254.304C473.348 254.432 473.732 254.56 474.028 254.688C474.324 254.808 474.576 254.992 474.784 255.24C475 255.488 475.112 255.812 475.12 256.212C475.12 256.572 475.02 256.896 474.82 257.184C474.62 257.472 474.336 257.7 473.968 257.868C473.608 258.028 473.192 258.108 472.72 258.108ZM480.026 251.304C480.522 251.304 480.97 251.412 481.37 251.628C481.77 251.836 482.082 252.152 482.306 252.576C482.538 253 482.654 253.516 482.654 254.124V258H481.574V254.28C481.574 253.624 481.41 253.124 481.082 252.78C480.754 252.428 480.306 252.252 479.738 252.252C479.162 252.252 478.702 252.432 478.358 252.792C478.022 253.152 477.854 253.676 477.854 254.364V258H476.762V249.12H477.854V252.36C478.07 252.024 478.366 251.764 478.742 251.58C479.126 251.396 479.554 251.304 480.026 251.304ZM487.406 258.108C486.79 258.108 486.23 257.968 485.726 257.688C485.23 257.408 484.838 257.012 484.55 256.5C484.27 255.98 484.13 255.38 484.13 254.7C484.13 254.028 484.274 253.436 484.562 252.924C484.858 252.404 485.258 252.008 485.762 251.736C486.266 251.456 486.83 251.316 487.454 251.316C488.078 251.316 488.642 251.456 489.146 251.736C489.65 252.008 490.046 252.4 490.334 252.912C490.63 253.424 490.778 254.02 490.778 254.7C490.778 255.38 490.626 255.98 490.322 256.5C490.026 257.012 489.622 257.408 489.11 257.688C488.598 257.968 488.03 258.108 487.406 258.108ZM487.406 257.148C487.798 257.148 488.166 257.056 488.51 256.872C488.854 256.688 489.13 256.412 489.338 256.044C489.554 255.676 489.662 255.228 489.662 254.7C489.662 254.172 489.558 253.724 489.35 253.356C489.142 252.988 488.87 252.716 488.534 252.54C488.198 252.356 487.834 252.264 487.442 252.264C487.042 252.264 486.674 252.356 486.338 252.54C486.01 252.716 485.746 252.988 485.546 253.356C485.346 253.724 485.246 254.172 485.246 254.7C485.246 255.236 485.342 255.688 485.534 256.056C485.734 256.424 485.998 256.7 486.326 256.884C486.654 257.06 487.014 257.148 487.406 257.148ZM498.145 251.424V258H497.053V257.028C496.845 257.364 496.553 257.628 496.177 257.82C495.809 258.004 495.401 258.096 494.953 258.096C494.441 258.096 493.981 257.992 493.573 257.784C493.165 257.568 492.841 257.248 492.601 256.824C492.369 256.4 492.253 255.884 492.253 255.276V251.424H493.333V255.132C493.333 255.78 493.497 256.28 493.825 256.632C494.153 256.976 494.601 257.148 495.169 257.148C495.753 257.148 496.213 256.968 496.549 256.608C496.885 256.248 497.053 255.724 497.053 255.036V251.424H498.145ZM501.181 249.12V258H500.089V249.12H501.181ZM502.734 254.688C502.734 254.016 502.87 253.428 503.142 252.924C503.414 252.412 503.786 252.016 504.258 251.736C504.738 251.456 505.274 251.316 505.866 251.316C506.378 251.316 506.854 251.436 507.294 251.676C507.734 251.908 508.07 252.216 508.302 252.6V249.12H509.406V258H508.302V256.764C508.086 257.156 507.766 257.48 507.342 257.736C506.918 257.984 506.422 258.108 505.854 258.108C505.27 258.108 504.738 257.964 504.258 257.676C503.786 257.388 503.414 256.984 503.142 256.464C502.87 255.944 502.734 255.352 502.734 254.688ZM508.302 254.7C508.302 254.204 508.202 253.772 508.002 253.404C507.802 253.036 507.53 252.756 507.186 252.564C506.85 252.364 506.478 252.264 506.07 252.264C505.662 252.264 505.29 252.36 504.954 252.552C504.618 252.744 504.35 253.024 504.15 253.392C503.95 253.76 503.85 254.192 503.85 254.688C503.85 255.192 503.95 255.632 504.15 256.008C504.35 256.376 504.618 256.66 504.954 256.86C505.29 257.052 505.662 257.148 506.07 257.148C506.478 257.148 506.85 257.052 507.186 256.86C507.53 256.66 507.802 256.376 508.002 256.008C508.202 255.632 508.302 255.196 508.302 254.7ZM514.556 251.304C515.356 251.304 516.004 251.548 516.5 252.036C516.996 252.516 517.244 253.212 517.244 254.124V258H516.164V254.28C516.164 253.624 516 253.124 515.672 252.78C515.344 252.428 514.896 252.252 514.328 252.252C513.752 252.252 513.292 252.432 512.948 252.792C512.612 253.152 512.444 253.676 512.444 254.364V258H511.352V251.424H512.444V252.36C512.66 252.024 512.952 251.764 513.32 251.58C513.696 251.396 514.108 251.304 514.556 251.304ZM519.296 249.636H520.508L519.356 252.36H518.588L519.296 249.636ZM523.185 252.324V256.2C523.185 256.52 523.253 256.748 523.389 256.884C523.525 257.012 523.761 257.076 524.097 257.076H524.901V258H523.917C523.309 258 522.853 257.86 522.549 257.58C522.245 257.3 522.093 256.84 522.093 256.2V252.324H521.241V251.424H522.093V249.768H523.185V251.424H524.901V252.324H523.185ZM529.215 254.688C529.215 254.016 529.351 253.428 529.623 252.924C529.895 252.412 530.267 252.016 530.739 251.736C531.219 251.456 531.755 251.316 532.347 251.316C532.859 251.316 533.335 251.436 533.775 251.676C534.215 251.908 534.551 252.216 534.783 252.6V249.12H535.887V258H534.783V256.764C534.567 257.156 534.247 257.48 533.823 257.736C533.399 257.984 532.903 258.108 532.335 258.108C531.751 258.108 531.219 257.964 530.739 257.676C530.267 257.388 529.895 256.984 529.623 256.464C529.351 255.944 529.215 255.352 529.215 254.688ZM534.783 254.7C534.783 254.204 534.683 253.772 534.483 253.404C534.283 253.036 534.011 252.756 533.667 252.564C533.331 252.364 532.959 252.264 532.551 252.264C532.143 252.264 531.771 252.36 531.435 252.552C531.099 252.744 530.831 253.024 530.631 253.392C530.431 253.76 530.331 254.192 530.331 254.688C530.331 255.192 530.431 255.632 530.631 256.008C530.831 256.376 531.099 256.66 531.435 256.86C531.771 257.052 532.143 257.148 532.551 257.148C532.959 257.148 533.331 257.052 533.667 256.86C534.011 256.66 534.283 256.376 534.483 256.008C534.683 255.632 534.783 255.196 534.783 254.7ZM538.924 252.492C539.116 252.116 539.388 251.824 539.74 251.616C540.1 251.408 540.536 251.304 541.048 251.304V252.432H540.76C539.536 252.432 538.924 253.096 538.924 254.424V258H537.832V251.424H538.924V252.492ZM542.973 250.356C542.765 250.356 542.589 250.284 542.445 250.14C542.301 249.996 542.229 249.82 542.229 249.612C542.229 249.404 542.301 249.228 542.445 249.084C542.589 248.94 542.765 248.868 542.973 248.868C543.173 248.868 543.341 248.94 543.477 249.084C543.621 249.228 543.693 249.404 543.693 249.612C543.693 249.82 543.621 249.996 543.477 250.14C543.341 250.284 543.173 250.356 542.973 250.356ZM543.501 251.424V258H542.409V251.424H543.501ZM547.91 256.992L549.95 251.424H551.114L548.534 258H547.262L544.682 251.424H545.858L547.91 256.992ZM558.288 254.46C558.288 254.668 558.276 254.888 558.252 255.12H552.996C553.036 255.768 553.256 256.276 553.656 256.644C554.064 257.004 554.556 257.184 555.132 257.184C555.604 257.184 555.996 257.076 556.308 256.86C556.628 256.636 556.852 256.34 556.98 255.972H558.156C557.98 256.604 557.628 257.12 557.1 257.52C556.572 257.912 555.916 258.108 555.132 258.108C554.508 258.108 553.948 257.968 553.452 257.688C552.964 257.408 552.58 257.012 552.3 256.5C552.02 255.98 551.88 255.38 551.88 254.7C551.88 254.02 552.016 253.424 552.288 252.912C552.56 252.4 552.94 252.008 553.428 251.736C553.924 251.456 554.492 251.316 555.132 251.316C555.756 251.316 556.308 251.452 556.788 251.724C557.268 251.996 557.636 252.372 557.892 252.852C558.156 253.324 558.288 253.86 558.288 254.46ZM557.16 254.232C557.16 253.816 557.068 253.46 556.884 253.164C556.7 252.86 556.448 252.632 556.128 252.48C555.816 252.32 555.468 252.24 555.084 252.24C554.532 252.24 554.06 252.416 553.668 252.768C553.284 253.12 553.064 253.608 553.008 254.232H557.16ZM450.122 269.424L446.162 279.096H445.034L446.33 275.928L443.678 269.424H444.89L446.954 274.752L448.994 269.424H450.122ZM454.187 276.108C453.571 276.108 453.011 275.968 452.507 275.688C452.011 275.408 451.619 275.012 451.331 274.5C451.051 273.98 450.911 273.38 450.911 272.7C450.911 272.028 451.055 271.436 451.343 270.924C451.639 270.404 452.039 270.008 452.543 269.736C453.047 269.456 453.611 269.316 454.235 269.316C454.859 269.316 455.423 269.456 455.927 269.736C456.431 270.008 456.827 270.4 457.115 270.912C457.411 271.424 457.559 272.02 457.559 272.7C457.559 273.38 457.407 273.98 457.103 274.5C456.807 275.012 456.403 275.408 455.891 275.688C455.379 275.968 454.811 276.108 454.187 276.108ZM454.187 275.148C454.579 275.148 454.947 275.056 455.291 274.872C455.635 274.688 455.911 274.412 456.119 274.044C456.335 273.676 456.443 273.228 456.443 272.7C456.443 272.172 456.339 271.724 456.131 271.356C455.923 270.988 455.651 270.716 455.315 270.54C454.979 270.356 454.615 270.264 454.223 270.264C453.823 270.264 453.455 270.356 453.119 270.54C452.791 270.716 452.527 270.988 452.327 271.356C452.127 271.724 452.027 272.172 452.027 272.7C452.027 273.236 452.123 273.688 452.315 274.056C452.515 274.424 452.779 274.7 453.107 274.884C453.435 275.06 453.795 275.148 454.187 275.148ZM464.927 269.424V276H463.835V275.028C463.627 275.364 463.335 275.628 462.959 275.82C462.591 276.004 462.183 276.096 461.735 276.096C461.223 276.096 460.763 275.992 460.355 275.784C459.947 275.568 459.623 275.248 459.383 274.824C459.151 274.4 459.035 273.884 459.035 273.276V269.424H460.115V273.132C460.115 273.78 460.279 274.28 460.607 274.632C460.935 274.976 461.383 275.148 461.951 275.148C462.535 275.148 462.995 274.968 463.331 274.608C463.667 274.248 463.835 273.724 463.835 273.036V269.424H464.927ZM467.219 276.072C467.011 276.072 466.835 276 466.691 275.856C466.547 275.712 466.475 275.536 466.475 275.328C466.475 275.12 466.547 274.944 466.691 274.8C466.835 274.656 467.011 274.584 467.219 274.584C467.419 274.584 467.587 274.656 467.723 274.8C467.867 274.944 467.939 275.12 467.939 275.328C467.939 275.536 467.867 275.712 467.723 275.856C467.587 276 467.419 276.072 467.219 276.072Z" fill="#3E3E3E"/>
<path d="M427.094 174.26C427.161 172.927 427.627 171.9 428.494 171.18C429.374 170.447 430.527 170.08 431.954 170.08C432.927 170.08 433.761 170.253 434.454 170.6C435.147 170.933 435.667 171.393 436.014 171.98C436.374 172.553 436.554 173.207 436.554 173.94C436.554 174.78 436.334 175.493 435.894 176.08C435.467 176.653 434.954 177.04 434.354 177.24V177.32C435.127 177.56 435.727 177.987 436.154 178.6C436.594 179.213 436.814 180 436.814 180.96C436.814 181.76 436.627 182.473 436.254 183.1C435.894 183.727 435.354 184.22 434.634 184.58C433.927 184.927 433.074 185.1 432.074 185.1C430.567 185.1 429.341 184.72 428.394 183.96C427.447 183.2 426.947 182.08 426.894 180.6H429.614C429.641 181.253 429.861 181.78 430.274 182.18C430.701 182.567 431.281 182.76 432.014 182.76C432.694 182.76 433.214 182.573 433.574 182.2C433.947 181.813 434.134 181.32 434.134 180.72C434.134 179.92 433.881 179.347 433.374 179C432.867 178.653 432.081 178.48 431.014 178.48H430.434V176.18H431.014C432.907 176.18 433.854 175.547 433.854 174.28C433.854 173.707 433.681 173.26 433.334 172.94C433.001 172.62 432.514 172.46 431.874 172.46C431.247 172.46 430.761 172.633 430.414 172.98C430.081 173.313 429.887 173.74 429.834 174.26H427.094ZM442.407 182.06L440.067 187.68H438.267L439.567 182.06H442.407ZM453.385 172.54L448.065 185H445.225L450.585 172.86H443.745V170.46H453.385V172.54ZM455.942 181.84C457.222 180.773 458.242 179.887 459.002 179.18C459.762 178.46 460.395 177.713 460.902 176.94C461.409 176.167 461.662 175.407 461.662 174.66C461.662 173.98 461.502 173.447 461.182 173.06C460.862 172.673 460.369 172.48 459.702 172.48C459.035 172.48 458.522 172.707 458.162 173.16C457.802 173.6 457.615 174.207 457.602 174.98H454.882C454.935 173.38 455.409 172.167 456.302 171.34C457.209 170.513 458.355 170.1 459.742 170.1C461.262 170.1 462.429 170.507 463.242 171.32C464.055 172.12 464.462 173.18 464.462 174.5C464.462 175.54 464.182 176.533 463.622 177.48C463.062 178.427 462.422 179.253 461.702 179.96C460.982 180.653 460.042 181.493 458.882 182.48H464.782V184.8H454.902V182.72L455.942 181.84ZM469.786 180.9C469.893 181.487 470.133 181.94 470.506 182.26C470.893 182.567 471.406 182.72 472.046 182.72C472.873 182.72 473.473 182.38 473.846 181.7C474.22 181.007 474.406 179.847 474.406 178.22C474.1 178.647 473.666 178.98 473.106 179.22C472.56 179.46 471.966 179.58 471.326 179.58C470.473 179.58 469.7 179.407 469.006 179.06C468.326 178.7 467.786 178.173 467.386 177.48C466.986 176.773 466.786 175.92 466.786 174.92C466.786 173.44 467.226 172.267 468.106 171.4C468.986 170.52 470.186 170.08 471.706 170.08C473.6 170.08 474.933 170.687 475.706 171.9C476.493 173.113 476.886 174.94 476.886 177.38C476.886 179.113 476.733 180.533 476.426 181.64C476.133 182.747 475.62 183.587 474.886 184.16C474.166 184.733 473.18 185.02 471.926 185.02C470.94 185.02 470.1 184.833 469.406 184.46C468.713 184.073 468.18 183.573 467.806 182.96C467.446 182.333 467.24 181.647 467.186 180.9H469.786ZM471.906 177.3C472.6 177.3 473.146 177.087 473.546 176.66C473.946 176.233 474.146 175.66 474.146 174.94C474.146 174.153 473.933 173.547 473.506 173.12C473.093 172.68 472.526 172.46 471.806 172.46C471.086 172.46 470.513 172.687 470.086 173.14C469.673 173.58 469.466 174.167 469.466 174.9C469.466 175.607 469.666 176.187 470.066 176.64C470.48 177.08 471.093 177.3 471.906 177.3Z" fill="#7951F9"/>
<defs>
<filter id="filter0_d" x="0" y="0" width="354.997" height="277.82" filterUnits="userSpaceOnUse" color-interpolation-filters="sRGB">
<feFlood flood-opacity="0" result="BackgroundImageFix"/>
<feColorMatrix in="SourceAlpha" type="matrix" values="0 0 0 0 0 0 0 0 0 0 0 0 0 0 0 0 0 0 127 0" result="hardAlpha"/>
<feOffset dy="30"/>
<feGaussianBlur stdDeviation="20"/>
<feColorMatrix type="matrix" values="0 0 0 0 0.62862 0 0 0 0 0.557604 0 0 0 0 0.841667 0 0 0 0.1 0"/>
<feBlend mode="normal" in2="BackgroundImageFix" result="effect1_dropShadow"/>
<feBlend mode="normal" in="SourceGraphic" in2="effect1_dropShadow" result="shape"/>
</filter>
<filter id="filter1_d" x="135" y="64" width="514.997" height="437.82" filterUnits="userSpaceOnUse" color-interpolation-filters="sRGB">
<feFlood flood-opacity="0" result="BackgroundImageFix"/>
<feColorMatrix in="SourceAlpha" type="matrix" values="0 0 0 0 0 0 0 0 0 0 0 0 0 0 0 0 0 0 127 0" result="hardAlpha"/>
<feOffset dx="-60" dy="60"/>
<feGaussianBlur stdDeviation="60"/>
<feColorMatrix type="matrix" values="0 0 0 0 0.62862 0 0 0 0 0.557604 0 0 0 0 0.841667 0 0 0 0.2 0"/>
<feBlend mode="normal" in2="BackgroundImageFix" result="effect1_dropShadow"/>
<feBlend mode="normal" in="SourceGraphic" in2="effect1_dropShadow" result="shape"/>
</filter>
<filter id="filter2_d" x="380" y="94" width="145" height="85" filterUnits="userSpaceOnUse" color-interpolation-filters="sRGB">
<feFlood flood-opacity="0" result="BackgroundImageFix"/>
<feColorMatrix in="SourceAlpha" type="matrix" values="0 0 0 0 0 0 0 0 0 0 0 0 0 0 0 0 0 0 127 0" result="hardAlpha"/>
<feOffset dy="10"/>
<feGaussianBlur stdDeviation="20"/>
<feColorMatrix type="matrix" values="0 0 0 0 0.62862 0 0 0 0 0.557604 0 0 0 0 0.841667 0 0 0 0.2 0"/>
<feBlend mode="normal" in2="BackgroundImageFix" result="effect1_dropShadow"/>
<feBlend mode="normal" in="SourceGraphic" in2="effect1_dropShadow" result="shape"/>
</filter>
</defs>
</svg>
