<svg width="1274" height="974" viewBox="0 0 1274 974" fill="none" xmlns="http://www.w3.org/2000/svg">
<path d="M1272.6 973.53H1.27C1.113 973.53 0.962997 973.47 0.852997 973.36C0.741997 973.25 0.679993 973.1 0.679993 972.94C0.679993 972.78 0.741997 972.63 0.852997 972.52C0.962997 972.41 1.113 972.35 1.27 972.35H1272.73C1272.81 972.34 1272.89 972.35 1272.97 972.38C1273.05 972.41 1273.12 972.45 1273.18 972.5C1273.24 972.56 1273.29 972.63 1273.32 972.7C1273.35 972.78 1273.37 972.86 1273.37 972.94C1273.37 973.29 1273 973.53 1272.6 973.53Z" fill="#B1B5BA"/>
<path d="M591.359 2.70099H588.859C588.594 2.70099 588.34 2.59599 588.152 2.40799C587.965 2.22099 587.859 1.96599 587.859 1.70099C587.859 1.43599 587.965 1.18199 588.152 0.993988C588.34 0.806988 588.594 0.700989 588.859 0.700989H591.359C591.625 0.700989 591.879 0.806988 592.066 0.993988C592.254 1.18199 592.359 1.43599 592.359 1.70099C592.359 1.96599 592.254 2.22099 592.066 2.40799C591.879 2.59599 591.625 2.70099 591.359 2.70099Z" fill="#3F4249"/>
<path d="M1093.49 232.9H242.659C236.379 232.9 231.289 237.991 231.289 244.27V851.29C231.289 857.57 236.379 862.66 242.659 862.66H1093.49C1099.77 862.66 1104.86 857.57 1104.86 851.29V244.27C1104.86 237.991 1099.77 232.9 1093.49 232.9Z" fill="#28282F"/>
<path opacity="0.6" d="M1093.49 232.9H242.659C236.379 232.9 231.289 237.991 231.289 244.27V851.29C231.289 857.57 236.379 862.66 242.659 862.66H1093.49C1099.77 862.66 1104.86 857.57 1104.86 851.29V244.27C1104.86 237.991 1099.77 232.9 1093.49 232.9Z" fill="white"/>
<path d="M1088.02 232.9H237.19C230.91 232.9 225.82 237.991 225.82 244.27V851.29C225.82 857.57 230.91 862.66 237.19 862.66H1088.02C1094.3 862.66 1099.39 857.57 1099.39 851.29V244.27C1099.39 237.991 1094.3 232.9 1088.02 232.9Z" fill="#CCCCCC"/>
<path d="M1048.1 303.07H344.261C339.262 303.07 335.211 307.122 335.211 312.12V506.92C335.211 511.918 339.262 515.97 344.261 515.97H1048.1C1053.1 515.97 1057.15 511.918 1057.15 506.92V312.12C1057.15 307.122 1053.1 303.07 1048.1 303.07Z" fill="#28282F"/>
<path opacity="0.15" d="M1048.1 303.07H344.261C339.262 303.07 335.211 307.122 335.211 312.12V506.92C335.211 511.918 339.262 515.97 344.261 515.97H1048.1C1053.1 515.97 1057.15 511.918 1057.15 506.92V312.12C1057.15 307.122 1053.1 303.07 1048.1 303.07Z" fill="black"/>
<path d="M1043.74 303.07H339.901C334.903 303.07 330.851 307.122 330.851 312.12V506.92C330.851 511.918 334.903 515.97 339.901 515.97H1043.74C1048.74 515.97 1052.79 511.918 1052.79 506.92V312.12C1052.79 307.122 1048.74 303.07 1043.74 303.07Z" fill="#28282F"/>
<path d="M408.142 333.55H274.832V515.951H408.142V333.55Z" fill="#DADDDF"/>
<path d="M294.652 333.55H274.832V515.951H294.652V333.55Z" fill="#B2B6BB"/>
<path d="M410.879 330.259H272.039V346.169H410.879V330.259Z" fill="#B2B6BB"/>
<path d="M400.881 357.429H304.121V501.489H400.881V357.429Z" fill="#868A91"/>
<path opacity="0.2" d="M304.121 450.869L400.891 379.209V373.539L304.121 445.199V450.869Z" fill="white"/>
<path opacity="0.2" d="M304.121 481.41L400.891 409.75V404.08L304.121 475.74V481.41Z" fill="white"/>
<path opacity="0.2" d="M304.121 471.38L400.891 399.72V385.75L304.121 457.41V471.38Z" fill="white"/>
<path d="M400.881 368.279H304.121V373.949H400.881V368.279Z" fill="#DADDDF"/>
<path d="M400.881 391.759H304.121V397.429H400.881V391.759Z" fill="#DADDDF"/>
<path d="M400.881 415.24H304.121V420.91H400.881V415.24Z" fill="#DADDDF"/>
<path d="M400.881 438.72H304.121V444.39H400.881V438.72Z" fill="#DADDDF"/>
<path d="M400.881 462.199H304.121V467.869H400.881V462.199Z" fill="#DADDDF"/>
<path d="M400.881 485.679H304.121V491.349H400.881V485.679Z" fill="#DADDDF"/>
<path d="M433.461 416.07H370.351V515.95H433.461V416.07Z" fill="#B2B6BB"/>
<path d="M519.702 416.07H420.832V515.95H519.702V416.07Z" fill="#DADDDF"/>
<path d="M523.03 410.67H368.07V421.46H523.03V410.67Z" fill="#B2B6BB"/>
<path d="M417.15 432.41H374.55V510.33H417.15V432.41Z" fill="#868A91"/>
<path d="M397.34 432.41H393.48V510.33H397.34V432.41Z" fill="#B2B6BB"/>
<path d="M417.15 444.39H374.55V446.23H417.15V444.39Z" fill="#B2B6BB"/>
<path d="M417.15 459.769H374.55V461.609H417.15V459.769Z" fill="#B2B6BB"/>
<path d="M417.15 472H374.55V473.84H417.15V472Z" fill="#B2B6BB"/>
<path d="M417.15 485.279H374.55V487.119H417.15V485.279Z" fill="#B2B6BB"/>
<path d="M417.15 498.56H374.55V500.4H417.15V498.56Z" fill="#B2B6BB"/>
<path d="M515.491 432.41H426.351V510.33H515.491V432.41Z" fill="#868A91"/>
<path d="M474.038 432.41H465.968V510.33H474.038V432.41Z" fill="#DADDDF"/>
<path d="M515.491 444.39H426.351V446.23H515.491V444.39Z" fill="#DADDDF"/>
<path d="M515.491 459.769H426.351V461.609H515.491V459.769Z" fill="#DADDDF"/>
<path d="M515.491 472H426.351V473.84H515.491V472Z" fill="#DADDDF"/>
<path d="M515.491 485.279H426.351V487.119H515.491V485.279Z" fill="#DADDDF"/>
<path d="M515.491 498.56H426.351V500.4H515.491V498.56Z" fill="#DADDDF"/>
<path d="M287.051 486.599C287.051 486.599 283.671 489.819 281.691 489.499L280.781 490.659C280.781 490.659 284.551 490.979 287.051 486.599Z" fill="#3F4249"/>
<path opacity="0.1" d="M287.05 486.599C287.05 486.599 284.61 490.049 281.41 490.169L281.98 489.449C281.98 489.449 283.36 489.959 287.05 486.599Z" fill="black"/>
<path d="M272.511 485.83C272.511 485.83 272.201 490.48 270.511 491.58L270.611 493.04C270.611 493.04 273.621 490.74 272.511 485.83Z" fill="#3F4249"/>
<path opacity="0.3" d="M272.511 485.83C272.511 485.83 273.041 490.01 270.761 492.26L270.691 491.35C270.691 491.35 272.051 490.79 272.511 485.83Z" fill="black"/>
<path d="M283.441 484.4C283.441 484.4 280.191 492.29 276.641 493.23L275.961 495.83C275.961 495.83 282.531 493.58 283.441 484.4Z" fill="#3F4249"/>
<path opacity="0.3" d="M283.441 484.4C283.441 484.4 281.931 491.97 276.671 494.56L277.071 492.93C277.071 492.93 279.771 492.76 283.441 484.4Z" fill="black"/>
<path d="M268.121 486.609C268.121 486.609 271.371 494.509 274.921 495.449L275.601 498.049C275.601 498.049 269.041 495.789 268.121 486.609Z" fill="#3F4249"/>
<path opacity="0.3" d="M268.121 486.609C268.121 486.609 269.631 494.189 274.891 496.769L274.491 495.139C274.491 495.139 271.801 494.969 268.121 486.609Z" fill="black"/>
<path d="M275.29 481.01L274.39 516.01L277.94 515.9L276.44 480.97L275.29 481.01Z" fill="#3F4249"/>
<path opacity="0.3" d="M275.789 481L276.069 515.89H277.939L276.439 480.97L275.789 481Z" fill="black"/>
<path d="M285.631 469.299C285.144 469.298 284.658 469.349 284.181 469.449C283.394 468.008 282.221 466.815 280.794 466.002C279.367 465.19 277.742 464.791 276.101 464.849C274.742 464.822 273.394 465.096 272.152 465.651C270.911 466.206 269.808 467.028 268.921 468.059C268.42 467.967 267.911 467.921 267.401 467.919C263.601 467.919 260.511 470.529 260.511 473.739C260.511 476.449 262.711 478.739 265.691 479.369V479.529H285.631C288.981 479.529 291.701 477.229 291.701 474.399C291.701 471.569 288.981 469.299 285.631 469.299Z" fill="#61656D"/>
<path opacity="0.2" d="M286.538 469.369C285.538 474.039 279.158 477.649 271.388 477.649C267.625 477.721 263.913 476.771 260.648 474.899C260.984 476.035 261.63 477.054 262.513 477.844C263.396 478.633 264.482 479.161 265.648 479.369V479.529H285.588C288.938 479.529 291.658 477.229 291.658 474.399C291.698 471.859 289.438 469.739 286.538 469.369Z" fill="black"/>
<path d="M290.999 479.371C290.646 479.373 290.294 479.409 289.949 479.481C289.38 478.436 288.531 477.571 287.498 476.983C286.464 476.395 285.287 476.106 284.099 476.151C283.112 476.129 282.133 476.327 281.232 476.73C280.331 477.133 279.531 477.731 278.889 478.481C278.526 478.409 278.158 478.373 277.789 478.371C275.019 478.371 272.789 480.261 272.789 482.591C272.851 483.598 273.258 484.552 273.941 485.295C274.623 486.038 275.541 486.524 276.539 486.671V486.811H290.999C293.439 486.811 295.409 485.151 295.409 483.091C295.409 481.031 293.439 479.371 290.999 479.371Z" fill="#61656D"/>
<path opacity="0.2" d="M291.69 479.529C290.99 482.919 286.34 485.529 280.69 485.529C277.963 485.579 275.274 484.887 272.91 483.529C273.156 484.355 273.628 485.097 274.273 485.669C274.918 486.241 275.71 486.622 276.56 486.769V486.909H291.01C293.45 486.909 295.43 485.239 295.43 483.189C295.35 482.231 294.928 481.335 294.241 480.663C293.555 479.991 292.649 479.588 291.69 479.529Z" fill="black"/>
<path d="M274.902 479.659C274.566 479.665 274.231 479.701 273.902 479.769C273.332 478.726 272.483 477.861 271.45 477.273C270.417 476.685 269.24 476.396 268.052 476.439C267.065 476.418 266.086 476.616 265.185 477.019C264.284 477.422 263.484 478.02 262.842 478.769C262.479 478.698 262.111 478.661 261.742 478.659C258.982 478.659 256.742 480.549 256.742 482.879C256.804 483.886 257.211 484.841 257.894 485.584C258.576 486.327 259.494 486.812 260.492 486.959L274.952 487.109C277.392 487.109 279.362 485.449 279.362 483.389C279.362 481.329 277.342 479.659 274.902 479.659Z" fill="#61656D"/>
<path opacity="0.2" d="M275.571 479.711C274.861 483.101 270.211 485.711 264.571 485.711C261.841 485.766 259.147 485.074 256.781 483.711C257.025 484.538 257.497 485.281 258.142 485.853C258.787 486.426 259.58 486.806 260.431 486.951L274.891 487.101C277.331 487.101 279.301 485.431 279.301 483.381C279.224 482.423 278.804 481.525 278.119 480.851C277.434 480.177 276.53 479.772 275.571 479.711Z" fill="black"/>
<path d="M264.511 485.869C264.511 485.869 267.061 489.769 269.061 489.919L269.691 491.249C269.691 491.249 265.941 490.699 264.511 485.869Z" fill="#3F4249"/>
<path opacity="0.3" d="M264.511 485.869C264.511 485.869 266.101 489.779 269.181 490.629L268.801 489.799C268.801 489.799 267.341 489.979 264.511 485.869Z" fill="black"/>
<path d="M333.068 486.599C333.068 486.599 329.698 489.819 327.718 489.499L326.808 490.659C326.808 490.659 330.578 490.979 333.068 486.599Z" fill="#3F4249"/>
<path opacity="0.1" d="M333.071 486.599C333.071 486.599 330.641 490.049 327.441 490.169L328.001 489.449C328.001 489.449 329.381 489.959 333.071 486.599Z" fill="black"/>
<path d="M318.539 485.83C318.539 485.83 318.219 490.48 316.539 491.58L316.639 493.04C316.639 493.04 319.649 490.74 318.539 485.83Z" fill="#3F4249"/>
<path opacity="0.3" d="M318.538 485.83C318.538 485.83 319.068 490.01 316.788 492.26L316.718 491.35C316.718 491.35 318.078 490.79 318.538 485.83Z" fill="black"/>
<path d="M329.441 484.4C329.441 484.4 326.181 492.29 322.641 493.23L321.961 495.83C321.961 495.83 328.551 493.58 329.441 484.4Z" fill="#3F4249"/>
<path opacity="0.3" d="M329.44 484.4C329.44 484.4 327.92 491.97 322.66 494.56L323.07 492.93C323.07 492.93 325.8 492.76 329.44 484.4Z" fill="black"/>
<path d="M314.14 486.609C314.14 486.609 317.4 494.509 320.94 495.449L321.62 498.049C321.62 498.049 315.07 495.789 314.14 486.609Z" fill="#3F4249"/>
<path opacity="0.3" d="M314.14 486.609C314.14 486.609 315.66 494.189 320.92 496.769L320.52 495.139C320.52 495.139 317.82 494.969 314.14 486.609Z" fill="black"/>
<path d="M321.321 481.01L320.421 516.01L323.971 515.9L322.441 480.97L321.321 481.01Z" fill="#3F4249"/>
<path opacity="0.3" d="M321.82 481L322.1 515.89H323.97L322.44 480.97L321.82 481Z" fill="black"/>
<path d="M331.649 469.299C331.161 469.299 330.676 469.349 330.199 469.449C329.414 468.008 328.243 466.815 326.817 466.002C325.392 465.19 323.768 464.79 322.129 464.849C320.768 464.823 319.418 465.097 318.175 465.652C316.933 466.207 315.828 467.029 314.939 468.059C314.441 467.967 313.935 467.921 313.429 467.919C309.619 467.919 306.539 470.529 306.539 473.739C306.539 476.449 308.739 478.739 311.709 479.369V479.529H331.649C335.009 479.529 337.729 477.229 337.729 474.399C337.729 471.569 335.009 469.299 331.649 469.299Z" fill="#61656D"/>
<path opacity="0.2" d="M332.559 469.369C331.559 474.039 325.179 477.649 317.419 477.649C313.656 477.723 309.944 476.772 306.679 474.899C307.014 476.036 307.659 477.057 308.542 477.846C309.426 478.636 310.512 479.164 311.679 479.369V479.529H331.619C334.979 479.529 337.699 477.229 337.699 474.399C337.729 471.859 335.489 469.739 332.559 469.369Z" fill="black"/>
<path d="M337.028 479.371C336.675 479.372 336.324 479.409 335.978 479.481C335.407 478.436 334.556 477.571 333.521 476.983C332.486 476.395 331.308 476.107 330.118 476.151C329.132 476.13 328.153 476.328 327.252 476.731C326.351 477.134 325.551 477.731 324.908 478.481C324.546 478.409 324.178 478.372 323.808 478.371C321.048 478.371 318.808 480.261 318.808 482.591C318.873 483.598 319.282 484.553 319.966 485.296C320.651 486.039 321.569 486.524 322.568 486.671V486.811H337.028C339.468 486.811 341.438 485.151 341.438 483.091C341.438 481.031 339.438 479.371 337.028 479.371Z" fill="#61656D"/>
<path opacity="0.2" d="M337.711 479.529C337.011 482.919 332.361 485.529 326.711 485.529C323.982 485.58 321.289 484.889 318.921 483.529C319.168 484.355 319.64 485.097 320.285 485.669C320.93 486.241 321.722 486.622 322.571 486.769V486.909H337.031C339.471 486.909 341.441 485.239 341.441 483.189C341.362 482.233 340.941 481.338 340.257 480.666C339.572 479.994 338.669 479.59 337.711 479.529Z" fill="black"/>
<path d="M320.931 479.659C320.578 479.661 320.226 479.698 319.881 479.769C319.308 478.726 318.457 477.862 317.423 477.274C316.388 476.685 315.21 476.397 314.021 476.439C313.034 476.419 312.055 476.617 311.154 477.02C310.253 477.423 309.453 478.02 308.811 478.769C308.448 478.698 308.08 478.661 307.711 478.659C304.951 478.659 302.711 480.549 302.711 482.879C302.775 483.887 303.184 484.842 303.869 485.585C304.553 486.327 305.471 486.813 306.471 486.959L320.931 487.109C323.361 487.109 325.341 485.449 325.341 483.389C325.341 481.329 323.361 479.659 320.931 479.659Z" fill="#61656D"/>
<path opacity="0.2" d="M321.59 479.711C320.89 483.101 316.24 485.711 310.59 485.711C307.86 485.766 305.167 485.074 302.8 483.711C303.045 484.538 303.516 485.281 304.161 485.853C304.807 486.426 305.6 486.806 306.45 486.951L320.91 487.101C323.34 487.101 325.32 485.431 325.32 483.381C325.243 482.423 324.824 481.525 324.139 480.851C323.454 480.177 322.549 479.772 321.59 479.711Z" fill="black"/>
<path d="M310.539 485.869C310.539 485.869 313.089 489.769 315.089 489.919L315.709 491.249C315.709 491.249 311.969 490.699 310.539 485.869Z" fill="#3F4249"/>
<path opacity="0.3" d="M310.539 485.869C310.539 485.869 312.119 489.779 315.209 490.629L314.819 489.799C314.819 489.799 313.359 489.979 310.539 485.869Z" fill="black"/>
<path d="M558.719 486.599C558.719 486.599 555.339 489.819 553.369 489.499L552.449 490.659C552.449 490.659 556.219 490.979 558.719 486.599Z" fill="#3F4249"/>
<path opacity="0.1" d="M558.719 486.599C558.719 486.599 556.279 490.049 553.089 490.169L553.649 489.449C553.649 489.449 555.029 489.959 558.719 486.599Z" fill="black"/>
<path d="M544.191 485.83C544.191 485.83 543.871 490.48 542.191 491.58L542.291 493.04C542.291 493.04 545.301 490.74 544.191 485.83Z" fill="#3F4249"/>
<path opacity="0.3" d="M544.189 485.83C544.189 485.83 544.709 490.01 542.439 492.26L542.359 491.35C542.359 491.35 543.729 490.79 544.189 485.83Z" fill="black"/>
<path d="M555.128 484.4C555.128 484.4 551.868 492.29 548.318 493.23L547.648 495.83C547.648 495.83 554.198 493.58 555.128 484.4Z" fill="#3F4249"/>
<path opacity="0.3" d="M555.131 484.4C555.131 484.4 553.611 491.97 548.351 494.56L548.751 492.93C548.751 492.93 551.441 492.76 555.131 484.4Z" fill="black"/>
<path d="M539.789 486.609C539.789 486.609 543.049 494.509 546.589 495.449L547.269 498.049C547.269 498.049 540.709 495.789 539.789 486.609Z" fill="#3F4249"/>
<path opacity="0.3" d="M539.789 486.609C539.789 486.609 541.309 494.189 546.569 496.769L546.159 495.139C546.159 495.139 543.439 494.969 539.789 486.609Z" fill="black"/>
<path d="M546.968 481.009L546.058 516.009L549.618 515.899L548.088 481.009H546.968Z" fill="#3F4249"/>
<path opacity="0.3" d="M547.441 481L547.721 515.89H549.591L548.061 481H547.441Z" fill="black"/>
<path d="M557.299 469.299C556.812 469.299 556.326 469.349 555.849 469.449C555.064 468.008 553.893 466.815 552.468 466.002C551.043 465.19 549.419 464.79 547.779 464.849C546.419 464.822 545.069 465.096 543.826 465.651C542.583 466.206 541.478 467.028 540.589 468.059C540.091 467.967 539.586 467.921 539.079 467.919C535.269 467.919 532.179 470.529 532.179 473.739C532.179 476.449 534.379 478.739 537.359 479.369V479.529H557.299C560.659 479.529 563.379 477.229 563.379 474.399C563.379 471.569 560.659 469.299 557.299 469.299Z" fill="#61656D"/>
<path opacity="0.2" d="M558.212 469.369C557.212 474.039 550.832 477.649 543.072 477.649C539.309 477.723 535.596 476.772 532.332 474.899C532.665 476.036 533.31 477.058 534.193 477.848C535.077 478.638 536.164 479.165 537.332 479.369V479.529H557.272C560.632 479.529 563.352 477.229 563.352 474.399C563.382 471.859 561.132 469.739 558.212 469.369Z" fill="black"/>
<path d="M562.681 479.37C562.345 479.375 562.01 479.411 561.681 479.48C561.109 478.437 560.258 477.572 559.223 476.984C558.189 476.396 557.011 476.108 555.821 476.15C554.835 476.13 553.856 476.328 552.955 476.731C552.054 477.134 551.254 477.731 550.611 478.48C550.249 478.409 549.881 478.372 549.511 478.37C546.751 478.37 544.511 480.26 544.511 482.59C544.576 483.597 544.983 484.55 545.665 485.293C546.348 486.035 547.264 486.521 548.261 486.67V486.81H562.721C565.161 486.81 567.141 485.15 567.141 483.09C567.141 481.03 565.111 479.37 562.681 479.37Z" fill="#61656D"/>
<path opacity="0.2" d="M563.36 479.529C562.66 482.919 558.01 485.529 552.36 485.529C549.63 485.58 546.938 484.889 544.57 483.529C544.816 484.355 545.288 485.097 545.933 485.669C546.578 486.241 547.37 486.622 548.22 486.769V486.909H562.68C565.11 486.909 567.09 485.239 567.09 483.189C567.01 482.233 566.59 481.338 565.905 480.666C565.22 479.994 564.317 479.59 563.36 479.529Z" fill="black"/>
<path d="M546.58 479.659C546.244 479.664 545.909 479.7 545.58 479.769C545.008 478.726 544.157 477.862 543.122 477.274C542.087 476.685 540.909 476.397 539.72 476.439C538.733 476.419 537.754 476.617 536.853 477.02C535.953 477.423 535.152 478.02 534.51 478.769C534.147 478.698 533.779 478.661 533.41 478.659C530.65 478.659 528.41 480.549 528.41 482.879C528.475 483.887 528.883 484.842 529.568 485.585C530.252 486.327 531.171 486.813 532.17 486.959L546.62 487.109C549.06 487.109 551.04 485.449 551.04 483.389C551.04 481.329 549.01 479.659 546.58 479.659Z" fill="#61656D"/>
<path opacity="0.2" d="M547.24 479.711C546.53 483.101 541.89 485.711 536.24 485.711C533.514 485.764 530.824 485.072 528.461 483.711C528.705 484.538 529.176 485.281 529.822 485.853C530.467 486.426 531.26 486.806 532.11 486.951L546.561 487.101C549.001 487.101 550.98 485.431 550.98 483.381C550.903 482.421 550.482 481.522 549.795 480.848C549.108 480.174 548.201 479.77 547.24 479.711Z" fill="black"/>
<path d="M536.191 485.869C536.191 485.869 538.741 489.769 540.731 489.919L541.361 491.249C541.361 491.249 537.621 490.699 536.191 485.869Z" fill="#3F4249"/>
<path opacity="0.3" d="M536.191 485.869C536.191 485.869 537.771 489.779 540.851 490.629L540.471 489.799C540.471 489.799 539.011 489.979 536.191 485.869Z" fill="black"/>
<path d="M410.069 345.5H272.039V346.84H410.069V345.5Z" fill="#61656D"/>
<path d="M523.03 420.789H368.07V422.129H523.03V420.789Z" fill="#61656D"/>
<path d="M613.061 552.98H285.251C280.623 552.98 276.871 556.732 276.871 561.36V797.37C276.871 801.998 280.623 805.75 285.251 805.75H613.061C617.689 805.75 621.441 801.998 621.441 797.37V561.36C621.441 556.732 617.689 552.98 613.061 552.98Z" fill="#28282F"/>
<path opacity="0.85" d="M613.061 552.98H285.251C280.623 552.98 276.871 556.732 276.871 561.36V797.37C276.871 801.998 280.623 805.75 285.251 805.75H613.061C617.689 805.75 621.441 801.998 621.441 797.37V561.36C621.441 556.732 617.689 552.98 613.061 552.98Z" fill="white"/>
<path d="M568.111 606.389C568.111 606.389 562.661 604.389 552.751 606.389C542.841 608.389 537.631 597.119 531.441 600.529C525.251 603.939 521.031 605.879 509.631 605.529C498.231 605.179 483.851 597.469 473.201 599.889C462.551 602.309 460.551 603.529 453.851 613.529C450.511 618.529 450.141 627.979 452.491 638.529C455.076 650.033 460.201 660.812 467.491 670.079C475.051 679.439 488.061 687.959 505.251 693.529C514.604 696.513 524.248 698.487 534.021 699.419C545.359 700.518 556.779 700.488 568.111 699.329V606.389Z" fill="#28282F"/>
<path opacity="0.73" d="M568.111 606.389C568.111 606.389 562.661 604.389 552.751 606.389C542.841 608.389 537.631 597.119 531.441 600.529C525.251 603.939 521.031 605.879 509.631 605.529C498.231 605.179 483.851 597.469 473.201 599.889C462.551 602.309 460.551 603.529 453.851 613.529C450.511 618.529 450.141 627.979 452.491 638.529C455.076 650.033 460.201 660.812 467.491 670.079C475.051 679.439 488.061 687.959 505.251 693.529C514.604 696.513 524.248 698.487 534.021 699.419C545.359 700.518 556.779 700.488 568.111 699.329V606.389Z" fill="white"/>
<path d="M452.439 618.469C454.439 613.409 460.989 609.879 473.239 611.289C473.699 611.289 474.179 611.349 474.679 611.379C484.299 611.959 497.899 618.189 509.339 619.739C519.479 621.099 525.529 620.499 531.019 618.249C539.019 614.979 540.719 621.309 549.619 622.349C550.747 622.484 551.887 622.504 553.019 622.409C562.199 621.649 568.129 621.409 568.129 621.409V682.319C562.059 682.919 548.129 685.189 537.059 685.389C535.879 685.389 534.729 685.389 533.609 685.389C523.309 685.239 519.529 682.919 510.309 680.919C498.609 678.389 487.489 671.919 479.239 665.119C472.187 659.199 466.224 652.092 461.619 644.119C456.979 636.189 448.579 628.129 452.439 618.469Z" fill="#28282F"/>
<path opacity="0.6" d="M452.439 618.469C454.439 613.409 460.989 609.879 473.239 611.289C473.699 611.289 474.179 611.349 474.679 611.379C484.299 611.959 497.899 618.189 509.339 619.739C519.479 621.099 525.529 620.499 531.019 618.249C539.019 614.979 540.719 621.309 549.619 622.349C550.747 622.484 551.887 622.504 553.019 622.409C562.199 621.649 568.129 621.409 568.129 621.409V682.319C562.059 682.919 548.129 685.189 537.059 685.389C535.879 685.389 534.729 685.389 533.609 685.389C523.309 685.239 519.529 682.919 510.309 680.919C498.609 678.389 487.489 671.919 479.239 665.119C472.187 659.199 466.224 652.092 461.619 644.119C456.979 636.189 448.579 628.129 452.439 618.469Z" fill="white"/>
<path d="M450.992 623.42C450.992 623.42 459.932 616.2 474.802 622.35C489.672 628.5 519.802 639.21 530.562 636C541.322 632.79 539.862 636.8 549.892 638.14C556.01 638.923 562.226 638.374 568.112 636.53V665.42C568.112 665.42 548.412 670.77 536.882 671.84C525.352 672.91 526.472 669.17 515.322 668.37C504.172 667.57 478.892 654.77 470.712 649.8C462.532 644.83 451.342 638.4 450.992 623.42Z" fill="#28282F"/>
<path opacity="0.4" d="M450.992 623.42C450.992 623.42 459.932 616.2 474.802 622.35C489.672 628.5 519.802 639.21 530.562 636C541.322 632.79 539.862 636.8 549.892 638.14C556.01 638.923 562.226 638.374 568.112 636.53V665.42C568.112 665.42 548.412 670.77 536.882 671.84C525.352 672.91 526.472 669.17 515.322 668.37C504.172 667.57 478.892 654.77 470.712 649.8C462.532 644.83 451.342 638.4 450.992 623.42Z" fill="white"/>
<path d="M390.121 683.87H389.181C388.016 683.87 386.869 683.59 385.835 683.054C384.802 682.518 383.912 681.741 383.241 680.79L371.441 664.02C370.939 663.313 370.235 662.774 369.421 662.474C368.607 662.174 367.722 662.127 366.881 662.34L356.441 665.03C354.686 665.488 352.823 665.272 351.22 664.424C349.617 663.576 348.39 662.158 347.781 660.45L341.661 643.45C341.464 642.917 341.165 642.428 340.781 642.01L339.681 640.82C338.944 640.016 337.927 639.525 336.839 639.447C335.752 639.369 334.675 639.71 333.831 640.4L328.001 645.18C327.191 645.844 326.248 646.325 325.235 646.59C324.222 646.856 323.164 646.899 322.132 646.718C321.101 646.537 320.121 646.135 319.26 645.539C318.398 644.944 317.675 644.17 317.141 643.27L312.701 635.81C312.322 635.174 311.785 634.647 311.142 634.281C310.498 633.914 309.771 633.721 309.031 633.72C308.633 633.72 308.251 633.562 307.97 633.281C307.689 632.999 307.531 632.618 307.531 632.22C307.531 631.822 307.689 631.441 307.97 631.159C308.251 630.878 308.633 630.72 309.031 630.72C310.292 630.722 311.53 631.051 312.625 631.675C313.721 632.299 314.636 633.197 315.281 634.28L319.721 641.74C320.036 642.267 320.461 642.721 320.968 643.069C321.474 643.418 322.049 643.653 322.655 643.76C323.26 643.866 323.881 643.841 324.476 643.685C325.07 643.53 325.625 643.249 326.101 642.86L331.931 638.08C333.37 636.893 335.21 636.304 337.071 636.435C338.931 636.565 340.671 637.404 341.931 638.78L343.031 639.98C343.687 640.692 344.194 641.528 344.521 642.44L350.641 659.44C350.997 660.445 351.718 661.28 352.661 661.778C353.604 662.276 354.7 662.402 355.731 662.13L366.111 659.45C367.541 659.085 369.048 659.162 370.433 659.671C371.818 660.179 373.017 661.096 373.871 662.3L385.711 679.07C386.106 679.628 386.629 680.083 387.236 680.398C387.843 680.713 388.517 680.878 389.201 680.88H390.141C391.092 680.88 392.016 680.562 392.766 679.977C393.516 679.391 394.049 678.573 394.281 677.65L412.091 607.03C412.403 605.807 413.029 604.687 413.906 603.78C414.783 602.873 415.881 602.21 417.092 601.857C418.304 601.503 419.586 601.472 420.814 601.765C422.041 602.059 423.17 602.667 424.091 603.53L425.231 604.61C426.169 605.477 426.859 606.578 427.231 607.8L434.051 630.63C434.309 631.497 434.836 632.259 435.555 632.807C436.275 633.355 437.15 633.661 438.054 633.68C438.958 633.699 439.845 633.43 440.587 632.912C441.328 632.395 441.887 631.655 442.181 630.8L442.461 629.99C442.951 628.604 443.845 627.396 445.029 626.524C446.213 625.652 447.632 625.156 449.101 625.1L453.631 624.95C455.573 624.897 457.458 625.616 458.871 626.95L467.141 634.8C467.572 635.206 468.083 635.52 468.641 635.72L509.441 650.42C509.735 650.529 510.04 650.602 510.351 650.64L537.241 654.02C537.632 654.075 538.029 654.075 538.421 654.02L567.881 649.53C568.279 649.469 568.684 649.568 569.009 649.807C569.333 650.045 569.55 650.402 569.611 650.8C569.672 651.198 569.572 651.603 569.334 651.928C569.096 652.252 568.739 652.469 568.341 652.53L538.901 657.04C538.238 657.139 537.564 657.139 536.901 657.04L510.011 653.66C509.479 653.59 508.956 653.463 508.451 653.28L467.621 638.53C466.673 638.192 465.807 637.657 465.081 636.96L456.801 629.11C456.39 628.722 455.906 628.419 455.377 628.218C454.849 628.017 454.286 627.923 453.721 627.94L449.201 628.09C448.337 628.12 447.503 628.41 446.807 628.922C446.111 629.434 445.586 630.144 445.301 630.96L445.021 631.77C444.519 633.225 443.569 634.484 442.306 635.365C441.044 636.245 439.534 636.702 437.995 636.67C436.456 636.638 434.967 636.118 433.742 635.185C432.518 634.252 431.621 632.955 431.181 631.48L424.361 608.65C424.141 607.937 423.741 607.294 423.201 606.78L422.061 605.69C421.52 605.177 420.854 604.814 420.129 604.639C419.404 604.463 418.646 604.48 417.93 604.688C417.214 604.897 416.565 605.289 416.047 605.826C415.53 606.363 415.162 607.026 414.981 607.75L397.171 678.37C396.78 679.943 395.873 681.339 394.595 682.336C393.317 683.333 391.742 683.873 390.121 683.87Z" fill="#28282F"/>
<path d="M568.111 715.65H307.871C307.605 715.65 307.351 715.545 307.164 715.357C306.976 715.169 306.871 714.915 306.871 714.65V580.74C306.871 580.475 306.976 580.22 307.164 580.033C307.351 579.845 307.605 579.74 307.871 579.74C308.136 579.74 308.39 579.845 308.578 580.033C308.765 580.22 308.871 580.475 308.871 580.74V713.65H568.111C568.376 713.65 568.63 713.755 568.818 713.943C569.005 714.13 569.111 714.385 569.111 714.65C569.111 714.915 569.005 715.169 568.818 715.357C568.63 715.545 568.376 715.65 568.111 715.65Z" fill="#61656D"/>
<path d="M315.02 732.369H310.96C309.906 732.369 309.05 733.224 309.05 734.279V738.339C309.05 739.394 309.906 740.249 310.96 740.249H315.02C316.075 740.249 316.93 739.394 316.93 738.339V734.279C316.93 733.224 316.075 732.369 315.02 732.369Z" fill="#28282F"/>
<path opacity="0.5" d="M315.02 732.369H310.96C309.906 732.369 309.05 733.224 309.05 734.279V738.339C309.05 739.394 309.906 740.249 310.96 740.249H315.02C316.075 740.249 316.93 739.394 316.93 738.339V734.279C316.93 733.224 316.075 732.369 315.02 732.369Z" fill="white"/>
<path d="M315.02 747.009H310.96C309.906 747.009 309.05 747.865 309.05 748.92V752.98C309.05 754.034 309.906 754.889 310.96 754.889H315.02C316.075 754.889 316.93 754.034 316.93 752.98V748.92C316.93 747.865 316.075 747.009 315.02 747.009Z" fill="#28282F"/>
<path d="M315.02 761.66H310.96C309.906 761.66 309.05 762.515 309.05 763.57V767.63C309.05 768.685 309.906 769.54 310.96 769.54H315.02C316.075 769.54 316.93 768.685 316.93 767.63V763.57C316.93 762.515 316.075 761.66 315.02 761.66Z" fill="#61656D"/>
<path d="M379.228 734.39H324.478C323.418 734.39 322.558 735.248 322.558 736.305C322.558 737.363 323.418 738.22 324.478 738.22H379.228C380.289 738.22 381.148 737.363 381.148 736.305C381.148 735.248 380.289 734.39 379.228 734.39Z" fill="#28282F"/>
<path d="M379.228 749.041H324.478C323.418 749.041 322.558 749.898 322.558 750.956C322.558 752.013 323.418 752.871 324.478 752.871H379.228C380.289 752.871 381.148 752.013 381.148 750.956C381.148 749.898 380.289 749.041 379.228 749.041Z" fill="#28282F"/>
<path d="M379.228 763.689H324.478C323.418 763.689 322.558 764.547 322.558 765.604C322.558 766.662 323.418 767.519 324.478 767.519H379.228C380.289 767.519 381.148 766.662 381.148 765.604C381.148 764.547 380.289 763.689 379.228 763.689Z" fill="#28282F"/>
<path opacity="0.5" d="M379.228 734.39H324.478C323.418 734.39 322.558 735.248 322.558 736.305C322.558 737.363 323.418 738.22 324.478 738.22H379.228C380.289 738.22 381.148 737.363 381.148 736.305C381.148 735.248 380.289 734.39 379.228 734.39Z" fill="white"/>
<path opacity="0.5" d="M379.228 749.041H324.478C323.418 749.041 322.558 749.898 322.558 750.956C322.558 752.013 323.418 752.871 324.478 752.871H379.228C380.289 752.871 381.148 752.013 381.148 750.956C381.148 749.898 380.289 749.041 379.228 749.041Z" fill="white"/>
<path opacity="0.5" d="M379.228 763.689H324.478C323.418 763.689 322.558 764.547 322.558 765.604C322.558 766.662 323.418 767.519 324.478 767.519H379.228C380.289 767.519 381.148 766.662 381.148 765.604C381.148 764.547 380.289 763.689 379.228 763.689Z" fill="white"/>
<path d="M419.001 734.39H403.931C402.871 734.39 402.011 735.248 402.011 736.305C402.011 737.363 402.871 738.22 403.931 738.22H419.001C420.062 738.22 420.921 737.363 420.921 736.305C420.921 735.248 420.062 734.39 419.001 734.39Z" fill="#28282F"/>
<path d="M419.001 749.041H403.931C402.871 749.041 402.011 749.898 402.011 750.956C402.011 752.013 402.871 752.871 403.931 752.871H419.001C420.062 752.871 420.921 752.013 420.921 750.956C420.921 749.898 420.062 749.041 419.001 749.041Z" fill="#28282F"/>
<path d="M419.001 763.689H403.931C402.871 763.689 402.011 764.547 402.011 765.604C402.011 766.662 402.871 767.519 403.931 767.519H419.001C420.062 767.519 420.921 766.662 420.921 765.604C420.921 764.547 420.062 763.689 419.001 763.689Z" fill="#28282F"/>
<path d="M462.212 732.369H458.152C457.097 732.369 456.242 733.224 456.242 734.279V738.339C456.242 739.394 457.097 740.249 458.152 740.249H462.212C463.267 740.249 464.122 739.394 464.122 738.339V734.279C464.122 733.224 463.267 732.369 462.212 732.369Z" fill="#28282F"/>
<path opacity="0.5" d="M462.212 732.369H458.152C457.097 732.369 456.242 733.224 456.242 734.279V738.339C456.242 739.394 457.097 740.249 458.152 740.249H462.212C463.267 740.249 464.122 739.394 464.122 738.339V734.279C464.122 733.224 463.267 732.369 462.212 732.369Z" fill="white"/>
<path d="M462.212 747.009H458.152C457.097 747.009 456.242 747.865 456.242 748.92V752.98C456.242 754.034 457.097 754.889 458.152 754.889H462.212C463.267 754.889 464.122 754.034 464.122 752.98V748.92C464.122 747.865 463.267 747.009 462.212 747.009Z" fill="#28282F"/>
<path d="M462.212 761.66H458.152C457.097 761.66 456.242 762.515 456.242 763.57V767.63C456.242 768.685 457.097 769.54 458.152 769.54H462.212C463.267 769.54 464.122 768.685 464.122 767.63V763.57C464.122 762.515 463.267 761.66 462.212 761.66Z" fill="#61656D"/>
<path d="M526.42 734.39H471.67C470.609 734.39 469.75 735.248 469.75 736.305C469.75 737.363 470.609 738.22 471.67 738.22H526.42C527.48 738.22 528.34 737.363 528.34 736.305C528.34 735.248 527.48 734.39 526.42 734.39Z" fill="#28282F"/>
<path d="M526.42 749.041H471.67C470.609 749.041 469.75 749.898 469.75 750.956C469.75 752.013 470.609 752.871 471.67 752.871H526.42C527.48 752.871 528.34 752.013 528.34 750.956C528.34 749.898 527.48 749.041 526.42 749.041Z" fill="#28282F"/>
<path d="M526.42 763.689H471.67C470.609 763.689 469.75 764.547 469.75 765.604C469.75 766.662 470.609 767.519 471.67 767.519H526.42C527.48 767.519 528.34 766.662 528.34 765.604C528.34 764.547 527.48 763.689 526.42 763.689Z" fill="#28282F"/>
<path opacity="0.5" d="M526.42 734.39H471.67C470.609 734.39 469.75 735.248 469.75 736.305C469.75 737.363 470.609 738.22 471.67 738.22H526.42C527.48 738.22 528.34 737.363 528.34 736.305C528.34 735.248 527.48 734.39 526.42 734.39Z" fill="white"/>
<path opacity="0.5" d="M526.42 749.041H471.67C470.609 749.041 469.75 749.898 469.75 750.956C469.75 752.013 470.609 752.871 471.67 752.871H526.42C527.48 752.871 528.34 752.013 528.34 750.956C528.34 749.898 527.48 749.041 526.42 749.041Z" fill="white"/>
<path opacity="0.5" d="M526.42 763.689H471.67C470.609 763.689 469.75 764.547 469.75 765.604C469.75 766.662 470.609 767.519 471.67 767.519H526.42C527.48 767.519 528.34 766.662 528.34 765.604C528.34 764.547 527.48 763.689 526.42 763.689Z" fill="white"/>
<path d="M566.189 734.39H551.119C550.058 734.39 549.199 735.248 549.199 736.305C549.199 737.363 550.058 738.22 551.119 738.22H566.189C567.249 738.22 568.109 737.363 568.109 736.305C568.109 735.248 567.249 734.39 566.189 734.39Z" fill="#28282F"/>
<path d="M566.189 749.041H551.119C550.058 749.041 549.199 749.898 549.199 750.956C549.199 752.013 550.058 752.871 551.119 752.871H566.189C567.249 752.871 568.109 752.013 568.109 750.956C568.109 749.898 567.249 749.041 566.189 749.041Z" fill="#28282F"/>
<path d="M566.189 763.689H551.119C550.058 763.689 549.199 764.547 549.199 765.604C549.199 766.662 550.058 767.519 551.119 767.519H566.189C567.249 767.519 568.109 766.662 568.109 765.604C568.109 764.547 567.249 763.689 566.189 763.689Z" fill="#28282F"/>
<path d="M1045.52 553.631H654.871C650.038 553.631 646.121 557.548 646.121 562.381V797.001C646.121 801.833 650.038 805.751 654.871 805.751H1045.52C1050.35 805.751 1054.27 801.833 1054.27 797.001V562.381C1054.27 557.548 1050.35 553.631 1045.52 553.631Z" fill="#28282F"/>
<path opacity="0.85" d="M1045.52 553.631H654.871C650.038 553.631 646.121 557.548 646.121 562.381V797.001C646.121 801.833 650.038 805.751 654.871 805.751H1045.52C1050.35 805.751 1054.27 801.833 1054.27 797.001V562.381C1054.27 557.548 1050.35 553.631 1045.52 553.631Z" fill="white"/>
<path opacity="0.2" d="M1054.27 735.83H646.332V736.72H1054.27V735.83Z" fill="#28282F"/>
<path opacity="0.2" d="M1054.27 667.81H646.332V668.7H1054.27V667.81Z" fill="#28282F"/>
<path opacity="0.2" d="M1054.27 599.779H646.332V600.669H1054.27V599.779Z" fill="#28282F"/>
<path opacity="0.4" d="M646.329 702.18C646.329 702.18 704.049 723.7 745.129 702.18C786.209 680.66 830.571 631.56 890.891 682.61C941.081 725.08 964.891 631.56 998.181 631.56C1031.47 631.56 1054.26 694.68 1054.26 694.68V797.01C1054.26 799.328 1053.34 801.551 1051.7 803.19C1050.06 804.829 1047.84 805.75 1045.52 805.75H654.879C653.728 805.752 652.589 805.526 651.526 805.086C650.463 804.646 649.498 804.001 648.685 803.187C647.872 802.373 647.228 801.407 646.789 800.343C646.35 799.28 646.126 798.141 646.129 796.99L646.329 702.18Z" fill="#28282F"/>
<path d="M701.079 712.629C694.093 712.609 687.116 712.108 680.199 711.129C668.566 709.556 657.117 706.836 646.019 703.009L646.639 701.339C657.628 705.115 668.963 707.794 680.479 709.339C698.189 711.769 723.719 712.339 744.719 701.339C752.389 697.339 760.069 692.399 768.199 687.199C802.779 665.069 841.961 639.979 891.471 681.879C900.951 689.879 909.841 693.409 918.681 692.629C935.081 691.149 948.391 674.999 961.261 659.379C973.451 644.589 984.961 630.619 998.181 630.619C1031.68 630.619 1054.18 691.719 1055.1 694.319L1053.43 694.929C1049.24 684.003 1044.05 673.491 1037.92 663.529C1021.84 637.809 1007.43 632.409 998.181 632.409C985.811 632.409 974.551 646.069 962.641 660.529C949.531 676.429 935.991 692.869 918.841 694.409C909.521 695.249 900.181 691.599 890.321 683.259C868.641 664.909 847.141 658.039 824.601 662.259C804.689 665.979 786.599 677.539 769.159 688.719C760.999 693.949 753.289 698.879 745.549 702.939C736.439 707.719 722.029 712.629 701.079 712.629Z" fill="#28282F"/>
<path d="M849.831 663.9C851.421 663.9 852.711 662.611 852.711 661.02C852.711 659.43 851.421 658.14 849.831 658.14C848.241 658.14 846.951 659.43 846.951 661.02C846.951 662.611 848.241 663.9 849.831 663.9Z" fill="#28282F"/>
<path d="M918.211 696.619C919.801 696.619 921.091 695.33 921.091 693.739C921.091 692.149 919.801 690.859 918.211 690.859C916.621 690.859 915.331 692.149 915.331 693.739C915.331 695.33 916.621 696.619 918.211 696.619Z" fill="#28282F"/>
<path d="M999.581 634.439C1001.17 634.439 1002.46 633.15 1002.46 631.559C1002.46 629.969 1001.17 628.679 999.581 628.679C997.991 628.679 996.701 629.969 996.701 631.559C996.701 633.15 997.991 634.439 999.581 634.439Z" fill="#28282F"/>
<path d="M781.891 683.039C783.482 683.039 784.771 681.75 784.771 680.159C784.771 678.568 783.482 677.279 781.891 677.279C780.301 677.279 779.011 678.568 779.011 680.159C779.011 681.75 780.301 683.039 781.891 683.039Z" fill="#28282F"/>
<path d="M714.141 713.879C715.732 713.879 717.021 712.589 717.021 710.999C717.021 709.408 715.732 708.119 714.141 708.119C712.551 708.119 711.261 709.408 711.261 710.999C711.261 712.589 712.551 713.879 714.141 713.879Z" fill="#28282F"/>
<path d="M646.329 705.48C647.919 705.48 649.209 704.191 649.209 702.6C649.209 701.01 647.919 699.72 646.329 699.72C644.738 699.72 643.449 701.01 643.449 702.6C643.449 704.191 644.738 705.48 646.329 705.48Z" fill="#28282F"/>
<path d="M1054.26 696.619C1055.85 696.619 1057.14 695.33 1057.14 693.739C1057.14 692.149 1055.85 690.859 1054.26 690.859C1052.67 690.859 1051.38 692.149 1051.38 693.739C1051.38 695.33 1052.67 696.619 1054.26 696.619Z" fill="#28282F"/>
<path d="M795.251 568.34H673.381C670.249 568.34 667.711 570.878 667.711 574.01V574.02C667.711 577.151 670.249 579.69 673.381 579.69H795.251C798.382 579.69 800.92 577.151 800.92 574.02V574.01C800.92 570.878 798.382 568.34 795.251 568.34Z" fill="#28282F"/>
<path d="M764.089 355.529L762.909 354.269L740.769 374.929L741.959 376.199C750.854 385.711 755.787 398.256 755.753 411.279C755.718 424.302 750.719 436.821 741.774 446.286C732.828 455.75 720.61 461.447 707.61 462.215C694.61 462.983 681.807 458.764 671.809 450.419L670.439 449.269L651.109 472.529L652.439 473.629C668.357 486.844 688.708 493.505 709.359 492.258C730.01 491.011 749.413 481.951 763.625 466.917C777.838 451.883 785.796 432.003 785.882 411.315C785.968 390.626 778.176 370.681 764.089 355.529Z" fill="#28282F"/>
<path opacity="0.5" d="M764.089 355.529L762.909 354.269L740.769 374.929L741.959 376.199C750.854 385.711 755.787 398.256 755.753 411.279C755.718 424.302 750.719 436.821 741.774 446.286C732.828 455.75 720.61 461.447 707.61 462.215C694.61 462.983 681.807 458.764 671.809 450.419L670.439 449.269L651.109 472.529L652.439 473.629C668.357 486.844 688.708 493.505 709.359 492.258C730.01 491.011 749.413 481.951 763.625 466.917C777.838 451.883 785.796 432.003 785.882 411.315C785.968 390.626 778.176 370.681 764.089 355.529Z" fill="white"/>
<path d="M764.091 355.53C754.313 345.034 741.93 337.316 728.201 333.16L726.531 332.69L724.891 332.24C711.432 328.784 697.313 328.827 683.876 332.366C670.439 335.905 658.131 342.822 648.121 352.46L646.871 353.66L667.871 375.46L669.121 374.26C678.639 365.055 691.37 359.922 704.611 359.95C709.278 359.947 713.924 360.58 718.421 361.83C727.447 364.372 735.603 369.343 742.001 376.2L743.181 377.48L765.321 356.82L764.091 355.53Z" fill="white"/>
<path d="M671.811 450.381C666.287 445.776 661.796 440.059 658.629 433.602C655.463 427.146 653.693 420.094 653.434 412.907C653.176 405.721 654.435 398.56 657.129 391.893C659.823 385.225 663.892 379.2 669.071 374.211L670.321 373.001L649.321 351.211L648.071 352.411C639.823 360.348 633.341 369.935 629.05 380.548C624.758 391.16 622.753 402.558 623.166 413.997C623.578 425.437 626.399 436.661 631.443 446.936C636.488 457.212 643.643 466.308 652.441 473.631L653.771 474.741L673.141 451.531L671.811 450.381Z" fill="#61656D"/>
<g opacity="0.15">
<path opacity="0.15" d="M939.871 374.09H814.05C811.349 374.09 809.16 376.279 809.16 378.98C809.16 381.68 811.349 383.87 814.05 383.87H939.871C942.571 383.87 944.761 381.68 944.761 378.98C944.761 376.279 942.571 374.09 939.871 374.09Z" fill="black"/>
</g>
<g opacity="0.15">
<path opacity="0.15" d="M975.961 352.779H814.05C811.349 352.779 809.16 354.968 809.16 357.669C809.16 360.37 811.349 362.559 814.05 362.559H975.961C978.661 362.559 980.851 360.37 980.851 357.669C980.851 354.968 978.661 352.779 975.961 352.779Z" fill="black"/>
</g>
<path d="M818.95 408.47H812.28C810.557 408.47 809.16 409.867 809.16 411.59V418.26C809.16 419.984 810.557 421.38 812.28 421.38H818.95C820.673 421.38 822.071 419.984 822.071 418.26V411.59C822.071 409.867 820.673 408.47 818.95 408.47Z" fill="#28282F"/>
<path opacity="0.5" d="M818.95 408.47H812.28C810.557 408.47 809.16 409.867 809.16 411.59V418.26C809.16 419.984 810.557 421.38 812.28 421.38H818.95C820.673 421.38 822.071 419.984 822.071 418.26V411.59C822.071 409.867 820.673 408.47 818.95 408.47Z" fill="white"/>
<path d="M818.95 432.461H812.28C810.557 432.461 809.16 433.858 809.16 435.581V442.251C809.16 443.974 810.557 445.371 812.28 445.371H818.95C820.673 445.371 822.071 443.974 822.071 442.251V435.581C822.071 433.858 820.673 432.461 818.95 432.461Z" fill="#28282F"/>
<path opacity="0.5" d="M818.95 432.461H812.28C810.557 432.461 809.16 433.858 809.16 435.581V442.251C809.16 443.974 810.557 445.371 812.28 445.371H818.95C820.673 445.371 822.071 443.974 822.071 442.251V435.581C822.071 433.858 820.673 432.461 818.95 432.461Z" fill="white"/>
<path d="M818.95 456.449H812.28C810.557 456.449 809.16 457.846 809.16 459.569V466.239C809.16 467.962 810.557 469.359 812.28 469.359H818.95C820.673 469.359 822.071 467.962 822.071 466.239V459.569C822.071 457.846 820.673 456.449 818.95 456.449Z" fill="#28282F"/>
<path opacity="0.5" d="M818.95 456.449H812.28C810.557 456.449 809.16 457.846 809.16 459.569V466.239C809.16 467.962 810.557 469.359 812.28 469.359H818.95C820.673 469.359 822.071 467.962 822.071 466.239V459.569C822.071 457.846 820.673 456.449 818.95 456.449Z" fill="white"/>
<path d="M984.091 411.789H834.421C832.691 411.789 831.281 413.192 831.281 414.924C831.281 416.655 832.691 418.059 834.421 418.059H984.091C985.821 418.059 987.231 416.655 987.231 414.924C987.231 413.192 985.821 411.789 984.091 411.789Z" fill="#28282F"/>
<path d="M984.091 435.779H834.421C832.691 435.779 831.281 437.183 831.281 438.914C831.281 440.645 832.691 442.049 834.421 442.049H984.091C985.821 442.049 987.231 440.645 987.231 438.914C987.231 437.183 985.821 435.779 984.091 435.779Z" fill="#28282F"/>
<path d="M984.091 459.759H834.421C832.691 459.759 831.281 461.163 831.281 462.894C831.281 464.626 832.691 466.029 834.421 466.029H984.091C985.821 466.029 987.231 464.626 987.231 462.894C987.231 461.163 985.821 459.759 984.091 459.759Z" fill="#28282F"/>
<path opacity="0.5" d="M984.091 411.789H834.421C832.691 411.789 831.281 413.192 831.281 414.924C831.281 416.655 832.691 418.059 834.421 418.059H984.091C985.821 418.059 987.231 416.655 987.231 414.924C987.231 413.192 985.821 411.789 984.091 411.789Z" fill="white"/>
<path opacity="0.5" d="M984.091 435.779H834.421C832.691 435.779 831.281 437.183 831.281 438.914C831.281 440.645 832.691 442.049 834.421 442.049H984.091C985.821 442.049 987.231 440.645 987.231 438.914C987.231 437.183 985.821 435.779 984.091 435.779Z" fill="white"/>
<path opacity="0.5" d="M984.091 459.759H834.421C832.691 459.759 831.281 461.163 831.281 462.894C831.281 464.626 832.691 466.029 834.421 466.029H984.091C985.821 466.029 987.231 464.626 987.231 462.894C987.231 461.163 985.821 459.759 984.091 459.759Z" fill="white"/>
<path d="M699.809 443.84V439.26C699.81 438.876 699.667 438.505 699.407 438.222C699.148 437.938 698.791 437.763 698.409 437.73C694.612 437.446 690.892 436.516 687.409 434.98C687.093 434.824 686.841 434.563 686.695 434.242C686.55 433.922 686.519 433.561 686.609 433.22L688.199 426.96C688.255 426.741 688.359 426.538 688.503 426.364C688.647 426.19 688.828 426.051 689.033 425.955C689.237 425.859 689.46 425.81 689.686 425.811C689.912 425.812 690.135 425.863 690.339 425.96C693.953 427.653 697.887 428.556 701.879 428.61C706.399 428.61 709.509 426.82 709.509 423.68C709.509 420.54 706.959 418.78 701.059 416.8C692.559 413.93 686.769 409.94 686.769 402.28C686.769 395.57 691.239 390.28 699.049 388.37C699.378 388.287 699.67 388.097 699.879 387.828C700.087 387.56 700.2 387.23 700.199 386.89V382.11C700.197 381.908 700.236 381.708 700.312 381.521C700.388 381.335 700.501 381.165 700.643 381.022C700.785 380.879 700.954 380.765 701.141 380.687C701.327 380.61 701.527 380.57 701.729 380.57H706.469C706.875 380.573 707.264 380.736 707.551 381.025C707.838 381.313 707.999 381.703 707.999 382.11V386.11C707.998 386.496 708.144 386.869 708.408 387.151C708.672 387.433 709.033 387.605 709.419 387.63C712.461 387.813 715.453 388.489 718.279 389.63C718.623 389.771 718.903 390.033 719.067 390.366C719.231 390.7 719.267 391.082 719.169 391.44L717.599 397.44C717.542 397.651 717.44 397.846 717.301 398.014C717.162 398.182 716.988 398.318 716.792 398.413C716.596 398.508 716.381 398.559 716.163 398.564C715.945 398.569 715.729 398.526 715.529 398.44C712.436 397.1 709.099 396.418 705.729 396.44C700.619 396.44 698.939 398.71 698.939 400.93C698.939 403.52 701.709 405.23 708.449 407.72C717.909 411.04 721.679 415.42 721.679 422.62C721.679 429.38 717.139 435.14 708.759 437.01C708.423 437.088 708.124 437.278 707.911 437.549C707.698 437.82 707.584 438.155 707.589 438.5V443.86C707.59 444.062 707.551 444.262 707.475 444.449C707.399 444.635 707.286 444.805 707.144 444.948C707.002 445.091 706.833 445.205 706.646 445.283C706.46 445.36 706.26 445.4 706.059 445.4H701.339C701.135 445.399 700.935 445.357 700.748 445.278C700.561 445.199 700.391 445.083 700.249 444.938C700.107 444.793 699.995 444.622 699.919 444.433C699.843 444.245 699.806 444.043 699.809 443.84Z" fill="white"/>
<path opacity="0.5" d="M460.692 332.27L440.762 312.33L420.832 332.27H433.242V373.54H448.282V332.27H460.692Z" fill="white"/>
<path opacity="0.5" d="M501.6 373.891L481.67 353.961L461.73 373.891H474.15V402.121H489.18V373.891H501.6Z" fill="white"/>
<path d="M236.88 232.9H1088.33C1091.26 232.9 1094.08 234.065 1096.15 236.14C1098.22 238.214 1099.39 241.027 1099.39 243.96V264.03H225.82V243.96C225.82 241.027 226.985 238.214 229.059 236.14C231.133 234.065 233.947 232.9 236.88 232.9Z" fill="#28282F"/>
<path opacity="0.85" d="M236.88 232.9H1088.33C1091.26 232.9 1094.08 234.065 1096.15 236.14C1098.22 238.214 1099.39 241.027 1099.39 243.96V264.03H225.82V243.96C225.82 241.027 226.985 238.214 229.059 236.14C231.133 234.065 233.947 232.9 236.88 232.9Z" fill="white"/>
<path d="M259.149 255.94C263.275 255.94 266.619 252.595 266.619 248.47C266.619 244.344 263.275 241 259.149 241C255.024 241 251.679 244.344 251.679 248.47C251.679 252.595 255.024 255.94 259.149 255.94Z" fill="#28282F"/>
<path d="M283.391 255.94C287.517 255.94 290.861 252.595 290.861 248.47C290.861 244.344 287.517 241 283.391 241C279.266 241 275.921 244.344 275.921 248.47C275.921 252.595 279.266 255.94 283.391 255.94Z" fill="#61656D"/>
<path d="M307.63 255.94C311.755 255.94 315.1 252.595 315.1 248.47C315.1 244.344 311.755 241 307.63 241C303.504 241 300.16 244.344 300.16 248.47C300.16 252.595 303.504 255.94 307.63 255.94Z" fill="#28282F"/>
<path opacity="0.5" d="M307.63 255.94C311.755 255.94 315.1 252.595 315.1 248.47C315.1 244.344 311.755 241 307.63 241C303.504 241 300.16 244.344 300.16 248.47C300.16 252.595 303.504 255.94 307.63 255.94Z" fill="white"/>
<path opacity="0.15" d="M830.641 650.529L826.381 659.689C825.661 661.247 824.441 662.526 822.931 663.333C821.413 664.14 819.675 664.43 817.979 664.159L801.979 661.589C800.698 661.305 799.364 661.374 798.119 661.789C794.829 662.879 787.509 664.789 780.609 663.009L780.859 663.139H780.929C783.326 664.527 785.977 665.42 788.726 665.763C791.474 666.107 794.264 665.895 796.929 665.139L798.349 664.829C799.229 664.639 800.139 664.639 801.019 664.829L826.931 669.969L830.641 650.529Z" fill="black"/>
<path d="M997.631 591.981C998.461 591.981 999.141 591.305 999.141 590.471C999.141 589.637 998.461 588.961 997.631 588.961C996.801 588.961 996.121 589.637 996.121 590.471C996.121 591.305 996.801 591.981 997.631 591.981Z" fill="white"/>
<path d="M960.391 597.119C961.221 597.119 961.901 596.443 961.901 595.609C961.901 594.775 961.221 594.099 960.391 594.099C959.551 594.099 958.881 594.775 958.881 595.609C958.881 596.443 959.551 597.119 960.391 597.119Z" fill="white"/>
<path d="M999.141 628.82C999.971 628.82 1000.65 628.144 1000.65 627.31C1000.65 626.477 999.971 625.8 999.141 625.8C998.301 625.8 997.631 626.477 997.631 627.31C997.631 628.144 998.301 628.82 999.141 628.82Z" fill="white"/>
<path d="M1035.25 629.809C1036.08 629.809 1036.76 629.133 1036.76 628.299C1036.76 627.465 1036.08 626.789 1035.25 626.789C1034.42 626.789 1033.74 627.465 1033.74 628.299C1033.74 629.133 1034.42 629.809 1035.25 629.809Z" fill="white"/>
<path d="M941.331 621.33C942.161 621.33 942.841 620.654 942.841 619.82C942.841 618.986 942.161 618.31 941.331 618.31C940.491 618.31 939.821 618.986 939.821 619.82C939.821 620.654 940.491 621.33 941.331 621.33Z" fill="white"/>
<path d="M909.831 631.85C910.661 631.85 911.341 631.174 911.341 630.34C911.341 629.506 910.661 628.83 909.831 628.83C908.991 628.83 908.321 629.506 908.321 630.34C908.321 631.174 908.991 631.85 909.831 631.85Z" fill="white"/>
<path d="M896.271 614.17C897.101 614.17 897.781 613.494 897.781 612.66C897.781 611.826 897.101 611.15 896.271 611.15C895.441 611.15 894.761 611.826 894.761 612.66C894.761 613.494 895.441 614.17 896.271 614.17Z" fill="white"/>
<path d="M891.651 660.59C892.481 660.59 893.161 659.914 893.161 659.08C893.161 658.246 892.481 657.57 891.651 657.57C890.821 657.57 890.141 658.246 890.141 659.08C890.141 659.914 890.821 660.59 891.651 660.59Z" fill="white"/>
<path d="M864.191 672.379C865.021 672.379 865.701 671.703 865.701 670.869C865.701 670.035 865.021 669.359 864.191 669.359C863.351 669.359 862.681 670.035 862.681 670.869C862.681 671.703 863.351 672.379 864.191 672.379Z" fill="white"/>
<path d="M845.331 655.549C846.161 655.549 846.841 654.873 846.841 654.039C846.841 653.205 846.161 652.529 845.331 652.529C844.491 652.529 843.821 653.205 843.821 654.039C843.821 654.873 844.491 655.549 845.331 655.549Z" fill="white"/>
<path d="M927.031 586.25C927.861 586.25 928.541 585.574 928.541 584.74C928.541 583.906 927.861 583.23 927.031 583.23C926.191 583.23 925.521 583.906 925.521 584.74C925.521 585.574 926.191 586.25 927.031 586.25Z" fill="white"/>
<path d="M965.681 640.94C966.511 640.94 967.191 640.264 967.191 639.43C967.191 638.596 966.511 637.92 965.681 637.92C964.851 637.92 964.171 638.596 964.171 639.43C964.171 640.264 964.851 640.94 965.681 640.94Z" fill="white"/>
<path d="M935.451 661.811C936.281 661.811 936.961 661.135 936.961 660.301C936.961 659.467 936.281 658.791 935.451 658.791C934.621 658.791 933.941 659.467 933.941 660.301C933.941 661.135 934.621 661.811 935.451 661.811Z" fill="white"/>
<path d="M1026.99 664.84C1027.82 664.84 1028.5 664.164 1028.5 663.33C1028.5 662.496 1027.82 661.82 1026.99 661.82C1026.16 661.82 1025.48 662.496 1025.48 663.33C1025.48 664.164 1026.16 664.84 1026.99 664.84Z" fill="white"/>
<path d="M955.211 526.699C955.471 526.699 955.681 526.489 955.681 526.229C955.681 525.97 955.471 525.759 955.211 525.759C954.951 525.759 954.741 525.97 954.741 526.229C954.741 526.489 954.951 526.699 955.211 526.699Z" fill="white"/>
<path d="M938.141 526.619C938.401 526.619 938.611 526.409 938.611 526.149C938.611 525.89 938.401 525.679 938.141 525.679C937.881 525.679 937.671 525.89 937.671 526.149C937.671 526.409 937.881 526.619 938.141 526.619Z" fill="white"/>
<path d="M940.001 515.89C948.531 516.16 954.381 513.48 957.791 511.17C959.921 509.803 961.771 508.049 963.251 506C963.331 505.874 963.361 505.721 963.331 505.575C963.291 505.429 963.211 505.301 963.081 505.22C962.951 505.139 962.801 505.112 962.651 505.144C962.511 505.175 962.381 505.264 962.301 505.39C962.241 505.49 955.721 515.26 940.041 514.76C939.971 514.757 939.891 514.77 939.821 514.796C939.751 514.822 939.691 514.862 939.631 514.913C939.581 514.965 939.541 515.026 939.511 515.094C939.481 515.162 939.461 515.236 939.461 515.31C939.461 515.458 939.511 515.601 939.611 515.709C939.711 515.817 939.851 515.882 940.001 515.89Z" fill="#21252B"/>
<path d="M945.341 542.99C945.271 542.993 945.211 543.012 945.151 543.046C945.101 543.08 945.051 543.127 945.021 543.184C944.981 543.241 944.961 543.305 944.961 543.371C944.961 543.437 944.981 543.502 945.011 543.56C945.511 544.631 946.311 545.536 947.311 546.17C948.311 546.804 949.471 547.141 950.651 547.141C951.841 547.141 953.001 546.804 954.001 546.17C954.991 545.536 955.791 544.631 956.301 543.56C956.331 543.502 956.341 543.437 956.341 543.371C956.341 543.305 956.321 543.241 956.291 543.184C956.261 543.127 956.211 543.08 956.151 543.046C956.101 543.012 956.031 542.993 955.971 542.99H945.341Z" fill="white"/>
<path opacity="0.6" d="M830.721 650.09L835.051 650.18L831.071 670.87L826.941 670.05L830.721 650.09Z" fill="black"/>
<path opacity="0.2" d="M230.589 654.27L228.819 652.71C227.781 651.796 226.504 651.195 225.138 650.978C223.772 650.762 222.372 650.938 221.102 651.486C219.832 652.034 218.744 652.931 217.964 654.074C217.185 655.217 216.746 656.557 216.699 657.94L220.599 811.66H238.859L230.589 654.27Z" fill="black"/>
<path d="M157.03 279.289H107.44C91.733 279.289 79 292.022 79 307.729V357.319C79 373.026 91.733 385.759 107.44 385.759H157.03C172.737 385.759 185.47 373.026 185.47 357.319V307.729C185.47 292.022 172.737 279.289 157.03 279.289Z" fill="#3F4249"/>
<path d="M166.441 333.529H163.941C163.676 333.529 163.421 333.424 163.234 333.236C163.046 333.049 162.941 332.794 162.941 332.529C162.941 332.264 163.046 332.009 163.234 331.822C163.421 331.634 163.676 331.529 163.941 331.529H166.441C166.706 331.529 166.961 331.634 167.148 331.822C167.336 332.009 167.441 332.264 167.441 332.529C167.441 332.794 167.336 333.049 167.148 333.236C166.961 333.424 166.706 333.529 166.441 333.529Z" fill="#3F4249"/>
<path d="M241.712 333.529H237.012C236.746 333.529 236.492 333.424 236.304 333.236C236.117 333.049 236.012 332.794 236.012 332.529C236.012 332.264 236.117 332.009 236.304 331.822C236.492 331.634 236.746 331.529 237.012 331.529H241.712C241.977 331.529 242.231 331.634 242.419 331.822C242.606 332.009 242.712 332.264 242.712 332.529C242.712 332.794 242.606 333.049 242.419 333.236C242.231 333.424 241.977 333.529 241.712 333.529ZM232.302 333.529H227.592C227.326 333.529 227.072 333.424 226.885 333.236C226.697 333.049 226.592 332.794 226.592 332.529C226.592 332.264 226.697 332.009 226.885 331.822C227.072 331.634 227.326 331.529 227.592 331.529H232.302C232.567 331.529 232.821 331.634 233.009 331.822C233.196 332.009 233.302 332.264 233.302 332.529C233.302 332.794 233.196 333.049 233.009 333.236C232.821 333.424 232.567 333.529 232.302 333.529ZM222.892 333.529H218.182C217.916 333.529 217.662 333.424 217.475 333.236C217.287 333.049 217.182 332.794 217.182 332.529C217.182 332.264 217.287 332.009 217.475 331.822C217.662 331.634 217.916 331.529 218.182 331.529H222.892C223.157 331.529 223.411 331.634 223.599 331.822C223.786 332.009 223.892 332.264 223.892 332.529C223.892 332.794 223.786 333.049 223.599 333.236C223.411 333.424 223.157 333.529 222.892 333.529ZM213.442 333.529H208.742C208.476 333.529 208.222 333.424 208.035 333.236C207.847 333.049 207.742 332.794 207.742 332.529C207.742 332.264 207.847 332.009 208.035 331.822C208.222 331.634 208.476 331.529 208.742 331.529H213.442C213.707 331.529 213.961 331.634 214.149 331.822C214.336 332.009 214.442 332.264 214.442 332.529C214.442 332.794 214.336 333.049 214.149 333.236C213.961 333.424 213.707 333.529 213.442 333.529ZM204.032 333.529H199.322C199.056 333.529 198.802 333.424 198.614 333.236C198.427 333.049 198.322 332.794 198.322 332.529C198.322 332.264 198.427 332.009 198.614 331.822C198.802 331.634 199.056 331.529 199.322 331.529H204.032C204.297 331.529 204.551 331.634 204.739 331.822C204.926 332.009 205.032 332.264 205.032 332.529C205.032 332.794 204.926 333.049 204.739 333.236C204.551 333.424 204.297 333.529 204.032 333.529ZM194.622 333.529H189.942C189.676 333.529 189.422 333.424 189.235 333.236C189.047 333.049 188.942 332.794 188.942 332.529C188.942 332.264 189.047 332.009 189.235 331.822C189.422 331.634 189.676 331.529 189.942 331.529H194.652C194.917 331.529 195.171 331.634 195.359 331.822C195.546 332.009 195.652 332.264 195.652 332.529C195.652 332.794 195.546 333.049 195.359 333.236C195.171 333.424 194.917 333.529 194.652 333.529H194.622ZM185.202 333.529H180.502C180.236 333.529 179.982 333.424 179.795 333.236C179.607 333.049 179.502 332.794 179.502 332.529C179.502 332.264 179.607 332.009 179.795 331.822C179.982 331.634 180.236 331.529 180.502 331.529H185.202C185.467 331.529 185.721 331.634 185.909 331.822C186.096 332.009 186.202 332.264 186.202 332.529C186.202 332.794 186.096 333.049 185.909 333.236C185.721 333.424 185.467 333.529 185.202 333.529ZM175.792 333.529H171.082C170.816 333.529 170.562 333.424 170.375 333.236C170.187 333.049 170.082 332.794 170.082 332.529C170.082 332.264 170.187 332.009 170.375 331.822C170.562 331.634 170.816 331.529 171.082 331.529H175.792C176.057 331.529 176.311 331.634 176.499 331.822C176.686 332.009 176.792 332.264 176.792 332.529C176.792 332.794 176.686 333.049 176.499 333.236C176.311 333.424 176.057 333.529 175.792 333.529Z" fill="#3F4249"/>
<path d="M248.921 333.529H246.441C246.176 333.529 245.921 333.424 245.734 333.236C245.546 333.049 245.441 332.794 245.441 332.529C245.441 332.264 245.546 332.009 245.734 331.822C245.921 331.634 246.176 331.529 246.441 331.529H248.941C249.206 331.529 249.461 331.634 249.648 331.822C249.836 332.009 249.941 332.264 249.941 332.529C249.941 332.794 249.836 333.049 249.648 333.236C249.461 333.424 249.206 333.529 248.941 333.529H248.921Z" fill="#3F4249"/>
<path d="M248.919 338.9C252.442 338.9 255.299 336.044 255.299 332.52C255.299 328.997 252.442 326.14 248.919 326.14C245.395 326.14 242.539 328.997 242.539 332.52C242.539 336.044 245.395 338.9 248.919 338.9Z" fill="#3F4249"/>
<path d="M647.908 142H598.319C582.612 142 569.879 154.733 569.879 170.44V220.03C569.879 235.737 582.612 248.47 598.319 248.47H647.908C663.615 248.47 676.348 235.737 676.348 220.03V170.44C676.348 154.733 663.615 142 647.908 142Z" fill="#3F4249"/>
<path d="M363.75 281.26C363.484 281.26 363.23 281.155 363.043 280.967C362.855 280.78 362.75 280.525 362.75 280.26V275.33C362.75 275.065 362.855 274.811 363.043 274.623C363.23 274.436 363.484 274.33 363.75 274.33C364.015 274.33 364.269 274.436 364.457 274.623C364.644 274.811 364.75 275.065 364.75 275.33V280.26C364.75 280.525 364.644 280.78 364.457 280.967C364.269 281.155 364.015 281.26 363.75 281.26ZM363.75 271.4C363.484 271.4 363.23 271.295 363.043 271.107C362.855 270.92 362.75 270.665 362.75 270.4V265.47C362.75 265.205 362.855 264.951 363.043 264.763C363.23 264.576 363.484 264.47 363.75 264.47C364.015 264.47 364.269 264.576 364.457 264.763C364.644 264.951 364.75 265.205 364.75 265.47V270.4C364.75 270.665 364.644 270.92 364.457 271.107C364.269 271.295 364.015 271.4 363.75 271.4ZM363.75 261.55C363.484 261.55 363.23 261.445 363.043 261.257C362.855 261.07 362.75 260.815 362.75 260.55V255.62C362.75 255.355 362.855 255.101 363.043 254.913C363.23 254.726 363.484 254.62 363.75 254.62C364.015 254.62 364.269 254.726 364.457 254.913C364.644 255.101 364.75 255.355 364.75 255.62V260.53C364.75 260.795 364.644 261.05 364.457 261.237C364.269 261.425 364.015 261.53 363.75 261.53V261.55ZM363.75 251.69C363.484 251.69 363.23 251.585 363.043 251.397C362.855 251.21 362.75 250.955 362.75 250.69V245.76C362.75 245.495 362.855 245.241 363.043 245.053C363.23 244.866 363.484 244.76 363.75 244.76C364.015 244.76 364.269 244.866 364.457 245.053C364.644 245.241 364.75 245.495 364.75 245.76V250.69C364.75 250.955 364.644 251.21 364.457 251.397C364.269 251.585 364.015 251.69 363.75 251.69ZM363.75 241.84C363.484 241.84 363.23 241.735 363.043 241.547C362.855 241.36 362.75 241.105 362.75 240.84V235.91C362.75 235.645 362.855 235.391 363.043 235.203C363.23 235.016 363.484 234.91 363.75 234.91C364.015 234.91 364.269 235.016 364.457 235.203C364.644 235.391 364.75 235.645 364.75 235.91V240.84C364.75 241.105 364.644 241.36 364.457 241.547C364.269 241.735 364.015 241.84 363.75 241.84ZM363.75 231.98C363.484 231.98 363.23 231.875 363.043 231.687C362.855 231.5 362.75 231.245 362.75 230.98V226.05C362.75 225.785 362.855 225.531 363.043 225.343C363.23 225.156 363.484 225.05 363.75 225.05C364.015 225.05 364.269 225.156 364.457 225.343C364.644 225.531 364.75 225.785 364.75 226.05V230.98C364.75 231.245 364.644 231.5 364.457 231.687C364.269 231.875 364.015 231.98 363.75 231.98ZM363.75 222.12C363.484 222.12 363.23 222.015 363.043 221.827C362.855 221.64 362.75 221.385 362.75 221.12V216.2C362.75 215.935 362.855 215.681 363.043 215.493C363.23 215.306 363.484 215.2 363.75 215.2C364.015 215.2 364.269 215.306 364.457 215.493C364.644 215.681 364.75 215.935 364.75 216.2V221.12C364.75 221.385 364.644 221.64 364.457 221.827C364.269 222.015 364.015 222.12 363.75 222.12ZM364.22 212.3C364.15 212.31 364.079 212.31 364.01 212.3C363.881 212.273 363.759 212.22 363.65 212.146C363.542 212.071 363.449 211.976 363.377 211.865C363.306 211.755 363.257 211.631 363.233 211.501C363.21 211.372 363.212 211.239 363.24 211.11C363.61 209.425 364.181 207.79 364.94 206.24C364.991 206.113 365.068 205.997 365.166 205.901C365.264 205.804 365.381 205.729 365.51 205.68C365.638 205.631 365.775 205.609 365.913 205.615C366.05 205.622 366.185 205.656 366.308 205.717C366.432 205.778 366.541 205.863 366.63 205.968C366.719 206.073 366.785 206.195 366.825 206.327C366.864 206.458 366.876 206.597 366.86 206.733C366.843 206.87 366.799 207.002 366.73 207.12C366.042 208.526 365.528 210.01 365.2 211.54C365.146 211.759 365.019 211.953 364.842 212.09C364.664 212.228 364.445 212.302 364.22 212.3ZM368.52 203.55C368.285 203.548 368.058 203.463 367.88 203.31C367.778 203.226 367.695 203.123 367.633 203.007C367.572 202.89 367.534 202.763 367.522 202.632C367.51 202.501 367.524 202.369 367.563 202.243C367.602 202.118 367.665 202.001 367.75 201.9C368.861 200.584 370.123 199.402 371.51 198.38C371.615 198.302 371.735 198.245 371.863 198.214C371.991 198.182 372.123 198.176 372.253 198.195C372.383 198.215 372.508 198.26 372.621 198.327C372.733 198.395 372.831 198.484 372.91 198.59C372.988 198.696 373.044 198.816 373.076 198.944C373.108 199.071 373.114 199.204 373.095 199.334C373.075 199.464 373.03 199.589 372.962 199.701C372.895 199.814 372.805 199.912 372.7 199.99C371.436 200.916 370.287 201.99 369.28 203.19C369.185 203.298 369.068 203.384 368.937 203.443C368.806 203.502 368.663 203.531 368.52 203.53V203.55ZM376.39 197.77C376.16 197.767 375.939 197.686 375.762 197.539C375.586 197.392 375.465 197.19 375.42 196.964C375.376 196.739 375.41 196.506 375.517 196.303C375.625 196.1 375.798 195.94 376.01 195.85C377.614 195.188 379.293 194.725 381.01 194.47C381.141 194.451 381.275 194.458 381.403 194.491C381.532 194.523 381.653 194.581 381.759 194.661C381.865 194.74 381.955 194.839 382.023 194.954C382.091 195.068 382.136 195.194 382.155 195.325C382.174 195.456 382.167 195.59 382.134 195.719C382.101 195.848 382.044 195.968 381.964 196.075C381.885 196.181 381.785 196.271 381.671 196.339C381.557 196.406 381.431 196.451 381.3 196.47C379.754 196.7 378.242 197.12 376.8 197.72C376.683 197.757 376.562 197.774 376.44 197.77H376.39ZM568.39 196.23H563.44C563.174 196.23 562.92 196.125 562.733 195.937C562.545 195.75 562.44 195.495 562.44 195.23C562.44 194.965 562.545 194.711 562.733 194.523C562.92 194.336 563.174 194.23 563.44 194.23H568.37C568.635 194.23 568.889 194.336 569.077 194.523C569.264 194.711 569.37 194.965 569.37 195.23C569.37 195.495 569.264 195.75 569.077 195.937C568.889 196.125 568.635 196.23 568.37 196.23H568.39ZM558.54 196.23H553.61C553.344 196.23 553.09 196.125 552.902 195.937C552.715 195.75 552.61 195.495 552.61 195.23C552.61 194.965 552.715 194.711 552.902 194.523C553.09 194.336 553.344 194.23 553.61 194.23H558.54C558.805 194.23 559.059 194.336 559.247 194.523C559.434 194.711 559.54 194.965 559.54 195.23C559.54 195.495 559.434 195.75 559.247 195.937C559.059 196.125 558.805 196.23 558.54 196.23ZM548.68 196.23H543.75C543.484 196.23 543.23 196.125 543.043 195.937C542.855 195.75 542.75 195.495 542.75 195.23C542.75 194.965 542.855 194.711 543.043 194.523C543.23 194.336 543.484 194.23 543.75 194.23H548.68C548.945 194.23 549.199 194.336 549.387 194.523C549.574 194.711 549.68 194.965 549.68 195.23C549.68 195.495 549.574 195.75 549.387 195.937C549.199 196.125 548.945 196.23 548.68 196.23ZM538.82 196.23H533.9C533.634 196.23 533.38 196.125 533.192 195.937C533.005 195.75 532.9 195.495 532.9 195.23C532.9 194.965 533.005 194.711 533.192 194.523C533.38 194.336 533.634 194.23 533.9 194.23H538.82C539.085 194.23 539.339 194.336 539.527 194.523C539.714 194.711 539.82 194.965 539.82 195.23C539.82 195.495 539.714 195.75 539.527 195.937C539.339 196.125 539.085 196.23 538.82 196.23ZM528.97 196.23H524.04C523.774 196.23 523.52 196.125 523.332 195.937C523.145 195.75 523.04 195.495 523.04 195.23C523.04 194.965 523.145 194.711 523.332 194.523C523.52 194.336 523.774 194.23 524.04 194.23H528.97C529.235 194.23 529.489 194.336 529.677 194.523C529.864 194.711 529.97 194.965 529.97 195.23C529.97 195.495 529.864 195.75 529.677 195.937C529.489 196.125 529.235 196.23 528.97 196.23ZM519.11 196.23H514.19C513.924 196.23 513.67 196.125 513.483 195.937C513.295 195.75 513.19 195.495 513.19 195.23C513.19 194.965 513.295 194.711 513.483 194.523C513.67 194.336 513.924 194.23 514.19 194.23H519.11C519.375 194.23 519.629 194.336 519.817 194.523C520.004 194.711 520.11 194.965 520.11 195.23C520.11 195.495 520.004 195.75 519.817 195.937C519.629 196.125 519.375 196.23 519.11 196.23ZM509.26 196.23H504.33C504.064 196.23 503.81 196.125 503.623 195.937C503.435 195.75 503.33 195.495 503.33 195.23C503.33 194.965 503.435 194.711 503.623 194.523C503.81 194.336 504.064 194.23 504.33 194.23H509.26C509.525 194.23 509.779 194.336 509.967 194.523C510.154 194.711 510.26 194.965 510.26 195.23C510.26 195.495 510.154 195.75 509.967 195.937C509.779 196.125 509.525 196.23 509.26 196.23ZM499.4 196.23H494.44C494.174 196.23 493.92 196.125 493.733 195.937C493.545 195.75 493.44 195.495 493.44 195.23C493.44 194.965 493.545 194.711 493.733 194.523C493.92 194.336 494.174 194.23 494.44 194.23H499.37C499.635 194.23 499.889 194.336 500.077 194.523C500.264 194.711 500.37 194.965 500.37 195.23C500.37 195.495 500.264 195.75 500.077 195.937C499.889 196.125 499.635 196.23 499.37 196.23H499.4ZM489.55 196.23H484.62C484.354 196.23 484.1 196.125 483.912 195.937C483.725 195.75 483.62 195.495 483.62 195.23C483.62 194.965 483.725 194.711 483.912 194.523C484.1 194.336 484.354 194.23 484.62 194.23H489.55C489.815 194.23 490.069 194.336 490.257 194.523C490.444 194.711 490.55 194.965 490.55 195.23C490.55 195.495 490.444 195.75 490.257 195.937C490.069 196.125 489.815 196.23 489.55 196.23ZM479.69 196.23H474.74C474.474 196.23 474.22 196.125 474.032 195.937C473.845 195.75 473.74 195.495 473.74 195.23C473.74 194.965 473.845 194.711 474.032 194.523C474.22 194.336 474.474 194.23 474.74 194.23H479.67C479.935 194.23 480.189 194.336 480.377 194.523C480.564 194.711 480.67 194.965 480.67 195.23C480.67 195.495 480.564 195.75 480.377 195.937C480.189 196.125 479.935 196.23 479.67 196.23H479.69ZM469.83 196.23H464.91C464.644 196.23 464.39 196.125 464.202 195.937C464.015 195.75 463.91 195.495 463.91 195.23C463.91 194.965 464.015 194.711 464.202 194.523C464.39 194.336 464.644 194.23 464.91 194.23H469.83C470.095 194.23 470.349 194.336 470.537 194.523C470.724 194.711 470.83 194.965 470.83 195.23C470.83 195.495 470.724 195.75 470.537 195.937C470.349 196.125 470.095 196.23 469.83 196.23ZM459.98 196.23H455.05C454.784 196.23 454.53 196.125 454.342 195.937C454.155 195.75 454.05 195.495 454.05 195.23C454.05 194.965 454.155 194.711 454.342 194.523C454.53 194.336 454.784 194.23 455.05 194.23H459.98C460.245 194.23 460.499 194.336 460.687 194.523C460.874 194.711 460.98 194.965 460.98 195.23C460.98 195.495 460.874 195.75 460.687 195.937C460.499 196.125 460.245 196.23 459.98 196.23ZM450.12 196.23H445.2C444.934 196.23 444.68 196.125 444.493 195.937C444.305 195.75 444.2 195.495 444.2 195.23C444.2 194.965 444.305 194.711 444.493 194.523C444.68 194.336 444.934 194.23 445.2 194.23H450.12C450.385 194.23 450.639 194.336 450.827 194.523C451.014 194.711 451.12 194.965 451.12 195.23C451.12 195.495 451.014 195.75 450.827 195.937C450.639 196.125 450.385 196.23 450.12 196.23ZM440.27 196.23H435.34C435.074 196.23 434.82 196.125 434.632 195.937C434.445 195.75 434.34 195.495 434.34 195.23C434.34 194.965 434.445 194.711 434.632 194.523C434.82 194.336 435.074 194.23 435.34 194.23H440.27C440.535 194.23 440.789 194.336 440.977 194.523C441.164 194.711 441.27 194.965 441.27 195.23C441.27 195.495 441.164 195.75 440.977 195.937C440.789 196.125 440.535 196.23 440.27 196.23ZM430.41 196.23H425.44C425.174 196.23 424.92 196.125 424.733 195.937C424.545 195.75 424.44 195.495 424.44 195.23C424.44 194.965 424.545 194.711 424.733 194.523C424.92 194.336 425.174 194.23 425.44 194.23H430.44C430.705 194.23 430.959 194.336 431.147 194.523C431.334 194.711 431.44 194.965 431.44 195.23C431.44 195.495 431.334 195.75 431.147 195.937C430.959 196.125 430.705 196.23 430.44 196.23H430.41ZM420.56 196.23H415.63C415.364 196.23 415.11 196.125 414.923 195.937C414.735 195.75 414.63 195.495 414.63 195.23C414.63 194.965 414.735 194.711 414.923 194.523C415.11 194.336 415.364 194.23 415.63 194.23H420.56C420.825 194.23 421.079 194.336 421.267 194.523C421.454 194.711 421.56 194.965 421.56 195.23C421.56 195.495 421.454 195.75 421.267 195.937C421.079 196.125 420.825 196.23 420.56 196.23ZM410.7 196.23H405.77C405.504 196.23 405.25 196.125 405.062 195.937C404.875 195.75 404.77 195.495 404.77 195.23C404.77 194.965 404.875 194.711 405.062 194.523C405.25 194.336 405.504 194.23 405.77 194.23H410.7C410.965 194.23 411.219 194.336 411.407 194.523C411.594 194.711 411.7 194.965 411.7 195.23C411.7 195.495 411.594 195.75 411.407 195.937C411.219 196.125 410.965 196.23 410.7 196.23ZM400.84 196.23H395.92C395.654 196.23 395.4 196.125 395.212 195.937C395.025 195.75 394.92 195.495 394.92 195.23C394.92 194.965 395.025 194.711 395.212 194.523C395.4 194.336 395.654 194.23 395.92 194.23H400.84C401.105 194.23 401.359 194.336 401.547 194.523C401.734 194.711 401.84 194.965 401.84 195.23C401.84 195.495 401.734 195.75 401.547 195.937C401.359 196.125 401.105 196.23 400.84 196.23ZM390.99 196.23H386.04C385.774 196.23 385.52 196.125 385.332 195.937C385.145 195.75 385.04 195.495 385.04 195.23C385.04 194.965 385.145 194.711 385.332 194.523C385.52 194.336 385.774 194.23 386.04 194.23H390.97C391.235 194.23 391.489 194.336 391.677 194.523C391.864 194.711 391.97 194.965 391.97 195.23C391.97 195.495 391.864 195.75 391.677 195.937C391.489 196.125 391.235 196.23 390.97 196.23H390.99Z" fill="#3F4249"/>
<path d="M363.75 288.711C363.484 288.711 363.23 288.605 363.043 288.418C362.855 288.23 362.75 287.976 362.75 287.711V285.211C362.75 284.945 362.855 284.691 363.043 284.504C363.23 284.316 363.484 284.211 363.75 284.211C364.015 284.211 364.269 284.316 364.457 284.504C364.644 284.691 364.75 284.945 364.75 285.211V287.711C364.75 287.976 364.644 288.23 364.457 288.418C364.269 288.605 364.015 288.711 363.75 288.711Z" fill="#3F4249"/>
<path d="M363.751 292.33C367.274 292.33 370.131 289.474 370.131 285.95C370.131 282.426 367.274 279.57 363.751 279.57C360.227 279.57 357.371 282.426 357.371 285.95C357.371 289.474 360.227 292.33 363.751 292.33Z" fill="#3F4249"/>
<path d="M128.84 356.69V353.1C128.843 352.799 128.733 352.508 128.531 352.286C128.329 352.063 128.05 351.925 127.75 351.9C124.785 351.676 121.88 350.949 119.16 349.75C118.909 349.631 118.707 349.428 118.591 349.176C118.474 348.924 118.449 348.639 118.52 348.37L119.77 343.47C119.815 343.299 119.897 343.14 120.01 343.004C120.123 342.867 120.265 342.758 120.425 342.683C120.585 342.607 120.76 342.568 120.937 342.568C121.114 342.567 121.289 342.606 121.45 342.68C124.268 344.005 127.336 344.714 130.45 344.76C133.99 344.76 136.45 343.36 136.45 340.9C136.45 338.44 134.45 337.07 129.83 335.52C123.17 333.27 118.64 330.14 118.64 324.14C118.64 318.89 122.14 314.74 128.25 313.25C128.51 313.189 128.741 313.04 128.904 312.829C129.068 312.618 129.155 312.357 129.15 312.09V308.35C129.15 308.032 129.276 307.727 129.501 307.502C129.726 307.277 130.032 307.15 130.35 307.15H134.06C134.378 307.15 134.683 307.277 134.908 307.502C135.133 307.727 135.26 308.032 135.26 308.35V311.53C135.262 311.833 135.378 312.124 135.586 312.345C135.794 312.566 136.077 312.7 136.38 312.72C138.758 312.864 141.097 313.387 143.31 314.27C143.579 314.381 143.798 314.587 143.927 314.848C144.056 315.11 144.085 315.409 144.01 315.69L142.78 320.36C142.736 320.525 142.657 320.68 142.549 320.812C142.44 320.944 142.305 321.052 142.151 321.128C141.998 321.204 141.83 321.246 141.659 321.251C141.488 321.257 141.318 321.226 141.16 321.16C138.741 320.107 136.128 319.568 133.49 319.58C129.49 319.58 128.17 321.36 128.17 323.09C128.17 325.09 130.33 326.46 135.61 328.41C143.02 331.01 145.97 334.41 145.97 340.07C145.97 345.36 142.42 349.87 135.86 351.34C135.596 351.401 135.362 351.551 135.194 351.764C135.027 351.976 134.937 352.24 134.94 352.51V356.71C134.94 357.028 134.813 357.334 134.588 357.559C134.363 357.784 134.058 357.91 133.74 357.91H130.04C129.881 357.909 129.724 357.876 129.578 357.814C129.431 357.752 129.299 357.662 129.187 357.549C129.076 357.435 128.988 357.301 128.928 357.154C128.869 357.007 128.838 356.849 128.84 356.69Z" fill="white"/>
<path d="M619.729 219.399V215.809C619.728 215.51 619.616 215.221 619.415 215C619.214 214.778 618.937 214.639 618.639 214.609C615.67 214.391 612.761 213.664 610.039 212.459C609.792 212.339 609.594 212.136 609.48 211.887C609.365 211.637 609.34 211.355 609.409 211.089L610.659 206.189C610.701 206.017 610.781 205.857 610.893 205.72C611.005 205.583 611.146 205.472 611.306 205.397C611.466 205.321 611.641 205.282 611.818 205.282C611.995 205.283 612.17 205.323 612.329 205.399C615.15 206.715 618.217 207.42 621.329 207.469C624.869 207.469 627.329 206.069 627.329 203.619C627.329 201.169 625.329 199.779 620.709 198.229C614.059 195.979 609.529 192.859 609.529 186.859C609.529 181.599 613.019 177.449 619.139 175.969C619.397 175.903 619.624 175.753 619.787 175.543C619.95 175.333 620.039 175.075 620.039 174.809V171.069C620.039 170.75 620.165 170.444 620.39 170.217C620.615 169.99 620.92 169.862 621.239 169.859H624.949C625.268 169.862 625.574 169.99 625.798 170.217C626.023 170.444 626.149 170.75 626.149 171.069V174.219C626.151 174.522 626.266 174.813 626.471 175.035C626.676 175.257 626.958 175.394 627.259 175.419C629.641 175.558 631.985 176.082 634.199 176.969C634.466 177.08 634.683 177.285 634.81 177.544C634.937 177.804 634.965 178.1 634.889 178.379L633.659 183.049C633.616 183.215 633.538 183.37 633.431 183.504C633.323 183.638 633.187 183.746 633.034 183.823C632.88 183.9 632.712 183.943 632.54 183.949C632.369 183.955 632.198 183.925 632.039 183.859C629.621 182.8 627.009 182.259 624.369 182.269C620.369 182.269 619.049 184.049 619.049 185.789C619.049 187.789 621.219 189.149 626.499 191.099C633.899 193.709 636.859 197.099 636.859 202.769C636.859 208.059 633.299 212.569 626.739 214.029C626.479 214.096 626.249 214.247 626.084 214.458C625.919 214.67 625.83 214.931 625.829 215.199V219.399C625.829 219.717 625.703 220.023 625.478 220.248C625.253 220.473 624.948 220.599 624.629 220.599H620.919C620.603 220.596 620.3 220.469 620.077 220.244C619.854 220.019 619.729 219.716 619.729 219.399Z" fill="white"/>
<path d="M451.441 535.529C451.176 535.529 450.921 535.424 450.734 535.236C450.546 535.049 450.441 534.794 450.441 534.529V532.029C450.441 531.764 450.546 531.509 450.734 531.322C450.921 531.134 451.176 531.029 451.441 531.029C451.706 531.029 451.961 531.134 452.148 531.322C452.336 531.509 452.441 531.764 452.441 532.029V534.529C452.441 534.794 452.336 535.049 452.148 535.236C451.961 535.424 451.706 535.529 451.441 535.529Z" fill="#3F4249"/>
<path d="M600.641 810.53C600.376 810.53 600.121 810.425 599.934 810.237C599.746 810.05 599.641 809.796 599.641 809.53V804.53C599.641 804.265 599.746 804.011 599.934 803.823C600.121 803.636 600.376 803.53 600.641 803.53C600.906 803.53 601.161 803.636 601.348 803.823C601.536 804.011 601.641 804.265 601.641 804.53V809.53C601.641 809.796 601.536 810.05 601.348 810.237C601.161 810.425 600.906 810.53 600.641 810.53ZM600.641 800.46C600.376 800.46 600.121 800.355 599.934 800.167C599.746 799.98 599.641 799.726 599.641 799.46V794.46C599.641 794.195 599.746 793.941 599.934 793.753C600.121 793.566 600.376 793.46 600.641 793.46C600.906 793.46 601.161 793.566 601.348 793.753C601.536 793.941 601.641 794.195 601.641 794.46V799.46C601.651 799.597 601.632 799.735 601.586 799.865C601.54 799.994 601.468 800.113 601.374 800.213C601.28 800.314 601.167 800.394 601.041 800.448C600.914 800.503 600.778 800.531 600.641 800.53V800.46ZM600.641 790.39C600.376 790.39 600.121 790.285 599.934 790.097C599.746 789.91 599.641 789.656 599.641 789.39V784.39C599.641 784.125 599.746 783.871 599.934 783.683C600.121 783.496 600.376 783.39 600.641 783.39C600.906 783.39 601.161 783.496 601.348 783.683C601.536 783.871 601.641 784.125 601.641 784.39V789.39C601.646 789.525 601.625 789.659 601.577 789.785C601.529 789.911 601.456 790.026 601.363 790.123C601.269 790.221 601.157 790.298 601.033 790.351C600.909 790.403 600.776 790.43 600.641 790.43V790.39ZM600.641 780.33C600.376 780.33 600.121 780.225 599.934 780.037C599.746 779.85 599.641 779.596 599.641 779.33V774.33C599.641 774.065 599.746 773.811 599.934 773.623C600.121 773.436 600.376 773.33 600.641 773.33C600.906 773.33 601.161 773.436 601.348 773.623C601.536 773.811 601.641 774.065 601.641 774.33V779.33C601.646 779.465 601.625 779.599 601.577 779.725C601.529 779.851 601.456 779.966 601.363 780.063C601.269 780.161 601.157 780.238 601.033 780.291C600.909 780.343 600.776 780.37 600.641 780.37V780.33ZM600.641 770.26C600.376 770.26 600.121 770.155 599.934 769.967C599.746 769.78 599.641 769.526 599.641 769.26V764.26C599.641 763.995 599.746 763.741 599.934 763.553C600.121 763.366 600.376 763.26 600.641 763.26C600.906 763.26 601.161 763.366 601.348 763.553C601.536 763.741 601.641 763.995 601.641 764.26V769.26C601.646 769.395 601.625 769.529 601.577 769.655C601.529 769.781 601.456 769.896 601.363 769.993C601.269 770.091 601.157 770.168 601.033 770.221C600.909 770.273 600.776 770.3 600.641 770.3V770.26ZM600.641 760.2C600.376 760.2 600.121 760.095 599.934 759.907C599.746 759.72 599.641 759.466 599.641 759.2V754.2C599.641 753.935 599.746 753.681 599.934 753.493C600.121 753.306 600.376 753.2 600.641 753.2C600.906 753.2 601.161 753.306 601.348 753.493C601.536 753.681 601.641 753.935 601.641 754.2V759.2C601.646 759.335 601.625 759.469 601.577 759.595C601.529 759.721 601.456 759.836 601.363 759.933C601.269 760.031 601.157 760.108 601.033 760.161C600.909 760.213 600.776 760.24 600.641 760.24V760.2ZM600.641 750.13C600.376 750.13 600.121 750.025 599.934 749.837C599.746 749.65 599.641 749.396 599.641 749.13V744.13C599.641 743.865 599.746 743.611 599.934 743.423C600.121 743.236 600.376 743.13 600.641 743.13C600.906 743.13 601.161 743.236 601.348 743.423C601.536 743.611 601.641 743.865 601.641 744.13V749.13C601.646 749.265 601.625 749.399 601.577 749.525C601.529 749.651 601.456 749.766 601.363 749.863C601.269 749.961 601.157 750.038 601.033 750.091C600.909 750.143 600.776 750.17 600.641 750.17V750.13ZM600.641 740.07C600.376 740.07 600.121 739.965 599.934 739.777C599.746 739.59 599.641 739.336 599.641 739.07V734.07C599.641 733.805 599.746 733.551 599.934 733.363C600.121 733.176 600.376 733.07 600.641 733.07C600.906 733.07 601.161 733.176 601.348 733.363C601.536 733.551 601.641 733.805 601.641 734.07V739.07C601.646 739.205 601.625 739.339 601.577 739.465C601.529 739.591 601.456 739.706 601.363 739.803C601.269 739.901 601.157 739.978 601.033 740.031C600.909 740.083 600.776 740.11 600.641 740.11V740.07ZM600.641 730C600.376 730 600.121 729.895 599.934 729.707C599.746 729.52 599.641 729.266 599.641 729V724C599.641 723.735 599.746 723.481 599.934 723.293C600.121 723.106 600.376 723 600.641 723C600.906 723 601.161 723.106 601.348 723.293C601.536 723.481 601.641 723.735 601.641 724V729C601.646 729.135 601.625 729.269 601.577 729.395C601.529 729.521 601.456 729.636 601.363 729.733C601.269 729.831 601.157 729.908 601.033 729.961C600.909 730.013 600.776 730.04 600.641 730.04V730ZM600.641 719.93C600.376 719.93 600.121 719.825 599.934 719.637C599.746 719.45 599.641 719.196 599.641 718.93V713.93C599.641 713.665 599.746 713.411 599.934 713.223C600.121 713.036 600.376 712.93 600.641 712.93C600.906 712.93 601.161 713.036 601.348 713.223C601.536 713.411 601.641 713.665 601.641 713.93V718.93C601.646 719.065 601.625 719.199 601.577 719.325C601.529 719.451 601.456 719.566 601.363 719.663C601.269 719.761 601.157 719.838 601.033 719.891C600.909 719.943 600.776 719.97 600.641 719.97V719.93ZM600.641 709.87C600.376 709.87 600.121 709.765 599.934 709.577C599.746 709.39 599.641 709.136 599.641 708.87V703.87C599.641 703.605 599.746 703.351 599.934 703.163C600.121 702.976 600.376 702.87 600.641 702.87C600.906 702.87 601.161 702.976 601.348 703.163C601.536 703.351 601.641 703.605 601.641 703.87V708.87C601.646 709.005 601.625 709.139 601.577 709.265C601.529 709.391 601.456 709.506 601.363 709.603C601.269 709.701 601.157 709.778 601.033 709.831C600.909 709.883 600.776 709.91 600.641 709.91V709.87ZM600.641 699.8C600.376 699.8 600.121 699.695 599.934 699.507C599.746 699.32 599.641 699.066 599.641 698.8V693.8C599.641 693.535 599.746 693.281 599.934 693.093C600.121 692.906 600.376 692.8 600.641 692.8C600.906 692.8 601.161 692.906 601.348 693.093C601.536 693.281 601.641 693.535 601.641 693.8V698.8C601.646 698.935 601.625 699.069 601.577 699.195C601.529 699.321 601.456 699.436 601.363 699.533C601.269 699.631 601.157 699.708 601.033 699.761C600.909 699.813 600.776 699.84 600.641 699.84V699.8ZM600.641 689.74C600.376 689.74 600.121 689.635 599.934 689.447C599.746 689.26 599.641 689.006 599.641 688.74V683.74C599.641 683.475 599.746 683.221 599.934 683.033C600.121 682.846 600.376 682.74 600.641 682.74C600.906 682.74 601.161 682.846 601.348 683.033C601.536 683.221 601.641 683.475 601.641 683.74V688.74C601.646 688.875 601.625 689.009 601.577 689.135C601.529 689.261 601.456 689.376 601.363 689.473C601.269 689.571 601.157 689.648 601.033 689.701C600.909 689.753 600.776 689.78 600.641 689.78V689.74ZM600.641 679.67C600.376 679.67 600.121 679.565 599.934 679.377C599.746 679.19 599.641 678.936 599.641 678.67V673.67C599.641 673.405 599.746 673.151 599.934 672.963C600.121 672.776 600.376 672.67 600.641 672.67C600.906 672.67 601.161 672.776 601.348 672.963C601.536 673.151 601.641 673.405 601.641 673.67V678.67C601.646 678.805 601.625 678.939 601.577 679.065C601.529 679.191 601.456 679.306 601.363 679.403C601.269 679.501 601.157 679.578 601.033 679.631C600.909 679.683 600.776 679.71 600.641 679.71V679.67ZM600.641 669.6C600.376 669.6 600.121 669.495 599.934 669.307C599.746 669.12 599.641 668.866 599.641 668.6V663.6C599.641 663.335 599.746 663.081 599.934 662.893C600.121 662.706 600.376 662.6 600.641 662.6C600.906 662.6 601.161 662.706 601.348 662.893C601.536 663.081 601.641 663.335 601.641 663.6V668.6C601.646 668.735 601.625 668.869 601.577 668.995C601.529 669.121 601.456 669.236 601.363 669.333C601.269 669.431 601.157 669.508 601.033 669.561C600.909 669.613 600.776 669.64 600.641 669.64V669.6ZM600.641 659.54C600.376 659.54 600.121 659.435 599.934 659.247C599.746 659.06 599.641 658.806 599.641 658.54V653.54C599.641 653.275 599.746 653.021 599.934 652.833C600.121 652.646 600.376 652.54 600.641 652.54C600.906 652.54 601.161 652.646 601.348 652.833C601.536 653.021 601.641 653.275 601.641 653.54V658.54C601.646 658.675 601.625 658.809 601.577 658.935C601.529 659.061 601.456 659.176 601.363 659.273C601.269 659.371 601.157 659.448 601.033 659.501C600.909 659.553 600.776 659.58 600.641 659.58V659.54ZM600.641 649.47C600.376 649.47 600.121 649.365 599.934 649.177C599.746 648.99 599.641 648.736 599.641 648.47V643.47C599.641 643.205 599.746 642.951 599.934 642.763C600.121 642.576 600.376 642.47 600.641 642.47C600.906 642.47 601.161 642.576 601.348 642.763C601.536 642.951 601.641 643.205 601.641 643.47V648.47C601.649 648.607 601.629 648.743 601.583 648.871C601.536 649 601.464 649.117 601.37 649.217C601.277 649.316 601.163 649.395 601.038 649.449C600.913 649.503 600.778 649.531 600.641 649.53V649.47ZM600.641 639.41C600.376 639.41 600.121 639.305 599.934 639.117C599.746 638.93 599.641 638.676 599.641 638.41V633.41C599.641 633.145 599.746 632.891 599.934 632.703C600.121 632.516 600.376 632.41 600.641 632.41C600.906 632.41 601.161 632.516 601.348 632.703C601.536 632.891 601.641 633.145 601.641 633.41V638.41C601.646 638.545 601.625 638.679 601.577 638.805C601.529 638.931 601.456 639.046 601.363 639.143C601.269 639.241 601.157 639.318 601.033 639.371C600.909 639.423 600.776 639.45 600.641 639.45V639.41ZM600.641 629.34C600.376 629.34 600.121 629.235 599.934 629.047C599.746 628.86 599.641 628.606 599.641 628.34V623.34C599.641 623.075 599.746 622.821 599.934 622.633C600.121 622.446 600.376 622.34 600.641 622.34C600.906 622.34 601.161 622.446 601.348 622.633C601.536 622.821 601.641 623.075 601.641 623.34V628.34C601.646 628.475 601.625 628.609 601.577 628.735C601.529 628.861 601.456 628.976 601.363 629.073C601.269 629.171 601.157 629.248 601.033 629.301C600.909 629.353 600.776 629.38 600.641 629.38V629.34ZM600.641 619.28C600.376 619.28 600.121 619.175 599.934 618.987C599.746 618.8 599.641 618.546 599.641 618.28V613.28C599.641 613.015 599.746 612.761 599.934 612.573C600.121 612.386 600.376 612.28 600.641 612.28C600.906 612.28 601.161 612.386 601.348 612.573C601.536 612.761 601.641 613.015 601.641 613.28V618.28C601.646 618.415 601.625 618.549 601.577 618.675C601.529 618.801 601.456 618.916 601.363 619.013C601.269 619.111 601.157 619.188 601.033 619.241C600.909 619.293 600.776 619.32 600.641 619.32V619.28ZM600.641 609.21C600.376 609.21 600.121 609.105 599.934 608.917C599.746 608.73 599.641 608.476 599.641 608.21V603.21C599.641 602.945 599.746 602.691 599.934 602.503C600.121 602.316 600.376 602.21 600.641 602.21C600.906 602.21 601.161 602.316 601.348 602.503C601.536 602.691 601.641 602.945 601.641 603.21V608.21C601.646 608.345 601.625 608.479 601.577 608.605C601.529 608.731 601.456 608.846 601.363 608.943C601.269 609.041 601.157 609.118 601.033 609.171C600.909 609.223 600.776 609.25 600.641 609.25V609.21ZM600.641 599.14C600.376 599.14 600.121 599.035 599.934 598.847C599.746 598.66 599.641 598.406 599.641 598.14V593.14C599.641 592.875 599.746 592.621 599.934 592.433C600.121 592.246 600.376 592.14 600.641 592.14C600.906 592.14 601.161 592.246 601.348 592.433C601.536 592.621 601.641 592.875 601.641 593.14V598.14C601.646 598.275 601.625 598.409 601.577 598.535C601.529 598.661 601.456 598.776 601.363 598.873C601.269 598.971 601.157 599.048 601.033 599.101C600.909 599.153 600.776 599.18 600.641 599.18V599.14ZM600.641 589.08C600.376 589.08 600.121 588.975 599.934 588.787C599.746 588.6 599.641 588.346 599.641 588.08V583.65C599.641 583.46 599.641 583.27 599.641 583.09C599.641 582.834 599.739 582.587 599.916 582.4C600.093 582.214 600.335 582.103 600.591 582.09C600.726 582.084 600.862 582.104 600.989 582.152C601.116 582.199 601.232 582.271 601.331 582.365C601.429 582.458 601.507 582.571 601.56 582.696C601.614 582.82 601.641 582.955 601.641 583.09C601.641 583.31 601.641 583.52 601.641 583.74V588.17C601.628 588.427 601.517 588.668 601.331 588.845C601.145 589.022 600.898 589.121 600.641 589.12V589.08ZM599.481 579.18C599.287 579.182 599.097 579.127 598.933 579.022C598.77 578.917 598.641 578.767 598.561 578.59C597.934 577.165 597.038 575.875 595.921 574.79C595.827 574.697 595.753 574.587 595.702 574.465C595.651 574.343 595.625 574.212 595.625 574.08C595.625 573.948 595.651 573.818 595.702 573.696C595.753 573.574 595.827 573.463 595.921 573.37C596.108 573.184 596.362 573.08 596.626 573.08C596.89 573.08 597.144 573.184 597.331 573.37C598.623 574.634 599.664 576.13 600.401 577.78C600.509 578.022 600.517 578.296 600.424 578.544C600.33 578.791 600.142 578.991 599.901 579.1C599.76 579.177 599.602 579.218 599.441 579.22L599.481 579.18ZM592.481 572.29C592.348 572.292 592.216 572.268 592.091 572.22C590.658 571.603 589.121 571.264 587.561 571.22C587.296 571.22 587.041 571.115 586.854 570.927C586.666 570.74 586.561 570.486 586.561 570.22C586.561 569.955 586.666 569.701 586.854 569.513C587.041 569.326 587.296 569.22 587.561 569.22C589.369 569.267 591.153 569.65 592.821 570.35C593.065 570.454 593.258 570.65 593.357 570.896C593.456 571.141 593.454 571.416 593.351 571.66C593.285 571.851 593.162 572.017 593 572.136C592.837 572.256 592.643 572.323 592.441 572.33L592.481 572.29ZM582.561 571.29H577.561C577.296 571.29 577.041 571.185 576.854 570.997C576.666 570.81 576.561 570.556 576.561 570.29C576.561 570.025 576.666 569.771 576.854 569.583C577.041 569.396 577.296 569.29 577.561 569.29H582.561C582.826 569.29 583.081 569.396 583.268 569.583C583.456 569.771 583.561 570.025 583.561 570.29C583.561 570.556 583.456 570.81 583.268 570.997C583.081 571.185 582.826 571.29 582.561 571.29ZM572.491 571.29H567.491C567.226 571.29 566.971 571.185 566.784 570.997C566.596 570.81 566.491 570.556 566.491 570.29C566.491 570.025 566.596 569.771 566.784 569.583C566.971 569.396 567.226 569.29 567.491 569.29H572.491C572.756 569.29 573.011 569.396 573.198 569.583C573.386 569.771 573.491 570.025 573.491 570.29C573.491 570.556 573.386 570.81 573.198 570.997C573.011 571.185 572.756 571.29 572.491 571.29ZM562.431 571.29H557.431C557.166 571.29 556.911 571.185 556.724 570.997C556.536 570.81 556.431 570.556 556.431 570.29C556.431 570.025 556.536 569.771 556.724 569.583C556.911 569.396 557.166 569.29 557.431 569.29H562.431C562.696 569.29 562.951 569.396 563.138 569.583C563.326 569.771 563.431 570.025 563.431 570.29C563.431 570.556 563.326 570.81 563.138 570.997C562.951 571.185 562.696 571.29 562.431 571.29ZM552.361 571.29H547.361C547.096 571.29 546.841 571.185 546.654 570.997C546.466 570.81 546.361 570.556 546.361 570.29C546.361 570.025 546.466 569.771 546.654 569.583C546.841 569.396 547.096 569.29 547.361 569.29H552.361C552.626 569.29 552.881 569.396 553.068 569.583C553.256 569.771 553.361 570.025 553.361 570.29C553.361 570.556 553.256 570.81 553.068 570.997C552.881 571.185 552.626 571.29 552.361 571.29ZM542.291 571.29H537.291C537.026 571.29 536.771 571.185 536.584 570.997C536.396 570.81 536.291 570.556 536.291 570.29C536.291 570.025 536.396 569.771 536.584 569.583C536.771 569.396 537.026 569.29 537.291 569.29H542.291C542.556 569.29 542.811 569.396 542.998 569.583C543.186 569.771 543.291 570.025 543.291 570.29C543.291 570.556 543.186 570.81 542.998 570.997C542.811 571.185 542.556 571.29 542.291 571.29ZM532.231 571.29H527.231C526.966 571.29 526.711 571.185 526.524 570.997C526.336 570.81 526.231 570.556 526.231 570.29C526.231 570.025 526.336 569.771 526.524 569.583C526.711 569.396 526.966 569.29 527.231 569.29H532.231C532.496 569.29 532.751 569.396 532.938 569.583C533.126 569.771 533.231 570.025 533.231 570.29C533.231 570.556 533.126 570.81 532.938 570.997C532.751 571.185 532.496 571.29 532.231 571.29ZM522.161 571.29H517.161C516.896 571.29 516.641 571.185 516.454 570.997C516.266 570.81 516.161 570.556 516.161 570.29C516.161 570.025 516.266 569.771 516.454 569.583C516.641 569.396 516.896 569.29 517.161 569.29H522.161C522.426 569.29 522.681 569.396 522.868 569.583C523.056 569.771 523.161 570.025 523.161 570.29C523.161 570.556 523.056 570.81 522.868 570.997C522.681 571.185 522.426 571.29 522.161 571.29ZM512.101 571.29H507.101C506.836 571.29 506.581 571.185 506.394 570.997C506.206 570.81 506.101 570.556 506.101 570.29C506.101 570.025 506.206 569.771 506.394 569.583C506.581 569.396 506.836 569.29 507.101 569.29H512.101C512.366 569.29 512.621 569.396 512.808 569.583C512.996 569.771 513.101 570.025 513.101 570.29C513.101 570.556 512.996 570.81 512.808 570.997C512.621 571.185 512.366 571.29 512.101 571.29ZM502.031 571.29H497.031C496.766 571.29 496.511 571.185 496.324 570.997C496.136 570.81 496.031 570.556 496.031 570.29C496.031 570.025 496.136 569.771 496.324 569.583C496.511 569.396 496.766 569.29 497.031 569.29H502.031C502.296 569.29 502.551 569.396 502.738 569.583C502.926 569.771 503.031 570.025 503.031 570.29C503.031 570.556 502.926 570.81 502.738 570.997C502.551 571.185 502.296 571.29 502.031 571.29ZM491.961 571.29H486.961C486.696 571.29 486.441 571.185 486.254 570.997C486.066 570.81 485.961 570.556 485.961 570.29C485.961 570.025 486.066 569.771 486.254 569.583C486.441 569.396 486.696 569.29 486.961 569.29H491.961C492.226 569.29 492.481 569.396 492.668 569.583C492.856 569.771 492.961 570.025 492.961 570.29C492.961 570.556 492.856 570.81 492.668 570.997C492.481 571.185 492.226 571.29 491.961 571.29ZM481.901 571.29H476.901C476.636 571.29 476.381 571.185 476.194 570.997C476.006 570.81 475.901 570.556 475.901 570.29C475.901 570.025 476.006 569.771 476.194 569.583C476.381 569.396 476.636 569.29 476.901 569.29H481.901C482.166 569.29 482.421 569.396 482.608 569.583C482.796 569.771 482.901 570.025 482.901 570.29C482.901 570.556 482.796 570.81 482.608 570.997C482.421 571.185 482.166 571.29 481.901 571.29ZM471.831 571.29H466.831C466.566 571.29 466.311 571.185 466.124 570.997C465.936 570.81 465.831 570.556 465.831 570.29C465.831 570.025 465.936 569.771 466.124 569.583C466.311 569.396 466.566 569.29 466.831 569.29H471.831C472.096 569.29 472.351 569.396 472.538 569.583C472.726 569.771 472.831 570.025 472.831 570.29C472.831 570.556 472.726 570.81 472.538 570.997C472.351 571.185 472.096 571.29 471.831 571.29ZM461.831 570.93C461.755 570.941 461.677 570.941 461.601 570.93C459.841 570.521 458.175 569.781 456.691 568.75C456.472 568.599 456.322 568.367 456.275 568.106C456.227 567.844 456.285 567.574 456.436 567.355C456.587 567.137 456.819 566.987 457.081 566.939C457.342 566.891 457.612 566.949 457.831 567.1C459.105 567.993 460.537 568.634 462.051 568.99C462.316 569.02 462.559 569.153 462.726 569.361C462.893 569.569 462.97 569.835 462.941 570.1C462.912 570.366 462.778 570.608 462.57 570.775C462.362 570.942 462.096 571.02 461.831 570.99V570.93ZM453.751 565.33C453.586 565.329 453.424 565.288 453.28 565.209C453.135 565.131 453.012 565.018 452.921 564.88C451.912 563.379 451.199 561.699 450.821 559.93C450.782 559.798 450.771 559.66 450.789 559.524C450.806 559.387 450.851 559.256 450.921 559.138C450.992 559.02 451.086 558.917 451.197 558.837C451.309 558.757 451.436 558.701 451.57 558.672C451.705 558.643 451.843 558.642 451.978 558.669C452.113 558.696 452.241 558.751 452.353 558.829C452.466 558.908 452.561 559.009 452.633 559.126C452.705 559.244 452.752 559.374 452.771 559.51C453.099 561.032 453.713 562.478 454.581 563.77C454.655 563.879 454.706 564.002 454.733 564.131C454.759 564.259 454.759 564.392 454.734 564.521C454.709 564.65 454.659 564.773 454.586 564.883C454.514 564.993 454.42 565.087 454.311 565.16C454.13 565.278 453.916 565.334 453.701 565.32L453.751 565.33ZM451.441 555.7C451.176 555.7 450.921 555.595 450.734 555.407C450.546 555.22 450.441 554.966 450.441 554.7V549.7C450.441 549.435 450.546 549.181 450.734 548.993C450.921 548.806 451.176 548.7 451.441 548.7C451.706 548.7 451.961 548.806 452.148 548.993C452.336 549.181 452.441 549.435 452.441 549.7V554.7C452.441 554.966 452.336 555.22 452.148 555.407C451.961 555.595 451.706 555.7 451.441 555.7ZM451.441 545.64C451.176 545.64 450.921 545.535 450.734 545.347C450.546 545.16 450.441 544.906 450.441 544.64V539.64C450.441 539.375 450.546 539.121 450.734 538.933C450.921 538.746 451.176 538.64 451.441 538.64C451.706 538.64 451.961 538.746 452.148 538.933C452.336 539.121 452.441 539.375 452.441 539.64V544.64C452.441 544.906 452.336 545.16 452.148 545.347C451.961 545.535 451.706 545.64 451.441 545.64Z" fill="#3F4249"/>
<path d="M600.64 818.131C600.375 818.131 600.121 818.025 599.933 817.838C599.746 817.65 599.64 817.396 599.64 817.131V814.631C599.64 814.365 599.746 814.111 599.933 813.923C600.121 813.736 600.375 813.631 600.64 813.631C600.905 813.631 601.16 813.736 601.347 813.923C601.535 814.111 601.64 814.365 601.64 814.631V817.131C601.64 817.396 601.535 817.65 601.347 817.838C601.16 818.025 600.905 818.131 600.64 818.131Z" fill="#3F4249"/>
<path d="M451.438 538.449C454.962 538.449 457.818 535.593 457.818 532.069C457.818 528.546 454.962 525.689 451.438 525.689C447.915 525.689 445.058 528.546 445.058 532.069C445.058 535.593 447.915 538.449 451.438 538.449Z" fill="#3F4249"/>
<path d="M625.44 777.939H575.85C560.143 777.939 547.41 790.672 547.41 806.379V855.969C547.41 871.676 560.143 884.409 575.85 884.409H625.44C641.147 884.409 653.88 871.676 653.88 855.969V806.379C653.88 790.672 641.147 777.939 625.44 777.939Z" fill="#3F4249"/>
<path d="M599.052 855.34V851.75C599.053 851.45 598.942 851.161 598.74 850.939C598.538 850.716 598.261 850.578 597.962 850.55C594.993 850.333 592.084 849.605 589.362 848.4C589.113 848.28 588.914 848.076 588.799 847.824C588.684 847.572 588.66 847.288 588.732 847.02L589.982 842.12C590.027 841.949 590.109 841.79 590.222 841.654C590.335 841.518 590.477 841.408 590.637 841.333C590.797 841.258 590.972 841.218 591.149 841.218C591.326 841.217 591.501 841.256 591.662 841.33C594.48 842.657 597.548 843.366 600.662 843.41C604.212 843.41 606.662 842.01 606.662 839.56C606.662 837.11 604.662 835.72 600.042 834.17C593.392 831.92 588.862 828.8 588.862 822.79C588.862 817.54 592.352 813.39 598.472 811.91C598.729 811.844 598.957 811.694 599.12 811.484C599.283 811.274 599.371 811.016 599.372 810.75V807C599.372 806.682 599.498 806.377 599.723 806.152C599.948 805.927 600.254 805.8 600.572 805.8H604.282C604.439 805.8 604.595 805.831 604.741 805.892C604.887 805.952 605.019 806.04 605.13 806.152C605.242 806.263 605.33 806.396 605.391 806.541C605.451 806.687 605.482 806.843 605.482 807V810.16C605.484 810.462 605.599 810.752 605.804 810.972C606.01 811.193 606.291 811.328 606.592 811.35C608.974 811.497 611.316 812.024 613.532 812.91C613.8 813.02 614.019 813.224 614.148 813.483C614.277 813.743 614.307 814.04 614.232 814.32L613.002 818.99C612.957 819.156 612.877 819.31 612.767 819.443C612.658 819.575 612.522 819.683 612.368 819.759C612.213 819.834 612.045 819.876 611.873 819.882C611.701 819.887 611.531 819.856 611.372 819.79C608.953 818.737 606.341 818.199 603.702 818.21C599.702 818.21 598.392 819.99 598.392 821.72C598.392 823.72 600.552 825.09 605.832 827.04C613.242 829.64 616.192 833.04 616.192 838.71C616.192 844 612.642 848.51 606.082 849.97C605.819 850.033 605.586 850.183 605.419 850.396C605.252 850.608 605.161 850.87 605.162 851.14V855.34C605.162 855.498 605.131 855.654 605.071 855.8C605.01 855.945 604.922 856.078 604.81 856.189C604.699 856.3 604.567 856.389 604.421 856.449C604.276 856.509 604.119 856.54 603.962 856.54H600.252C600.094 856.54 599.938 856.509 599.793 856.449C599.647 856.389 599.515 856.3 599.403 856.189C599.292 856.078 599.204 855.945 599.143 855.8C599.083 855.654 599.052 855.498 599.052 855.34Z" fill="white"/>
</svg>
