<svg width="1098" height="837" viewBox="0 0 1098 837" fill="none" xmlns="http://www.w3.org/2000/svg">
<path d="M926.12 120.6L778.55 165.91L820.64 205.05L680.5 361.26L627.34 306.96L617.38 296.77L607.56 306.39L393.72 515.82L322.69 440.62L318.08 435.74L313.47 440.29L56.8201 693.16L317.42 454.19L387.22 533.61L392.82 539.98L399.3 534.06L616.25 336.33L669.61 394.9L680.67 407.04L692.46 394.82L849.52 231.91L891.61 271.06L926.12 120.6Z" fill="#3F4249"/>
<path d="M618 519.87H604C604.682 519.873 605.356 520.01 605.985 520.273C606.613 520.536 607.184 520.921 607.664 521.404C608.144 521.888 608.524 522.462 608.783 523.092C609.041 523.723 609.173 524.399 609.17 525.08V830.54C609.173 831.22 609.041 831.9 608.783 832.53C608.524 833.16 608.144 833.73 607.664 834.22C607.184 834.7 606.613 835.08 605.985 835.35C605.356 835.61 604.682 835.75 604 835.75H618C618.682 835.75 619.356 835.61 619.985 835.35C620.613 835.08 621.184 834.7 621.664 834.22C622.144 833.73 622.524 833.16 622.783 832.53C623.041 831.9 623.173 831.22 623.17 830.54V525.08C623.173 524.399 623.041 523.723 622.783 523.092C622.524 522.462 622.144 521.888 621.664 521.404C621.184 520.921 620.613 520.536 619.985 520.273C619.356 520.01 618.682 519.873 618 519.87Z" fill="#A4A4A4"/>
<path opacity="0.3" d="M618 519.87H604C604.682 519.873 605.356 520.01 605.985 520.273C606.613 520.536 607.184 520.921 607.664 521.404C608.144 521.888 608.524 522.462 608.783 523.092C609.041 523.723 609.173 524.399 609.17 525.08V830.54C609.173 831.22 609.041 831.9 608.783 832.53C608.524 833.16 608.144 833.73 607.664 834.22C607.184 834.7 606.613 835.08 605.985 835.35C605.356 835.61 604.682 835.75 604 835.75H618C618.682 835.75 619.356 835.61 619.985 835.35C620.613 835.08 621.184 834.7 621.664 834.22C622.144 833.73 622.524 833.16 622.783 832.53C623.041 831.9 623.173 831.22 623.17 830.54V525.08C623.173 524.399 623.041 523.723 622.783 523.092C622.524 522.462 622.144 521.888 621.664 521.404C621.184 520.921 620.613 520.536 619.985 520.273C619.356 520.01 618.682 519.873 618 519.87Z" fill="black"/>
<path d="M484.34 519.87H604C604.681 519.873 605.356 520.01 605.984 520.273C606.613 520.536 607.184 520.921 607.664 521.404C608.144 521.888 608.524 522.462 608.782 523.092C609.041 523.723 609.172 524.399 609.17 525.08V830.54C609.172 831.22 609.041 831.9 608.782 832.53C608.524 833.16 608.144 833.73 607.664 834.22C607.184 834.7 606.613 835.08 605.984 835.35C605.356 835.61 604.681 835.75 604 835.75H484.34C483.659 835.75 482.985 835.61 482.357 835.35C481.729 835.08 481.159 834.7 480.679 834.22C480.2 833.73 479.821 833.16 479.564 832.53C479.306 831.9 479.176 831.22 479.18 830.54V525.08C479.176 524.399 479.306 523.724 479.564 523.093C479.821 522.463 480.2 521.889 480.679 521.405C481.159 520.921 481.729 520.536 482.357 520.273C482.985 520.01 483.659 519.873 484.34 519.87Z" fill="#A4A4A4"/>
<path d="M776 416.47H762C764.85 416.47 767.17 419.57 767.17 423.39V828.84C767.17 832.66 764.85 835.75 762 835.75H776C778.85 835.75 781.17 832.66 781.17 828.84V423.39C781.18 419.57 778.86 416.47 776 416.47Z" fill="#A4A4A4"/>
<path opacity="0.3" d="M776 416.47H762C764.85 416.47 767.17 419.57 767.17 423.39V828.84C767.17 832.66 764.85 835.75 762 835.75H776C778.85 835.75 781.17 832.66 781.17 828.84V423.39C781.18 419.57 778.86 416.47 776 416.47Z" fill="black"/>
<path d="M642.34 416.47H762C764.85 416.47 767.17 419.57 767.17 423.39V828.84C767.17 832.66 764.85 835.75 762 835.75H642.34C639.49 835.75 637.18 832.66 637.18 828.84V423.39C637.18 419.57 639.49 416.47 642.34 416.47Z" fill="#A4A4A4"/>
<path d="M934.1 311.41H920.1C922.95 311.41 925.27 315.29 925.27 320.06V827.06C925.27 831.84 922.95 835.71 920.1 835.71H934.1C936.95 835.71 939.27 831.84 939.27 827.06V320.06C939.27 315.29 937 311.41 934.1 311.41Z" fill="#A4A4A4"/>
<path opacity="0.3" d="M934.1 311.41H920.1C922.95 311.41 925.27 315.29 925.27 320.06V827.06C925.27 831.84 922.95 835.71 920.1 835.71H934.1C936.95 835.71 939.27 831.84 939.27 827.06V320.06C939.27 315.29 937 311.41 934.1 311.41Z" fill="black"/>
<path d="M800.43 311.41H920.1C922.95 311.41 925.27 315.29 925.27 320.06V827.06C925.27 831.84 922.95 835.71 920.1 835.71H800.43C797.58 835.71 795.27 831.84 795.27 827.06V320.06C795.27 315.29 797.58 311.41 800.43 311.41Z" fill="#A4A4A4"/>
<path d="M1092 145.84H1078C1080.85 145.84 1083.16 150.94 1083.16 157.23V825.13C1083.16 831.43 1080.85 836.53 1078 836.53H1092C1094.85 836.53 1097.16 831.43 1097.16 825.13V157.23C1097.13 150.94 1094.82 145.84 1092 145.84Z" fill="#A4A4A4"/>
<path opacity="0.3" d="M1092 145.84H1078C1080.85 145.84 1083.16 150.94 1083.16 157.23V825.13C1083.16 831.43 1080.85 836.53 1078 836.53H1092C1094.85 836.53 1097.16 831.43 1097.16 825.13V157.23C1097.13 150.94 1094.82 145.84 1092 145.84Z" fill="black"/>
<path d="M958.3 145.84H1078C1080.85 145.84 1083.16 150.94 1083.16 157.23V825.13C1083.16 831.43 1080.85 836.53 1078 836.53H958.3C955.45 836.53 953.13 831.43 953.13 825.13V157.23C953.13 150.94 955.45 145.84 958.3 145.84Z" fill="#A4A4A4"/>
<path d="M526.229 783.3L527.459 818.89L500.729 835.65L500.359 791.68L526.229 783.3Z" fill="white"/>
<path d="M498.17 835.77L527.33 815.27C529.71 815.54 531.73 818.67 529.68 819.88L507.08 835.77H498.17Z" fill="#65676B"/>
<path d="M502.091 792.91H315.951V835.77H502.091V792.91Z" fill="#858990"/>
<path d="M316 792.91L346.17 779.359L530.98 780.789C531.249 780.794 531.508 780.891 531.714 781.064C531.919 781.237 532.059 781.476 532.11 781.74C532.16 782.004 532.118 782.277 531.991 782.514C531.863 782.75 531.658 782.936 531.41 783.039L502.13 794.88L316 796.36V792.91Z" fill="#65676B"/>
<path d="M451.031 802.5H325.891V827.88H451.031V802.5Z" fill="white"/>
<path d="M475.52 823.43C480.54 823.43 484.61 819.36 484.61 814.34C484.61 809.32 480.54 805.25 475.52 805.25C470.499 805.25 466.43 809.32 466.43 814.34C466.43 819.36 470.499 823.43 475.52 823.43Z" fill="#3F4249" stroke="#B1B5BA" stroke-miterlimit="10"/>
<path opacity="0.2" d="M502.08 803.54L526.35 786.93V785.07L502.08 794.88V803.54Z" fill="black"/>
<path d="M527.49 770.01L523.26 772.66L527.25 775.31H498.4V770.01H527.49Z" fill="black"/>
<path d="M520.88 757.609L517.37 760.149L520.43 763.029H486.4V757.609H520.88Z" fill="black"/>
<path d="M506.65 744.84H320.57V788.15H506.65V744.84Z" fill="#DBDBDB"/>
<path d="M442.899 755.67H335.189V777.86H442.899V755.67Z" fill="white"/>
<path d="M478.811 776.789C483.831 776.789 487.901 772.72 487.901 767.699C487.901 762.679 483.831 758.609 478.811 758.609C473.79 758.609 469.721 762.679 469.721 767.699C469.721 772.72 473.79 776.789 478.811 776.789Z" stroke="#858990" stroke-miterlimit="10"/>
<path d="M506.681 714.63H315.951V745.05H506.681V714.63Z" fill="#B1B5BA"/>
<path d="M484.611 721.439H480.311V739.409H484.611V721.439Z" fill="white"/>
<path d="M361.59 719.39V725.1H361.91C362.544 725.026 363.187 725.088 363.796 725.281C364.405 725.473 364.967 725.792 365.444 726.217C365.921 726.642 366.302 727.163 366.564 727.746C366.825 728.329 366.96 728.961 366.96 729.6C366.96 730.238 366.825 730.87 366.564 731.453C366.302 732.036 365.921 732.557 365.444 732.982C364.967 733.407 364.405 733.726 363.796 733.919C363.187 734.111 362.544 734.173 361.91 734.1H361.59V739.45H399.32V719.45L361.59 719.39Z" fill="white"/>
<path d="M346.12 724.14H343.82V737.16H346.12V724.14Z" fill="white" stroke="black" stroke-miterlimit="10"/>
<path d="M351.941 724.14H349.641V737.16H351.941V724.14Z" fill="white" stroke="black" stroke-miterlimit="10"/>
<path d="M359.659 724.14H357.359V737.16H359.659V724.14Z" fill="white" stroke="black" stroke-miterlimit="10"/>
<path d="M509.401 677.989H323.131V714.629H509.401V677.989Z" fill="#858990"/>
<path d="M442.901 683.399H335.701V704.869H442.901V683.399Z" fill="white"/>
<path d="M497.23 636.5H311.15V679.81H497.23V636.5Z" fill="#3F4249"/>
<path d="M440.16 643.46H324.66V673.4H440.16V643.46Z" fill="white"/>
<path d="M475.52 667.99C480.54 667.99 484.61 663.92 484.61 658.9C484.61 653.879 480.54 649.81 475.52 649.81C470.499 649.81 466.43 653.879 466.43 658.9C466.43 663.92 470.499 667.99 475.52 667.99Z" fill="#3F4249" stroke="#B1B5BA" stroke-miterlimit="10"/>
<path d="M479.18 703.23C484.2 703.23 488.27 699.16 488.27 694.14C488.27 689.12 484.2 685.05 479.18 685.05C474.16 685.05 470.09 689.12 470.09 694.14C470.09 699.16 474.16 703.23 479.18 703.23Z" fill="#3F4249" stroke="#B1B5BA" stroke-miterlimit="10"/>
<path d="M502.031 593.189H315.951V636.499H502.031V593.189Z" fill="#B1B5BA"/>
<path d="M474.19 628.44C479.21 628.44 483.28 624.37 483.28 619.35C483.28 614.329 479.21 610.26 474.19 610.26C469.169 610.26 465.1 614.329 465.1 619.35C465.1 624.37 469.169 628.44 474.19 628.44Z" fill="#3F4249" stroke="#858990" stroke-miterlimit="10"/>
<path d="M359.57 604V610.66C360.868 611.225 361.972 612.157 362.748 613.341C363.524 614.525 363.937 615.91 363.937 617.325C363.937 618.74 363.524 620.125 362.748 621.309C361.972 622.493 360.868 623.425 359.57 623.99V630.09H396.14V604H359.57Z" fill="white"/>
<path d="M495.91 566.5H311.15V593.19H495.91V566.5Z" fill="#D8DBDD"/>
<path d="M340.099 551.809L316.609 546.319H475.519L524.799 563.089C524.88 563.121 524.949 563.176 524.997 563.247C525.046 563.319 525.072 563.403 525.072 563.489C525.072 563.576 525.046 563.66 524.997 563.731C524.949 563.803 524.88 563.858 524.799 563.889L504.149 572.999L340.099 551.809Z" fill="#65676B"/>
<path d="M502.809 566.259H316.609C318.509 563.029 318.899 559.259 316.609 554.649H502.809C501.431 558.397 501.431 562.512 502.809 566.259Z" fill="#D8DBDD"/>
<path opacity="0.5" d="M506.11 568.07H319.91C321.81 565.97 322.19 563.53 319.91 560.5H506.11C504 560.5 504 568.07 506.11 568.07Z" fill="#B1B5BA"/>
<path d="M316.609 515.15V546.32H475.509V506.14L316.609 515.15Z" fill="#858990"/>
<path d="M323.051 519.86V542.2L424.381 541.42V513L323.051 519.86Z" fill="white"/>
<path d="M449.74 534.48C454.555 534.48 458.46 530.576 458.46 525.76C458.46 520.944 454.555 517.04 449.74 517.04C444.924 517.04 441.02 520.944 441.02 525.76C441.02 530.576 444.924 534.48 449.74 534.48Z" fill="#3F4249" stroke="#B1B5BA" stroke-miterlimit="10"/>
<path d="M475.51 506.14V508.88L512.97 531.81V527.64L475.51 506.14Z" fill="#65676B"/>
<path d="M476.51 532.789L513 552.389L548.28 534.689L516.28 521.619C516.28 521.619 496.75 534.059 476.51 532.789Z" fill="white"/>
<path d="M475.51 542.199L522.18 557.289L496.64 546.319L475.51 542.199Z" fill="white"/>
<path d="M453.5 619.239L522.35 654.809L601.35 624.679L551.55 593.189C551.55 593.189 529.18 648.819 453.5 619.239Z" fill="white"/>
<path opacity="0.2" d="M393.121 568.27C393.121 568.27 432.021 583.62 468.351 618.68L487.001 605.159C446.231 577.729 393.121 568.27 393.121 568.27Z" fill="black"/>
<path d="M551.201 568.27H393.121C393.121 568.27 458.421 579.89 499.741 614.76L551.201 568.27Z" fill="white"/>
<path opacity="0.2" d="M501.401 737.16C498.627 725.35 496.675 713.361 495.561 701.28C491.159 695.054 487.683 688.223 485.241 681C484.991 704.29 487.001 727.38 492.401 750.17L506.671 754.62V738.86L501.401 737.16Z" fill="black"/>
<path d="M494.241 668C493.991 691.29 496.001 714.38 501.401 737.17L571.671 758.62V713.3C571.671 713.3 514.301 725.71 494.241 668Z" fill="white"/>
<path d="M445.052 310.308C462.813 292.547 462.813 263.75 445.052 245.989C427.291 228.228 398.495 228.228 380.733 245.989C362.972 263.75 362.972 292.547 380.733 310.308C398.494 328.069 427.291 328.069 445.052 310.308Z" fill="#A4A4A4"/>
<path opacity="0.2" d="M445.052 310.308C462.813 292.547 462.813 263.75 445.052 245.989C427.291 228.228 398.495 228.228 380.733 245.989C362.972 263.75 362.972 292.547 380.733 310.308C398.494 328.069 427.291 328.069 445.052 310.308Z" fill="black"/>
<path d="M427.027 320.804C449.455 309.495 458.468 282.145 447.159 259.717C435.849 237.29 408.5 228.276 386.072 239.586C363.644 250.895 354.631 278.245 365.94 300.673C377.25 323.1 404.599 332.114 427.027 320.804Z" fill="#A4A4A4"/>
<path d="M435.615 302.129C447.776 286.066 444.613 263.186 428.551 251.024C412.488 238.863 389.607 242.026 377.446 258.089C365.285 274.151 368.447 297.032 384.51 309.193C400.573 321.355 423.453 318.192 435.615 302.129Z" fill="#A4A4A4"/>
<path opacity="0.5" d="M435.615 302.129C447.776 286.066 444.613 263.186 428.551 251.024C412.488 238.863 389.607 242.026 377.446 258.089C365.285 274.151 368.447 297.032 384.51 309.193C400.573 321.355 423.453 318.192 435.615 302.129Z" fill="black"/>
<path d="M375.001 292.361C372.992 286.054 372.737 279.32 374.262 272.88C375.787 266.439 379.035 260.535 383.658 255.798C388.281 251.062 394.105 247.672 400.507 245.992C406.909 244.312 413.647 244.405 420.001 246.261C415.545 244.502 410.788 243.639 405.999 243.719C401.21 243.799 396.484 244.822 392.09 246.729C387.696 248.636 383.722 251.389 380.392 254.832C377.063 258.276 374.444 262.341 372.686 266.796C370.927 271.251 370.063 276.009 370.144 280.798C370.224 285.586 371.247 290.313 373.154 294.706C375.061 299.1 377.814 303.075 381.257 306.404C384.7 309.734 388.765 312.352 393.221 314.111C384.589 309.457 378.069 301.674 375.001 292.361Z" fill="#A4A4A4"/>
<path opacity="0.5" d="M375.001 292.361C372.992 286.054 372.737 279.32 374.262 272.88C375.787 266.439 379.035 260.535 383.658 255.798C388.281 251.062 394.105 247.672 400.507 245.992C406.909 244.312 413.647 244.405 420.001 246.261C415.545 244.502 410.788 243.639 405.999 243.719C401.21 243.799 396.484 244.822 392.09 246.729C387.696 248.636 383.722 251.389 380.392 254.832C377.063 258.276 374.444 262.341 372.686 266.796C370.927 271.251 370.063 276.009 370.144 280.798C370.224 285.586 371.247 290.313 373.154 294.706C375.061 299.1 377.814 303.075 381.257 306.404C384.7 309.734 388.765 312.352 393.221 314.111C384.589 309.457 378.069 301.674 375.001 292.361Z" fill="black"/>
<path d="M412.111 304.91L410.521 299.91C404.801 301.45 401.371 300.43 399.211 293.64C398.736 292.184 398.379 290.693 398.141 289.18L405.251 286.92C405.377 287.596 405.544 288.264 405.751 288.92C406.691 291.87 407.421 293.47 410.301 292.55C413.181 291.63 413.111 290.55 411.901 286.75C411.311 284.9 411.111 284.26 409.801 283.69C407.051 282.37 401.371 282.69 398.301 281.69C395.571 280.86 394.371 278.85 392.471 272.9C390.291 266.05 391.601 263.09 398.031 260.69L396.771 256.69L400.771 255.41L402.031 259.41C408.131 257.75 410.921 259.19 412.861 265.27C413.285 266.579 413.619 267.916 413.861 269.27L406.861 271.51C406.69 270.769 406.48 270.038 406.231 269.32C405.381 266.63 404.561 265.4 401.871 266.26C399.571 267 399.171 267.97 400.201 271.17C401.231 274.37 401.551 274.76 404.031 275.02C406.751 275.36 409.281 275.33 411.631 275.63C414.961 276.13 417.091 276.15 419.191 282.75C422.191 292.03 421.441 295.75 414.561 298.54L416.171 303.54L412.111 304.91Z" fill="white"/>
<path d="M665.691 154.966C707.306 147.231 734.77 107.225 727.03 65.611C719.3 23.997 679.294 -3.46804 637.679 4.26696C596.065 12.003 568.601 52.0079 576.336 93.6229C584.071 135.237 624.077 162.701 665.691 154.966Z" fill="#A4A4A4"/>
<path opacity="0.2" d="M665.691 154.966C707.306 147.231 734.77 107.225 727.03 65.611C719.3 23.997 679.294 -3.46804 637.679 4.26696C596.065 12.003 568.601 52.0079 576.336 93.6229C584.071 135.237 624.077 162.701 665.691 154.966Z" fill="black"/>
<path d="M717.177 82.555C720.23 40.338 688.486 3.63703 646.27 0.582033C604.053 -2.47397 567.352 29.272 564.297 71.489C561.241 113.705 592.987 150.406 635.204 153.462C677.42 156.517 714.121 124.771 717.177 82.555Z" fill="#A4A4A4"/>
<path d="M663.766 134.07C695.252 121.374 710.484 85.558 697.789 54.073C685.093 22.587 649.277 7.35405 617.791 20.05C586.306 32.745 571.073 68.561 583.769 100.047C596.464 131.533 632.28 146.765 663.766 134.07Z" fill="#A4A4A4"/>
<path opacity="0.5" d="M663.766 134.07C695.252 121.374 710.484 85.558 697.789 54.073C685.093 22.587 649.277 7.35405 617.791 20.05C586.306 32.745 571.073 68.561 583.769 100.047C596.464 131.533 632.28 146.765 663.766 134.07Z" fill="black"/>
<path d="M584.621 67.3699C587.169 56.5159 592.622 46.56 600.395 38.567C608.168 30.575 617.969 24.8479 628.748 21.9989C639.527 19.1489 650.878 19.2859 661.585 22.3939C672.292 25.5009 681.952 31.463 689.531 39.64C684.612 33.242 678.481 27.875 671.489 23.847C664.496 19.818 656.778 17.206 648.776 16.16C640.774 15.114 632.644 15.654 624.851 17.75C617.058 19.846 609.754 23.456 603.356 28.375C596.958 33.294 591.591 39.4239 587.563 46.4169C583.534 53.4099 580.922 61.1269 579.876 69.1289C578.83 77.1319 579.37 85.2609 581.466 93.0549C583.562 100.848 587.172 108.152 592.091 114.55C583.65 100.361 580.976 83.4729 584.621 67.3699Z" fill="#A4A4A4"/>
<path opacity="0.5" d="M584.621 67.3699C587.169 56.5159 592.622 46.56 600.395 38.567C608.168 30.575 617.969 24.8479 628.748 21.9989C639.527 19.1489 650.878 19.2859 661.585 22.3939C672.292 25.5009 681.952 31.463 689.531 39.64C684.612 33.242 678.481 27.875 671.489 23.847C664.496 19.818 656.778 17.206 648.776 16.16C640.774 15.114 632.644 15.654 624.851 17.75C617.058 19.846 609.754 23.456 603.356 28.375C596.958 33.294 591.591 39.4239 587.563 46.4169C583.534 53.4099 580.922 61.1269 579.876 69.1289C578.83 77.1319 579.37 85.2609 581.466 93.0549C583.562 100.848 587.172 108.152 592.091 114.55C583.65 100.361 580.976 83.4729 584.621 67.3699Z" fill="black"/>
<path d="M627.41 117.62L629.41 109.03C619.82 106.31 615.74 101.87 618.49 90.18C619.063 87.669 619.836 85.208 620.8 82.82L633.04 85.69C632.634 86.791 632.3 87.916 632.04 89.06C630.85 94.13 630.51 97.06 635.47 98.24C640.43 99.42 641.29 97.74 642.82 91.24C643.57 88.04 643.82 86.94 642.42 84.98C639.59 80.71 631.09 76.27 627.52 72.17C624.28 68.62 624.28 64.67 626.69 54.42C629.46 42.62 633.92 39.48 645.3 41.57L646.9 34.75L653.84 36.38L652.24 43.21C662.5 46.08 665.24 50.57 662.82 61.05C662.306 63.3 661.638 65.512 660.82 67.67L648.69 64.82C649.096 63.597 649.43 62.352 649.69 61.09C650.78 56.47 650.69 53.99 646.04 52.91C642.04 51.97 640.66 53.04 639.36 58.55C638.01 64.28 638.21 64.91 641.57 67.44C645.21 70.28 648.89 72.44 652.03 74.9C656.42 78.49 659.47 80.37 656.8 91.73C653.05 107.73 648.8 112.52 636.44 110.55L634.44 119.25L627.41 117.62Z" fill="white"/>
<path d="M292.757 157.316C316.279 133.794 316.279 95.659 292.757 72.138C269.236 48.616 231.101 48.616 207.579 72.138C184.058 95.659 184.058 133.794 207.579 157.316C231.101 180.837 269.236 180.837 292.757 157.316Z" fill="#A4A4A4"/>
<path opacity="0.2" d="M292.757 157.316C316.279 133.794 316.279 95.659 292.757 72.138C269.236 48.616 231.101 48.616 207.579 72.138C184.058 95.659 184.058 133.794 207.579 157.316C231.101 180.837 269.236 180.837 292.757 157.316Z" fill="black"/>
<path d="M268.566 171.3C298.353 156.494 310.498 120.344 295.692 90.5571C280.886 60.7691 244.736 48.6251 214.948 63.4311C185.161 78.2371 173.016 114.387 187.822 144.174C202.628 173.961 238.778 186.106 268.566 171.3Z" fill="#A4A4A4"/>
<path d="M280.095 146.691C296.322 125.512 292.309 95.189 271.13 78.961C249.951 62.734 219.628 66.747 203.4 87.926C187.173 109.105 191.186 139.428 212.365 155.656C233.544 171.883 263.867 167.87 280.095 146.691Z" fill="#A4A4A4"/>
<path opacity="0.5" d="M280.095 146.692C296.322 125.513 292.309 95.19 271.13 78.962C249.951 62.735 219.628 66.748 203.4 87.927C187.173 109.106 191.186 139.429 212.365 155.657C233.544 171.884 263.867 167.871 280.095 146.692Z" fill="black"/>
<path d="M199.89 133.26C197.279 124.897 196.992 115.98 199.058 107.466C201.125 98.951 205.468 91.159 211.622 84.922C217.776 78.686 225.51 74.24 233.997 72.061C242.483 69.882 251.402 70.051 259.8 72.55C253.914 70.187 247.619 69.005 241.276 69.074C234.933 69.143 228.666 70.46 222.832 72.951C216.998 75.442 211.712 79.058 207.276 83.592C202.839 88.126 199.339 93.489 196.975 99.375C194.611 105.262 193.43 111.556 193.499 117.899C193.568 124.242 194.885 130.51 197.376 136.343C199.867 142.177 203.483 147.463 208.017 151.9C212.55 156.336 217.914 159.837 223.8 162.2C212.423 155.963 203.864 145.608 199.88 133.26H199.89Z" fill="#A4A4A4"/>
<path opacity="0.5" d="M199.89 133.26C197.279 124.897 196.992 115.98 199.058 107.466C201.125 98.951 205.468 91.159 211.622 84.922C217.776 78.686 225.51 74.24 233.997 72.061C242.483 69.882 251.402 70.051 259.8 72.55C253.914 70.187 247.619 69.005 241.276 69.074C234.933 69.143 228.666 70.46 222.832 72.951C216.998 75.442 211.712 79.058 207.276 83.592C202.839 88.126 199.339 93.489 196.975 99.375C194.611 105.262 193.43 111.556 193.499 117.899C193.568 124.242 194.885 130.51 197.376 136.343C199.867 142.177 203.483 147.463 208.017 151.9C212.55 156.336 217.914 159.837 223.8 162.2C212.423 155.963 203.864 145.608 199.88 133.26H199.89Z" fill="black"/>
<path d="M248.941 150.16L246.871 143.54C239.291 145.54 234.751 144.15 231.941 135.15C231.328 133.219 230.867 131.243 230.561 129.24L240.001 126.3C240.163 127.206 240.38 128.101 240.651 128.98C241.871 132.89 242.821 134.98 246.651 133.82C250.481 132.66 250.391 131.16 248.821 126.15C248.051 123.69 247.821 122.84 246.061 122.08C242.431 120.32 234.911 120.71 230.851 119.37C227.241 118.26 225.661 115.58 223.191 107.68C220.351 98.59 222.121 94.68 230.651 91.55L229.001 86.3L234.351 84.62L235.991 89.88C244.081 87.73 247.761 89.66 250.281 97.72C250.829 99.452 251.257 101.219 251.561 103.01L242.221 105.93C241.997 104.947 241.723 103.976 241.401 103.02C240.281 99.45 239.221 97.83 235.651 98.94C232.591 99.89 232.061 101.18 233.391 105.43C234.771 109.84 235.161 110.19 238.391 110.56C241.981 111.02 245.331 111 248.451 111.43C252.861 112.1 255.671 112.15 258.451 120.9C262.301 133.22 261.341 138.18 252.201 141.78L254.301 148.49L248.941 150.16Z" fill="white"/>
<path d="M353.898 342.191L16.7589 341.367C12.4069 341.356 8.86992 344.876 8.85992 349.228L7.69192 827.16C7.68092 831.51 11.2009 835.04 15.5529 835.06L352.692 835.88C357.044 835.89 360.58 832.37 360.591 828.02L361.759 350.09C361.769 345.738 358.25 342.201 353.898 342.191Z" fill="#A4A4A4"/>
<path opacity="0.3" d="M353.898 342.191L16.7589 341.367C12.4069 341.356 8.86992 344.876 8.85992 349.228L7.69192 827.16C7.68092 831.51 11.2009 835.04 15.5529 835.06L352.692 835.88C357.044 835.89 360.58 832.37 360.591 828.02L361.759 350.09C361.769 345.738 358.25 342.201 353.898 342.191Z" fill="white"/>
<path d="M346.378 342.172L9.23903 341.348C4.88703 341.338 1.35102 344.857 1.34002 349.209L0.172018 827.14C0.162018 831.49 3.68101 835.03 8.03301 835.04L345.172 835.86C349.524 835.87 353.061 832.35 353.071 828L354.239 350.071C354.25 345.719 350.73 342.183 346.378 342.172Z" fill="#A4A4A4"/>
<path opacity="0.7" d="M346.378 342.172L9.23903 341.348C4.88703 341.338 1.35102 344.857 1.34002 349.209L0.172018 827.14C0.162018 831.49 3.68101 835.03 8.03301 835.04L345.172 835.86C349.524 835.87 353.061 832.35 353.071 828L354.239 350.071C354.25 345.719 350.73 342.183 346.378 342.172Z" fill="#808080"/>
<path d="M306.372 410.236L52.8031 409.616L52.6431 474.866L306.213 475.486L306.372 410.236Z" fill="#A4A4A4"/>
<path opacity="0.85" d="M306.372 410.236L52.8031 409.616L52.6431 474.866L306.213 475.486L306.372 410.236Z" fill="white"/>
<path d="M59.5399 419.01L306.38 419.6L306.4 410.21L52.8299 409.6L52.6799 474.85L59.4099 474.87L59.5399 419.01Z" fill="#A4A4A4"/>
<path opacity="0.2" d="M59.5399 419.01L306.38 419.6L306.4 410.21L52.8299 409.6L52.6799 474.85L59.4099 474.87L59.5399 419.01Z" fill="black"/>
<path d="M121.167 493.653L56.7881 493.496C54.4741 493.49 52.5931 495.361 52.5871 497.675L52.5501 512.805C52.5451 515.119 54.4161 517 56.7301 517.006L121.11 517.163C123.424 517.168 125.305 515.297 125.31 512.983L125.347 497.853C125.353 495.539 123.482 493.659 121.167 493.653Z" fill="#A4A4A4"/>
<path d="M211.566 493.874L147.186 493.716C144.872 493.711 142.992 495.582 142.986 497.896L142.949 513.026C142.943 515.34 144.815 517.221 147.129 517.226L211.508 517.384C213.822 517.389 215.703 515.518 215.709 513.204L215.746 498.074C215.751 495.76 213.88 493.879 211.566 493.874Z" fill="#A4A4A4"/>
<path d="M303.711 492.67H239.331C237.017 492.67 235.141 494.546 235.141 496.86V511.99C235.141 514.304 237.017 516.18 239.331 516.18H303.711C306.025 516.18 307.901 514.304 307.901 511.99V496.86C307.901 494.546 306.025 492.67 303.711 492.67Z" fill="#A4A4A4"/>
<path opacity="0.2" d="M121.167 493.653L56.7881 493.496C54.4741 493.49 52.5931 495.361 52.5871 497.675L52.5501 512.805C52.5451 515.119 54.4161 517 56.7301 517.006L121.11 517.163C123.424 517.168 125.305 515.297 125.31 512.983L125.347 497.853C125.353 495.539 123.482 493.659 121.167 493.653Z" fill="white"/>
<path opacity="0.2" d="M211.566 493.874L147.186 493.716C144.872 493.711 142.992 495.582 142.986 497.896L142.949 513.026C142.943 515.34 144.815 517.221 147.129 517.226L211.508 517.384C213.822 517.389 215.703 515.518 215.709 513.204L215.746 498.074C215.751 495.76 213.88 493.879 211.566 493.874Z" fill="white"/>
<path opacity="0.2" d="M303.711 492.67H239.331C237.017 492.67 235.141 494.546 235.141 496.86V511.99C235.141 514.304 237.017 516.18 239.331 516.18H303.711C306.025 516.18 307.901 514.304 307.901 511.99V496.86C307.901 494.546 306.025 492.67 303.711 492.67Z" fill="white"/>
<path d="M106.474 535.737L54.804 535.611C53.523 535.608 52.482 536.644 52.479 537.925L52.361 585.985C52.358 587.267 53.394 588.308 54.676 588.311L106.345 588.437C107.627 588.44 108.668 587.404 108.671 586.123L108.789 538.063C108.792 536.782 107.756 535.741 106.474 535.737Z" fill="#A4A4A4"/>
<path opacity="0.4" d="M106.474 535.737L54.804 535.611C53.523 535.608 52.482 536.644 52.479 537.925L52.361 585.985C52.358 587.267 53.394 588.308 54.676 588.311L106.345 588.437C107.627 588.44 108.668 587.404 108.671 586.123L108.789 538.063C108.792 536.782 107.756 535.741 106.474 535.737Z" fill="white"/>
<path d="M172.234 535.898L120.564 535.771C119.283 535.768 118.242 536.804 118.238 538.086L118.121 586.145C118.118 587.427 119.154 588.468 120.435 588.471L172.105 588.597C173.386 588.601 174.428 587.564 174.431 586.283L174.548 538.223C174.551 536.942 173.515 535.901 172.234 535.898Z" fill="#A4A4A4"/>
<path opacity="0.4" d="M172.234 535.898L120.564 535.771C119.283 535.768 118.242 536.804 118.238 538.086L118.121 586.145C118.118 587.427 119.154 588.468 120.435 588.471L172.105 588.597C173.386 588.601 174.428 587.564 174.431 586.283L174.548 538.223C174.551 536.942 173.515 535.901 172.234 535.898Z" fill="white"/>
<path d="M237.984 536.048L186.314 535.922C185.033 535.919 183.992 536.955 183.988 538.236L183.871 586.296C183.868 587.577 184.904 588.618 186.185 588.621L237.855 588.748C239.136 588.751 240.178 587.715 240.181 586.433L240.298 538.374C240.301 537.092 239.265 536.051 237.984 536.048Z" fill="#A4A4A4"/>
<path opacity="0.4" d="M237.984 536.048L186.314 535.922C185.033 535.919 183.992 536.955 183.988 538.236L183.871 586.296C183.868 587.577 184.904 588.618 186.185 588.621L237.855 588.748C239.136 588.751 240.178 587.715 240.181 586.433L240.298 538.374C240.301 537.092 239.265 536.051 237.984 536.048Z" fill="white"/>
<path d="M106.326 600.706L54.656 600.58C53.375 600.577 52.333 601.613 52.33 602.894L52.213 650.954C52.21 652.235 53.246 653.277 54.527 653.28L106.197 653.406C107.478 653.409 108.52 652.373 108.523 651.092L108.64 603.032C108.643 601.751 107.607 600.709 106.326 600.706Z" fill="#A4A4A4"/>
<path opacity="0.4" d="M106.326 600.706L54.656 600.58C53.375 600.577 52.333 601.613 52.33 602.894L52.213 650.954C52.21 652.235 53.246 653.277 54.527 653.28L106.197 653.406C107.478 653.409 108.52 652.373 108.523 651.092L108.64 603.032C108.643 601.751 107.607 600.709 106.326 600.706Z" fill="white"/>
<path d="M174.07 599.75H122.4C121.119 599.75 120.08 600.789 120.08 602.07V650.13C120.08 651.411 121.119 652.45 122.4 652.45H174.07C175.351 652.45 176.39 651.411 176.39 650.13V602.07C176.39 600.789 175.351 599.75 174.07 599.75Z" fill="#A4A4A4"/>
<path opacity="0.4" d="M174.07 599.75H122.4C121.119 599.75 120.08 600.789 120.08 602.07V650.13C120.08 651.411 121.119 652.45 122.4 652.45H174.07C175.351 652.45 176.39 651.411 176.39 650.13V602.07C176.39 600.789 175.351 599.75 174.07 599.75Z" fill="white"/>
<path d="M237.824 601.027L186.154 600.901C184.873 600.898 183.831 601.934 183.828 603.216L183.711 651.275C183.708 652.557 184.744 653.598 186.025 653.601L237.695 653.727C238.976 653.73 240.018 652.694 240.021 651.413L240.138 603.353C240.141 602.072 239.105 601.031 237.824 601.027Z" fill="#A4A4A4"/>
<path opacity="0.4" d="M237.824 601.027L186.154 600.901C184.873 600.898 183.831 601.934 183.828 603.216L183.711 651.275C183.708 652.557 184.744 653.598 186.025 653.601L237.695 653.727C238.976 653.73 240.018 652.694 240.021 651.413L240.138 603.353C240.141 602.072 239.105 601.031 237.824 601.027Z" fill="white"/>
<path d="M295.231 536.92L261.871 536.84C260.365 536.836 258.872 537.129 257.479 537.701C256.086 538.274 254.819 539.116 253.752 540.178C252.684 541.24 251.836 542.503 251.256 543.893C250.675 545.283 250.375 546.774 250.371 548.28V564.6V578.04L250.211 643.04C250.206 646.08 251.408 648.998 253.553 651.153C255.698 653.307 258.611 654.522 261.651 654.53L295.021 654.61C296.527 654.614 298.02 654.321 299.413 653.748C300.806 653.175 302.072 652.334 303.14 651.272C304.208 650.209 305.056 648.947 305.636 647.557C306.216 646.167 306.517 644.676 306.521 643.17L306.671 578.17V564.73V548.42C306.675 546.914 306.382 545.421 305.809 544.028C305.237 542.635 304.395 541.368 303.333 540.301C302.27 539.233 301.008 538.384 299.618 537.804C298.228 537.224 296.737 536.924 295.231 536.92Z" fill="#A4A4A4"/>
<path opacity="0.2" d="M295.231 536.92L261.871 536.84C260.365 536.836 258.872 537.129 257.479 537.701C256.086 538.274 254.819 539.116 253.752 540.178C252.684 541.24 251.836 542.503 251.256 543.893C250.675 545.283 250.375 546.774 250.371 548.28V564.6V578.04L250.211 643.04C250.206 646.08 251.408 648.998 253.553 651.153C255.698 653.307 258.611 654.522 261.651 654.53L295.021 654.61C296.527 654.614 298.02 654.321 299.413 653.748C300.806 653.175 302.072 652.334 303.14 651.272C304.208 650.209 305.056 648.947 305.636 647.557C306.216 646.167 306.517 644.676 306.521 643.17L306.671 578.17V564.73V548.42C306.675 546.914 306.382 545.421 305.809 544.028C305.237 542.635 304.395 541.368 303.333 540.301C302.27 539.233 301.008 538.384 299.618 537.804C298.228 537.224 296.737 536.924 295.231 536.92Z" fill="white"/>
<path d="M106.158 665.666L54.488 665.54C53.207 665.537 52.165 666.573 52.162 667.854L52.0451 715.914C52.0421 717.195 53.078 718.237 54.359 718.24L106.029 718.366C107.31 718.369 108.352 717.333 108.355 716.052L108.472 667.992C108.475 666.71 107.439 665.669 106.158 665.666Z" fill="#A4A4A4"/>
<path opacity="0.4" d="M106.158 665.666L54.488 665.54C53.207 665.537 52.165 666.573 52.162 667.854L52.0451 715.914C52.0421 717.195 53.078 718.237 54.359 718.24L106.029 718.366C107.31 718.369 108.352 717.333 108.355 716.052L108.472 667.992C108.475 666.71 107.439 665.669 106.158 665.666Z" fill="white"/>
<path d="M171.916 665.826L120.246 665.7C118.964 665.697 117.923 666.733 117.92 668.014L117.803 716.074C117.8 717.355 118.836 718.397 120.117 718.4L171.787 718.526C173.068 718.529 174.109 717.493 174.113 716.212L174.23 668.152C174.233 666.871 173.197 665.829 171.916 665.826Z" fill="#A4A4A4"/>
<path opacity="0.4" d="M171.916 665.826L120.246 665.7C118.964 665.697 117.923 666.733 117.92 668.014L117.803 716.074C117.8 717.355 118.836 718.397 120.117 718.4L171.787 718.526C173.068 718.529 174.109 717.493 174.113 716.212L174.23 668.152C174.233 666.871 173.197 665.829 171.916 665.826Z" fill="white"/>
<path d="M237.666 665.997L185.996 665.871C184.714 665.868 183.673 666.904 183.67 668.185L183.553 716.245C183.55 717.526 184.586 718.568 185.867 718.571L237.537 718.697C238.818 718.7 239.859 717.664 239.862 716.383L239.98 668.323C239.983 667.041 238.947 666 237.666 665.997Z" fill="#A4A4A4"/>
<path opacity="0.4" d="M237.666 665.997L185.996 665.871C184.714 665.868 183.673 666.904 183.67 668.185L183.553 716.245C183.55 717.526 184.586 718.568 185.867 718.571L237.537 718.697C238.818 718.7 239.859 717.664 239.862 716.383L239.98 668.323C239.983 667.041 238.947 666 237.666 665.997Z" fill="white"/>
<path d="M303.416 666.148L251.746 666.021C250.464 666.018 249.423 667.054 249.42 668.336L249.303 716.395C249.3 717.677 250.336 718.718 251.617 718.721L303.287 718.847C304.568 718.851 305.609 717.814 305.613 716.533L305.73 668.473C305.733 667.192 304.697 666.151 303.416 666.148Z" fill="#A4A4A4"/>
<path opacity="0.4" d="M303.416 666.148L251.746 666.021C250.464 666.018 249.423 667.054 249.42 668.336L249.303 716.395C249.3 717.677 250.336 718.718 251.617 718.721L303.287 718.847C304.568 718.851 305.609 717.814 305.613 716.533L305.73 668.473C305.733 667.192 304.697 666.151 303.416 666.148Z" fill="white"/>
<path d="M106.009 730.635L54.34 730.509C53.058 730.505 52.017 731.542 52.014 732.823L51.896 780.883C51.893 782.164 52.929 783.205 54.211 783.208L105.881 783.335C107.162 783.338 108.203 782.302 108.206 781.02L108.324 732.961C108.327 731.679 107.291 730.638 106.009 730.635Z" fill="#A4A4A4"/>
<path opacity="0.4" d="M106.009 730.635L54.34 730.509C53.058 730.505 52.017 731.542 52.014 732.823L51.896 780.883C51.893 782.164 52.929 783.205 54.211 783.208L105.881 783.335C107.162 783.338 108.203 782.302 108.206 781.02L108.324 732.961C108.327 731.679 107.291 730.638 106.009 730.635Z" fill="white"/>
<path d="M171.757 730.796L120.088 730.67C118.806 730.667 117.765 731.703 117.762 732.984L117.644 781.044C117.641 782.325 118.677 783.366 119.959 783.37L171.629 783.496C172.91 783.499 173.951 782.463 173.954 781.182L174.072 733.122C174.075 731.84 173.039 730.799 171.757 730.796Z" fill="#A4A4A4"/>
<path opacity="0.4" d="M171.757 730.796L120.088 730.67C118.806 730.667 117.765 731.703 117.762 732.984L117.644 781.044C117.641 782.325 118.677 783.366 119.959 783.37L171.629 783.496C172.91 783.499 173.951 782.463 173.954 781.182L174.072 733.122C174.075 731.84 173.039 730.799 171.757 730.796Z" fill="white"/>
<path d="M237.507 730.956L185.838 730.83C184.556 730.827 183.515 731.863 183.512 733.144L183.394 781.204C183.391 782.485 184.427 783.527 185.709 783.53L237.379 783.656C238.66 783.659 239.701 782.623 239.704 781.342L239.822 733.282C239.825 732.001 238.789 730.959 237.507 730.956Z" fill="#A4A4A4"/>
<path opacity="0.4" d="M237.507 730.956L185.838 730.83C184.556 730.827 183.515 731.863 183.512 733.144L183.394 781.204C183.391 782.485 184.427 783.527 185.709 783.53L237.379 783.656C238.66 783.659 239.701 782.623 239.704 781.342L239.822 733.282C239.825 732.001 238.789 730.959 237.507 730.956Z" fill="white"/>
<path d="M303.267 731.117L251.597 730.991C250.316 730.988 249.275 732.024 249.272 733.305L249.154 781.365C249.151 782.647 250.187 783.688 251.469 783.691L303.138 783.817C304.42 783.82 305.461 782.784 305.464 781.503L305.582 733.443C305.585 732.162 304.548 731.12 303.267 731.117Z" fill="#A4A4A4"/>
<path opacity="0.2" d="M303.267 731.117L251.597 730.991C250.316 730.988 249.275 732.024 249.272 733.305L249.154 781.365C249.151 782.647 250.187 783.688 251.469 783.691L303.138 783.817C304.42 783.82 305.461 782.784 305.464 781.503L305.582 733.443C305.585 732.162 304.548 731.12 303.267 731.117Z" fill="white"/>
<path d="M89.99 678.11L89.98 680.77L76.92 707.93L72.74 707.92L85.75 681.54V681.45L71.15 681.42V678.06L89.99 678.11Z" fill="white"/>
<path d="M150.36 692.22V692.08C154.04 690.34 155.28 687.64 155.29 685.08C155.29 681.36 152.41 677.72 146.62 677.71C141.39 677.71 137.38 680.9 137.37 685.64C137.37 688.21 138.78 690.78 142.09 692.35V692.49C138.42 694.04 136.16 696.7 136.15 700.49C136.15 704.85 139.9 708.58 146.15 708.6C151.85 708.6 156.31 705.13 156.33 699.94C156.36 696.32 154.07 693.7 150.36 692.22ZM141.19 685.4C141.19 682.83 143.04 680.63 146.39 680.63C147.051 680.579 147.714 680.67 148.336 680.896C148.958 681.122 149.525 681.479 149.999 681.942C150.472 682.405 150.841 682.963 151.081 683.581C151.321 684.198 151.427 684.859 151.39 685.52C151.39 688.23 149.39 690.06 146.83 690.92C143.43 690 141.18 688.38 141.19 685.4ZM146.28 705.67C142.47 705.67 140.18 702.99 140.28 699.96C140.28 697.11 142.18 694.82 145.67 693.82C149.67 694.97 152.24 696.72 152.23 700.35C152.26 703.43 149.91 705.68 146.28 705.67Z" fill="white"/>
<path d="M146.43 741.91C140.36 741.91 136.03 747.4 136.01 757.41C135.99 767.42 140.01 772.76 145.85 772.77C152.46 772.77 156.24 767.19 156.26 757.04C156.29 747.54 152.72 741.92 146.43 741.91ZM146.08 769.65C142.41 769.65 140.03 765.23 140.08 757.46C140.08 749.33 142.68 745.02 146.22 745.03C150.4 745.03 152.27 749.87 152.22 757.22C152.2 764.84 150.22 769.66 146.08 769.65Z" fill="white"/>
<path d="M213.32 677.9C207.21 677.9 203.11 682.84 203.1 688.49C203.1 693.58 206.52 697.63 211.9 697.65C213.233 697.684 214.556 697.414 215.769 696.859C216.982 696.305 218.053 695.481 218.9 694.45H219.04C218.669 697.481 217.255 700.289 215.04 702.39C213.308 703.978 211.122 704.982 208.79 705.26C207.71 705.415 206.618 705.458 205.53 705.39V708.7C206.774 708.753 208.02 708.679 209.25 708.48C212.507 708.136 215.56 706.731 217.94 704.48C220.89 701.64 223.1 697.05 223.12 690.48C223.19 682.88 219.43 677.91 213.32 677.9ZM218.71 691.46C218.086 692.449 217.213 693.256 216.18 693.802C215.146 694.348 213.988 694.613 212.82 694.57C209.33 694.57 207.09 691.94 207.1 688.22C207.1 683.99 209.55 680.97 212.99 680.98C217.22 680.98 219.09 684.9 219.08 689.98C219.105 690.499 218.976 691.014 218.71 691.46Z" fill="white"/>
<path d="M87 630.42L87.05 611.87H82.7L69.34 630.87V633.53H83.21V641.66H87V633.53H91.18V630.36L87 630.42ZM83.21 620.42V630.42H73.43V630.33L80.75 620.19C81.58 618.82 82.32 617.53 83.24 615.79H83.38C83.29 617.32 83.24 618.88 83.23 620.45L83.21 620.42Z" fill="white"/>
<path d="M154.579 615.42H143.189L141.999 623.06C142.803 622.938 143.616 622.881 144.429 622.89C146.679 622.844 148.9 623.404 150.859 624.51C152.199 625.283 153.303 626.406 154.052 627.759C154.801 629.113 155.167 630.645 155.109 632.19C155.109 638.02 150.449 642.38 143.969 642.36C141.369 642.412 138.802 641.774 136.529 640.51L137.529 637.43C139.51 638.525 141.736 639.099 143.999 639.1C147.819 639.1 151.079 636.64 151.089 632.64C151.099 628.64 148.489 626.02 142.519 626C141.134 626.014 139.751 626.12 138.379 626.32L140.379 611.99H154.659L154.579 615.42Z" fill="white"/>
<path d="M214.421 622.37C213.034 622.336 211.658 622.628 210.405 623.222C209.151 623.816 208.054 624.695 207.201 625.79H207.061C207.381 623.123 208.577 620.638 210.461 618.724C212.344 616.809 214.81 615.573 217.471 615.21C218.462 615.046 219.467 614.986 220.471 615.03V611.72C219.487 611.723 218.504 611.8 217.531 611.95C213.944 612.312 210.579 613.852 207.961 616.33C205.021 619.27 202.891 623.9 202.881 629.78C202.881 637.54 207.031 642.51 213.411 642.53C219.611 642.53 223.351 637.53 223.361 632.03C223.411 626.2 219.701 622.38 214.421 622.37ZM213.421 639.37C209.191 639.37 206.951 635.73 206.871 630.82C206.857 630.191 207.02 629.571 207.341 629.03C207.882 627.95 208.706 627.038 209.727 626.391C210.747 625.745 211.923 625.388 213.131 625.36C216.851 625.36 219.281 627.95 219.271 632.22C219.261 636.49 217.001 639.41 213.461 639.4L213.421 639.37Z" fill="white"/>
<path d="M79.679 552.13H79.579L74.389 554.92L73.619 551.84L80.139 548.37L83.589 548.38L83.519 578.23L79.619 578.22L79.679 552.13Z" fill="white"/>
<path d="M136.85 578.36V575.88L140.02 572.81C147.66 565.57 151.12 561.72 151.18 557.22C151.18 554.22 149.72 551.38 145.26 551.37C142.921 551.456 140.683 552.342 138.92 553.88L137.65 551C140.027 549.033 143.024 547.97 146.11 548C152.54 548 155.24 552.43 155.23 556.7C155.23 562.22 151.23 566.7 144.9 572.7L142.51 574.9V575H155.92V578.36H136.85Z" fill="white"/>
<path d="M204.52 573.88C206.524 575.072 208.8 575.726 211.13 575.78C216.32 575.78 217.94 572.49 217.9 570.01C217.9 565.83 214.1 564.01 210.2 564.01H208V561.01H210.25C213.19 561.01 216.92 559.51 216.93 556.01C216.93 553.62 215.42 551.51 211.7 551.5C209.547 551.559 207.459 552.255 205.7 553.5L204.7 550.56C207.023 549.048 209.74 548.255 212.51 548.28C218.39 548.28 221.04 551.79 221.04 555.42C221.04 558.5 219.18 561.11 215.51 562.42V562.51C219.18 563.26 222.16 566.02 222.15 570.2C222.15 574.98 218.41 579.15 211.24 579.13C208.521 579.169 205.842 578.479 203.48 577.13L204.52 573.88Z" fill="white"/>
<path d="M83.729 768.18C83.727 768.892 83.514 769.588 83.117 770.179C82.72 770.77 82.156 771.229 81.498 771.5C80.839 771.771 80.115 771.84 79.417 771.699C78.719 771.558 78.079 771.214 77.577 770.709C77.075 770.204 76.734 769.562 76.597 768.863C76.46 768.164 76.533 767.44 76.807 766.783C77.081 766.126 77.544 765.565 78.138 765.171C78.731 764.778 79.427 764.568 80.139 764.57C80.612 764.57 81.081 764.664 81.518 764.845C81.955 765.027 82.351 765.293 82.685 765.629C83.019 765.964 83.283 766.362 83.462 766.8C83.641 767.238 83.732 767.707 83.729 768.18Z" fill="white"/>
<path d="M299.19 596.9L280.24 596.86L280.29 577.91L275.41 577.89L275.37 596.85L256.41 596.8L256.4 601.68L275.36 601.72L275.31 620.67L280.18 620.68L280.23 601.73L299.18 601.78L299.19 596.9Z" fill="white"/>
<path d="M224.259 768.46L214.249 758.4L224.299 748.39L221.729 745.8L211.669 755.82L201.659 745.76L199.069 748.33L209.079 758.39L199.029 768.4L201.599 770.99L211.659 760.98L221.669 771.03L224.259 768.46Z" fill="white"/>
<path d="M292.224 691.43L260.484 691.353L260.472 696.213L292.212 696.29L292.224 691.43Z" fill="white"/>
<path d="M293.256 747.613L261.516 747.535L261.504 752.395L293.244 752.473L293.256 747.613Z" fill="white"/>
<path d="M293.226 759.853L261.486 759.775L261.474 764.635L293.214 764.713L293.226 759.853Z" fill="white"/>
<path opacity="0.3" d="M64.7999 781.859H60.1799L60.67 789.77H65.1199L64.7999 781.859Z" fill="black"/>
</svg>
