<svg width="500" height="500" viewBox="0 0 500 500" fill="none" xmlns="http://www.w3.org/2000/svg">
<path d="M459.802 443.801H37.5725V450.099H459.802V443.801Z" fill="#E3EDF5"/>
<path d="M63.4229 412.575C63.4229 412.575 75.0894 382.611 113.09 368.493C142.945 357.402 185.954 384.822 185.954 384.822C185.954 384.822 148.481 402.706 126.282 402.901C93.3933 403.191 63.4229 412.575 63.4229 412.575" fill="#BDFFD8"/>
<path d="M102.367 272C102.367 272 120.627 304.913 154.387 339.299C192.353 377.969 177.34 406.841 177.34 406.841C177.34 406.841 116.921 401.05 98.1409 358.873C83.1999 325.317 102.367 272 102.367 272" fill="#DCF5F9"/>
<path d="M401.379 205.978C401.256 205.345 400.644 204.932 400.011 205.055C399.377 205.179 398.965 205.792 399.088 206.424C399.121 206.591 402.34 223.442 402.272 249.833C402.21 274.208 399.245 311.894 385.478 353.009C373.176 389.75 354.769 413.875 336.763 428.632H349.216C364.966 413.954 379.567 393.204 391.841 356.549C405.707 315.138 406.483 273.091 406.546 248.544C406.615 221.928 401.412 206.147 401.379 205.978" fill="#BCF7E2"/>
<path d="M403.708 282.323C402.048 268.726 408.869 243.706 423.536 232.999C436.052 223.862 442.143 214.022 442.143 214.022C442.143 214.022 444.87 225.096 443.654 238.593C442.836 247.668 435.62 259.123 426.934 263.183C411.489 270.403 403.708 282.323 403.708 282.323" fill="#BCF7E2"/>
<path d="M402.287 222.291C395.302 205.592 386.685 195.68 388.913 178.506C390.6 165.508 388.416 149.397 388.416 149.397C388.416 149.397 399.253 156.768 406.246 166.746C412.562 175.758 414.013 187.293 410.902 196.652C408.66 203.398 402.287 222.291 402.287 222.291" fill="#BCF7E2"/>
<path d="M389.231 359.516C396.099 338.517 403.464 301.299 419.24 286.927C437.243 270.527 447.932 270.674 456.833 259.251C456.833 259.251 457.443 270.171 455.385 288.378C453.526 304.823 442.979 334.61 426.032 340.029C404.899 346.788 389.231 359.516 389.231 359.516" fill="#BCF7E2"/>
<path d="M368.688 190.287C379.79 211.638 408.572 231.593 402.677 273.814C402.677 273.814 392.205 259.36 383.352 254.12C370.405 246.457 365.483 231.688 365.267 216.869C365.112 206.191 368.688 190.287 368.688 190.287Z" fill="#BCF7E2"/>
<path d="M462.966 366.966C434.3 387.041 435.966 399.209 392.156 408.094C362.346 414.14 353.288 426.964 353.288 426.964C353.288 426.964 367.864 399.922 379.549 385.501C387.127 376.148 398.848 364.99 423.075 361.632C438.799 359.453 462.966 366.966 462.966 366.966" fill="#BCF7E2"/>
<path d="M359.975 410.363C347.373 385.011 339.779 361.755 337.936 346.992C335.16 324.754 341.358 306.436 341.358 306.436C341.358 306.436 341.399 310.433 358.044 320.777C373.077 330.12 379.88 340.975 380.947 358.377C382.167 378.27 359.975 410.363 359.975 410.363Z" fill="#BCF7E2"/>
<path d="M392.666 341.236C381.264 319.842 363.606 313.029 361.76 289.274C360.273 270.142 347.919 259.251 347.919 259.251C347.919 259.251 367.71 260.986 382.208 269.436C395.303 277.068 397.032 285.884 399.694 300.574C403.326 320.617 392.666 341.236 392.666 341.236Z" fill="#BCF7E2"/>
<path d="M228.243 443.634L352.927 444.649C356.329 444.678 359.11 441.943 359.139 438.541L361.368 173.42C361.396 170.018 358.662 167.237 355.259 167.208L230.575 166.193C227.173 166.164 224.392 168.899 224.364 172.301L222.135 437.423C222.106 440.825 224.841 443.606 228.243 443.634Z" fill="#4ACFD3"/>
<path d="M220.164 443.58L344.848 444.595C348.25 444.624 351.031 441.889 351.06 438.487L353.288 173.365C353.317 169.963 350.582 167.182 347.18 167.153L222.496 166.138C219.095 166.11 216.313 168.844 216.285 172.246L214.056 437.368C214.027 440.77 216.762 443.551 220.164 443.58" fill="#8CEAE7"/>
<path d="M214.256 413.659L173.249 413.325L173.308 406.3C175.867 406.699 177.34 406.841 177.34 406.841C177.34 406.841 181.115 399.584 180.093 387.471C183.749 385.874 185.955 384.822 185.955 384.822C185.955 384.822 183.405 383.196 179.117 380.897C178.131 376.237 176.422 371.064 173.65 365.469L175.875 99.9043L345.343 101.283L344.791 167.123L333.256 167.029L333.322 156.034V155.962C333.322 153.997 332.839 152.119 331.975 150.425C330.677 147.881 328.532 145.746 325.862 144.24C323.191 142.735 319.988 141.855 316.547 141.835L252.834 141.456L252.711 141.455C248.136 141.456 243.972 142.976 240.917 145.484C239.39 146.738 238.141 148.242 237.268 149.93C236.394 151.617 235.901 153.49 235.89 155.454L235.828 165.895L235.533 166.233L230.576 166.193C230.558 166.193 230.541 166.193 230.523 166.193C230.413 166.193 230.303 166.196 230.194 166.201L222.497 166.139C222.48 166.138 222.462 166.138 222.444 166.138C219.066 166.138 216.314 168.862 216.285 172.247L216.149 188.471L214.993 189.798L216.137 189.854L215.192 302.313L202.895 302.24H202.9C202.854 302.24 202.811 302.24 202.772 302.24C198.19 302.241 194.019 303.763 190.96 306.275C189.431 307.531 188.179 309.037 187.305 310.728C186.43 312.417 185.936 314.293 185.925 316.26L185.695 354.84L185.696 354.834L185.695 354.911C185.695 356.879 186.178 358.759 187.044 360.457C188.344 363.005 190.492 365.143 193.167 366.651C195.842 368.159 199.05 369.04 202.498 369.061L214.63 369.133L214.256 413.659V413.659ZM331.257 167.012L237.826 166.252L237.89 155.466C237.9 153.829 238.307 152.276 239.044 150.849C240.149 148.711 242.008 146.86 244.376 145.545C246.743 144.23 249.613 143.455 252.71 143.455C252.711 143.455 252.711 143.455 252.711 143.455L252.821 143.456L316.534 143.835C320.678 143.858 324.404 145.268 327.066 147.485C328.398 148.593 329.463 149.9 330.193 151.333C330.923 152.767 331.322 154.325 331.322 155.962V156.023L331.257 167.012" fill="#EAF9FC"/>
<path d="M180.092 387.471C179.919 385.416 179.608 383.22 179.116 380.897C183.404 383.196 185.954 384.822 185.954 384.822C185.954 384.822 183.749 385.874 180.092 387.471" fill="#D0F9EC"/>
<path d="M177.34 406.841C177.34 406.841 175.866 406.699 173.307 406.3L173.649 365.469C176.421 371.064 178.13 376.237 179.116 380.897C179.608 383.22 179.919 385.416 180.092 387.471C181.114 399.584 177.34 406.841 177.34 406.841Z" fill="#DCF5F9"/>
<path d="M344.791 167.134L333.256 167.04V167.029L344.791 167.123V167.134ZM331.256 167.024L237.825 166.263V166.252L331.257 167.012L331.256 167.024ZM235.523 166.245L230.194 166.201C230.303 166.196 230.412 166.193 230.522 166.193C230.54 166.193 230.558 166.193 230.575 166.193L235.532 166.233L235.523 166.245" fill="#A2E6EA"/>
<path d="M214.647 367.133L202.509 367.061C198.358 367.037 194.625 365.625 191.958 363.404C190.624 362.294 189.557 360.984 188.826 359.549C188.094 358.112 187.695 356.551 187.695 354.911V354.857V354.845L187.925 316.272C187.935 314.632 188.342 313.076 189.081 311.646C190.188 309.504 192.05 307.65 194.422 306.333C196.793 305.016 199.668 304.24 202.77 304.24C202.771 304.24 202.771 304.24 202.772 304.24H202.878H202.883L215.175 304.313L214.92 334.559L211.385 334.538L211.373 336.538L214.904 336.559L214.647 367.133V367.133ZM205.759 334.504L205.747 336.504L206.941 336.511L206.953 334.511L205.759 334.504Z" fill="#EAF9FC"/>
<path d="M342.717 414.704L214.256 413.659L214.63 369.133L266.315 369.44H266.318L266.438 369.441C271.021 369.44 275.191 367.917 278.25 365.406C279.78 364.149 281.031 362.643 281.906 360.953C282.78 359.263 283.274 357.387 283.285 355.42L283.304 352.32L304.255 352.797L302.882 351.116L302.108 351.748L302.131 350.748L302.108 351.748L302.882 351.116L283.453 327.311L283.515 316.841V316.835V316.769C283.516 314.801 283.032 312.921 282.166 311.223C280.867 308.675 278.718 306.537 276.044 305.029C273.368 303.521 270.16 302.64 266.713 302.62L215.191 302.313L216.137 189.854L217.052 189.899L235.679 190.817L235.66 193.971V193.968L235.66 194.042C235.659 196.007 236.142 197.885 237.007 199.58C238.305 202.123 240.45 204.258 243.12 205.764C245.791 207.269 248.994 208.149 252.436 208.169L316.149 208.549H316.272C320.847 208.548 325.011 207.028 328.065 204.52C329.592 203.266 330.842 201.762 331.715 200.074C332.588 198.387 333.082 196.514 333.093 194.55L333.256 167.04L344.791 167.134L342.717 414.704V414.704ZM243.779 232.992C239.86 232.992 236.665 236.153 236.632 240.08L236.368 271.526C236.335 275.474 239.508 278.701 243.456 278.734L324.697 279.417C324.718 279.417 324.738 279.417 324.759 279.417C328.678 279.417 331.873 276.256 331.906 272.329L332.17 240.884C332.203 236.936 329.03 233.708 325.082 233.675L243.841 232.992C243.82 232.992 243.8 232.992 243.779 232.992ZM266.44 367.441C266.439 367.441 266.439 367.441 266.438 367.441L266.325 367.44H266.327L214.647 367.133L214.904 336.559L215.805 336.564L215.817 334.564L214.92 334.559L215.175 304.313L266.701 304.62C270.852 304.643 274.585 306.055 277.252 308.276C278.586 309.386 279.653 310.696 280.384 312.131C281.116 313.568 281.515 315.129 281.515 316.769V316.835V316.829L281.449 328.018L299.961 350.699L281.316 350.274L281.285 355.409C281.275 357.049 280.868 358.605 280.129 360.034C279.022 362.176 277.16 364.03 274.788 365.347C272.417 366.664 269.542 367.441 266.44 367.441V367.441ZM255.705 334.802L255.693 336.801L260.125 336.828L260.137 334.828L255.705 334.802ZM246.841 334.749L246.829 336.749L251.261 336.775L251.273 334.775L246.841 334.749ZM237.977 334.696L237.965 336.696L242.397 336.722L242.409 334.722L237.977 334.696V334.696ZM229.113 334.643L229.101 336.643L233.533 336.67L233.545 334.67L229.113 334.643V334.643ZM220.249 334.591L220.237 336.591L224.669 336.617L224.681 334.617L220.249 334.591V334.591ZM316.273 206.549C316.273 206.549 316.273 206.549 316.272 206.549H316.16L252.448 206.169C248.304 206.146 244.578 204.736 241.916 202.519C240.584 201.411 239.519 200.104 238.789 198.671C238.059 197.237 237.66 195.68 237.66 194.042L237.66 193.985V193.983L237.69 188.914L219.21 188.003L237.823 166.649L237.825 166.263L331.256 167.024L331.093 194.538C331.083 196.175 330.676 197.729 329.939 199.155C328.834 201.293 326.975 203.144 324.607 204.459C322.24 205.773 319.37 206.549 316.273 206.549V206.549ZM293.819 185.463L293.807 187.463L298.239 187.489L298.251 185.489L293.819 185.463ZM284.955 185.41L284.943 187.41L289.375 187.436L289.387 185.436L284.955 185.41ZM276.091 185.357L276.079 187.357L280.511 187.383L280.523 185.384L276.091 185.357V185.357ZM267.227 185.304L267.215 187.304L271.647 187.331L271.659 185.331L267.227 185.304ZM258.363 185.252L258.351 187.252L262.783 187.278L262.795 185.278L258.363 185.252ZM303.199 169.65L303.188 171.65L307.62 171.676L307.631 169.676L303.199 169.65ZM294.335 169.597L294.324 171.597L298.756 171.624L298.768 169.624L294.335 169.597V169.597ZM285.471 169.545L285.46 171.545L289.892 171.571L289.903 169.571L285.471 169.545ZM276.607 169.492L276.595 171.492L281.027 171.518L281.039 169.518L276.607 169.492ZM267.743 169.439L267.731 171.439L272.163 171.465L272.175 169.466L267.743 169.439V169.439ZM258.879 169.386L258.867 171.386L263.299 171.413L263.311 169.413L258.879 169.386ZM216.148 188.471L216.285 172.247C216.313 168.862 219.066 166.138 222.444 166.138C222.461 166.138 222.479 166.138 222.496 166.139L230.194 166.201L235.523 166.245L216.148 188.471Z" fill="#BCF1F2"/>
<path d="M214.63 369.133L202.497 369.061C199.05 369.04 195.842 368.159 193.166 366.651C190.492 365.143 188.343 363.005 187.044 360.457C186.178 358.759 185.694 356.879 185.695 354.911L185.695 354.834L185.695 354.84L185.925 316.26C185.936 314.293 186.43 312.417 187.304 310.728C188.179 309.037 189.43 307.531 190.959 306.275C194.019 303.763 198.189 302.241 202.772 302.24C202.811 302.24 202.853 302.24 202.9 302.24H202.895L215.191 302.313L215.175 304.313L202.883 304.24H202.878H202.772C202.771 304.24 202.771 304.24 202.77 304.24C199.668 304.24 196.793 305.016 194.422 306.333C192.05 307.65 190.188 309.504 189.081 311.646C188.342 313.076 187.935 314.632 187.925 316.272L187.695 354.845V354.857V354.911C187.695 356.551 188.094 358.112 188.826 359.549C189.557 360.984 190.624 362.294 191.958 363.404C194.625 365.625 198.358 367.037 202.509 367.061L214.647 367.133L214.63 369.133" fill="#F7FDFE"/>
<path d="M266.438 369.441L266.318 369.44H266.315L214.63 369.133L214.647 367.133L266.327 367.44H266.325L266.438 367.441C266.439 367.441 266.439 367.441 266.44 367.441C269.542 367.441 272.417 366.664 274.788 365.347C277.16 364.03 279.022 362.176 280.129 360.034C280.868 358.605 281.275 357.049 281.285 355.409L281.316 350.274L299.961 350.699L281.449 328.018L281.515 316.829V316.835V316.769C281.515 315.129 281.116 313.568 280.384 312.131C279.653 310.696 278.586 309.386 277.252 308.276C274.585 306.055 270.852 304.643 266.701 304.62L215.175 304.313L215.191 302.313L266.713 302.62C270.16 302.64 273.368 303.521 276.044 305.029C278.718 306.537 280.867 308.675 282.166 311.223C283.032 312.921 283.516 314.801 283.515 316.769V316.835V316.841L283.453 327.311L302.882 351.116L302.108 351.748L302.131 350.748L302.108 351.748L302.882 351.116L304.255 352.797L283.304 352.32L283.285 355.42C283.274 357.387 282.78 359.263 281.906 360.953C281.031 362.643 279.78 364.149 278.25 365.406C275.191 367.917 271.021 369.44 266.438 369.441" fill="#E4F9FA"/>
<path d="M260.125 336.828L255.693 336.801L255.705 334.802L260.137 334.828L260.125 336.828ZM251.261 336.775L246.829 336.749L246.841 334.749L251.273 334.775L251.261 336.775ZM242.397 336.722L237.965 336.696L237.977 334.696L242.409 334.722L242.397 336.722V336.722ZM233.533 336.67L229.101 336.643L229.113 334.643L233.545 334.67L233.533 336.67V336.67ZM224.669 336.617L220.237 336.591L220.249 334.591L224.681 334.617L224.669 336.617" fill="#E4F9FA"/>
<path d="M214.904 336.559L211.373 336.538L211.385 334.538L214.921 334.559L214.904 336.559Z" fill="#F7FDFE"/>
<path d="M215.805 336.564L214.904 336.559L214.92 334.559L215.817 334.564L215.805 336.564Z" fill="#E4F9FA"/>
<path d="M206.941 336.511L205.747 336.504L205.759 334.504L206.953 334.511L206.941 336.511Z" fill="#F7FDFE"/>
<path d="M216.137 189.854L214.992 189.798L216.148 188.471L216.137 189.854ZM333.256 167.029L331.257 167.012L331.322 156.023V155.962C331.322 154.325 330.923 152.767 330.193 151.333C329.463 149.9 328.398 148.593 327.066 147.485C324.404 145.268 320.678 143.858 316.534 143.835L252.821 143.456L252.711 143.455C252.71 143.455 252.71 143.455 252.709 143.455C249.612 143.455 246.743 144.23 244.376 145.545C242.007 146.86 240.148 148.711 239.044 150.849C238.306 152.276 237.9 153.829 237.889 155.466L237.825 166.252L235.532 166.233L235.827 165.895L235.89 155.454C235.901 153.49 236.394 151.617 237.267 149.93C238.14 148.242 239.39 146.738 240.917 145.484C243.971 142.976 248.135 141.456 252.711 141.455L252.833 141.456L316.546 141.835C319.988 141.855 323.191 142.735 325.862 144.24C328.532 145.746 330.677 147.881 331.975 150.425C332.839 152.119 333.322 153.997 333.322 155.962V156.034L333.256 167.029" fill="#F7FDFE"/>
<path d="M333.256 167.04L331.256 167.024L331.257 167.012L333.256 167.029V167.04ZM237.825 166.263L235.523 166.245L235.532 166.233L237.825 166.252V166.263" fill="#DAF5F7"/>
<path d="M316.272 208.549H316.149L252.436 208.169C248.994 208.149 245.791 207.269 243.12 205.764C240.45 204.258 238.305 202.123 237.007 199.58C236.142 197.885 235.659 196.007 235.66 194.042L235.66 193.968V193.971L235.679 190.817L217.052 189.899L216.137 189.854L216.148 188.471L235.523 166.245L237.825 166.263L237.823 166.649L219.21 188.003L237.69 188.914L237.66 193.983V193.985L237.66 194.042C237.66 195.68 238.059 197.237 238.789 198.671C239.519 200.104 240.584 201.411 241.916 202.519C244.578 204.736 248.304 206.146 252.448 206.169L316.16 206.549H316.272C316.273 206.549 316.273 206.549 316.273 206.549C319.37 206.549 322.24 205.773 324.607 204.459C326.975 203.144 328.834 201.293 329.939 199.155C330.676 197.729 331.083 196.175 331.093 194.538L331.256 167.024L333.256 167.04L333.093 194.55C333.082 196.514 332.588 198.387 331.715 200.074C330.842 201.762 329.592 203.266 328.065 204.52C325.011 207.028 320.847 208.548 316.272 208.549" fill="#E4F9FA"/>
<path d="M307.62 171.676L303.188 171.65L303.199 169.65L307.631 169.676L307.62 171.676ZM298.756 171.624L294.324 171.597L294.335 169.597L298.768 169.624L298.756 171.624V171.624ZM289.892 171.571L285.46 171.545L285.471 169.545L289.903 169.571L289.892 171.571ZM281.027 171.518L276.595 171.492L276.607 169.492L281.039 169.518L281.027 171.518ZM272.163 171.465L267.731 171.439L267.743 169.439L272.175 169.466L272.163 171.465V171.465ZM263.299 171.413L258.867 171.386L258.879 169.386L263.311 169.413L263.299 171.413Z" fill="#E4F9FA"/>
<path d="M298.239 187.489L293.807 187.463L293.819 185.463L298.251 185.489L298.239 187.489ZM289.375 187.436L284.943 187.41L284.955 185.41L289.387 185.436L289.375 187.436ZM280.511 187.383L276.079 187.357L276.091 185.357L280.523 185.384L280.511 187.383V187.383ZM271.647 187.331L267.215 187.304L267.227 185.304L271.659 185.331L271.647 187.331ZM262.783 187.278L258.351 187.252L258.363 185.252L262.795 185.278L262.783 187.278Z" fill="#E4F9FA"/>
<path d="M324.759 279.417C324.738 279.417 324.718 279.417 324.698 279.417L243.456 278.734C239.508 278.701 236.335 275.473 236.368 271.525L236.632 240.08C236.665 236.153 239.86 232.991 243.779 232.991C243.8 232.991 243.82 232.991 243.841 232.991L325.082 233.675C329.03 233.708 332.204 236.935 332.171 240.883L331.906 272.328C331.873 276.256 328.679 279.417 324.759 279.417Z" fill="#CFF3F6"/>
<path d="M290.911 435.084L274.694 434.975C273.286 434.966 272.152 433.817 272.161 432.408L272.172 430.8C272.182 429.392 273.331 428.258 274.739 428.268L290.956 428.376C292.364 428.386 293.498 429.535 293.488 430.943L293.478 432.551C293.468 433.959 292.319 435.094 290.911 435.084Z" fill="#92FFDD"/>
<path d="M166.365 385.849L116.594 391.957C116.594 391.957 183.97 435.435 197.857 435.435C213.203 435.435 263.572 411.033 263.572 411.033L223.238 384.992L166.365 385.849" fill="#004381"/>
<path d="M220.708 346.734L243.851 380.148C243.851 380.148 239.1 388.14 238.835 390.095C236.983 403.754 245.193 405.64 249.46 403.886C256.882 400.835 268.302 382.056 267.049 378.761C258.843 357.176 250.79 336.646 241.29 316.204C239.836 313.075 237.131 305.418 235.131 307.438C230.281 312.334 220.68 354.641 220.708 346.734" fill="#00D0BC"/>
<path d="M178.147 345.771L151.802 372.389C151.802 372.389 156.829 379.346 154.602 387.103C154.093 388.878 149.832 394.4 144.908 394.777C136.652 395.41 124.749 381.01 126.904 370.607C131.573 348.058 147.926 333.16 157.02 312.546C159.059 307.925 163.533 301.974 165.302 303.624C170.348 308.332 178.175 353.678 178.147 345.771" fill="#00D0BC"/>
<path d="M103.865 406.841L102.975 420.542C102.975 420.542 128.779 438.481 141.29 443.498C146.162 445.451 187.246 450.916 187.246 450.916L191.247 434.581L103.865 406.841" fill="#004381"/>
<path d="M193.748 430.157L239.097 443.121L238.92 458.124C238.92 458.124 217.818 457.246 211.442 456.649C207.387 456.269 188.316 453.353 188.316 453.353L193.748 430.157" fill="#FFD0CE"/>
<path d="M195.057 431.094L158.986 444.563L160.506 458.205C160.506 458.205 177.763 456.627 182.947 455.849C186.244 455.354 201.645 451.996 201.645 451.996L195.057 431.094" fill="#FFD0CE"/>
<path d="M226.484 442.115C226.484 442.115 236.486 442.79 241.286 441.545C243.841 440.883 248.858 437.828 251.194 437.952C257.201 438.271 261.32 448.658 261.903 452.232C262.336 454.881 257.607 459.221 254.831 459.142C241.838 458.771 226.59 457.806 226.59 457.806L227.669 454.335C228.303 452.294 228.379 450.13 227.888 448.053L226.484 442.115" fill="#003977"/>
<path d="M144.629 460.278C145.825 460.796 149.195 460.834 150.474 460.558C154.867 459.609 167.018 457.694 167.018 457.694C163.291 455.304 161.479 450.938 162.467 446.722L163.303 443.151L155.031 439.898C155.031 439.898 148.152 442.166 145.323 446.598C139.498 455.724 141.954 459.118 144.629 460.278Z" fill="#003977"/>
<path d="M207.352 271.042L191.31 277.468C190.835 277.464 189.648 286.641 189.643 287.1L188.979 302.86C188.932 307.953 193.689 312.01 198.962 312.055C204.235 312.1 209.287 308.114 209.334 303.021L208.205 271.881C208.21 271.422 207.828 271.046 207.352 271.042" fill="#FFC7C4"/>
<path d="M161.856 306.66C164.454 302.238 186.937 296.316 186.937 296.316L199.072 309.025L216.483 296.725C216.483 296.725 233.654 303.301 237.258 309.597C240.393 315.074 237.503 340.238 234.673 358.244C231.51 378.371 231.913 392.061 231.183 393.157C229.195 396.141 223.787 397.109 220.307 397.835C210.31 399.924 164.946 401.105 163.013 390.038C161.553 381.68 163.527 362.575 162.422 345.778C161.922 338.182 159.415 310.813 161.856 306.66" fill="#34EABE"/>
<path d="M198.979 308.948L203.763 318.032C210.658 312.032 225.559 299.099 225.559 299.099L215.243 292.461L198.979 308.948" fill="#00D0BC"/>
<path d="M199.119 308.907L194.035 317.991C187.14 311.991 178.839 298.281 178.839 298.281L187.242 293.211L199.119 308.907Z" fill="#00D0BC"/>
<path d="M218.811 293.293C227.236 321.309 213.271 343.072 213.271 343.072L200.042 344.224C200.042 344.224 211.025 320.23 209.192 297.862C209.13 297.105 208.974 293.905 209.133 293.201C210.343 287.867 212.308 283.144 215.039 286.255C215.691 286.998 218.341 291.732 218.811 293.293" fill="#00649F"/>
<path d="M218.211 248.386C225.151 255.493 226.98 271.705 220.358 278.746C214.63 284.836 192.775 285.522 190.978 285.262C171.918 282.511 174.144 263.351 178.355 255.617C185.436 242.615 205.261 235.125 218.211 248.386Z" fill="#00649F"/>
<path d="M214.444 278.256C214.337 275.908 216.201 273.922 218.607 273.819C221.014 273.716 223.053 275.535 223.16 277.882C223.268 280.23 221.404 282.216 218.998 282.319C216.591 282.422 214.552 280.603 214.444 278.256" fill="#FFC7C4"/>
<path d="M183.943 278.069C183.943 280.419 181.99 282.323 179.58 282.323C177.171 282.323 175.218 280.419 175.218 278.069C175.218 275.719 177.171 273.814 179.58 273.814C181.99 273.814 183.943 275.719 183.943 278.069Z" fill="#FFC7C4"/>
<path d="M218.367 278.256C218.367 292.281 208.295 302.898 199.532 302.898C190.28 302.898 180.813 292.281 180.813 278.256C180.813 264.232 189.22 252.863 199.59 252.863C209.96 252.863 218.367 264.232 218.367 278.256Z" fill="#FFD0CE"/>
<path d="M209.334 253.648C221.767 258.658 222.475 272.146 221.758 275.304C221.103 278.188 219.078 280.189 218.307 280.127C209.551 279.425 188.185 267.261 188.185 267.261C188.185 267.261 176.247 275.929 184.731 308.009C184.731 308.009 177.709 296.143 177.35 279.827C176.896 259.178 191.291 246.377 209.334 253.648Z" fill="#00649F"/>
<path d="M217.172 389.748C217.32 389.651 220.622 387.058 223.016 387.041C227.803 387.007 232.72 390.561 237.651 389.24C239.298 388.798 242.078 389.075 243.624 389.781L246.828 391.242C249.31 392.375 250.123 395.448 248.437 397.54C246.701 399.695 244.253 401.856 241.41 401.882C238.52 401.908 234.525 399.975 231.636 399.943C229.944 399.923 227.221 402.401 225.625 402.94C225.089 403.122 223.942 403.525 223.398 403.368C223.172 403.303 222.695 402.763 222.695 402.763C222.695 402.763 220.936 403.962 220.245 404.045C219.597 404.122 217.714 403.419 217.714 403.419L224.763 395.456L219.8 397.81C219.8 397.81 217.13 400.207 216.002 400.51C214.704 400.858 213.978 399.827 213.978 399.827L221.469 391.117C221.469 391.117 215.65 393.875 213.808 393.502C212.99 393.337 211.845 392.419 211.845 392.419L217.172 389.748" fill="#FFD0CE"/>
<path d="M167.835 372.58C167.657 372.568 163.455 371.918 161.373 373.059C157.21 375.342 154.792 380.794 149.838 382.032C148.183 382.445 145.919 384.027 144.945 385.385L142.928 388.199C141.365 390.378 142.253 393.432 144.796 394.429C147.415 395.457 150.654 396.146 153.129 394.795C155.645 393.422 158.104 389.819 160.589 388.395C162.044 387.561 165.685 388.392 167.347 388.088C167.904 387.986 169.106 387.781 169.496 387.383C169.658 387.218 169.792 386.519 169.792 386.519C169.792 386.519 171.936 386.708 172.578 386.445C173.179 386.199 174.445 384.682 174.445 384.682L164.218 381.189L169.734 380.831C169.734 380.831 173.287 381.617 174.421 381.335C175.726 381.01 175.821 379.766 175.821 379.766L164.823 375.842C164.823 375.842 171.29 375.42 172.693 374.207C173.316 373.668 173.832 372.32 173.832 372.32L167.835 372.58" fill="#FFD0CE"/>
<path d="M157.151 363.148L240.385 365.402C241.979 365.446 243.167 366.691 242.914 368.054L234.16 415.28L154.387 412.085L154.423 365.436C154.424 364.143 155.659 363.108 157.151 363.148" fill="#71EAEC"/>
<path d="M97.9279 403.769C96.3454 408.118 99.0484 418.377 102.349 421.706C110.42 429.846 144.446 441.18 144.446 441.18L202.992 458.299L213.366 440.528L137.725 397.449C137.725 397.449 121.259 390.097 115.438 390.616C109.916 391.108 99.7669 398.716 97.9279 403.769" fill="#00649F"/>
<path d="M191.274 437.013C191.274 437.013 239.897 410.414 263.312 395.329C268.746 391.828 284.948 396.367 288.625 401.581C291.996 406.361 289.384 420.015 285.648 424.535C273.138 439.669 203.504 448.496 203.504 448.496L191.274 437.013" fill="#00649F"/>
<path d="M201.007 380.276C201.007 381.739 199.638 382.411 197.948 382.411C196.259 382.411 194.89 381.739 194.89 380.276C194.89 378.814 196.259 378.088 197.948 378.088C199.638 378.088 201.007 378.814 201.007 380.276Z" fill="#BDFFD8"/>
<path d="M156.254 58.8095C156.342 58.7155 156.461 58.6675 156.58 58.6675C156.689 58.6675 156.798 58.707 156.883 58.7865C157.063 58.954 157.073 59.2365 156.906 59.4165C156.739 59.5955 156.457 59.606 156.277 59.439C156.097 59.2715 156.087 58.9895 156.254 58.8095ZM157.049 62.923C156.21 64.1645 156.226 65.7805 157.074 67L156.29 67.843L147.894 60.0365L148.675 59.197C149.985 60.064 151.681 59.994 152.906 59.031L154.599 57.6995C153.897 58.684 154.006 60.059 154.915 60.904C155.385 61.341 155.983 61.557 156.579 61.557C157.235 61.557 157.89 61.295 158.371 60.778C159.289 59.7905 159.233 58.2405 158.245 57.322C157.533 56.66 156.531 56.513 155.682 56.848L157.157 55.688C157.356 55.5315 157.56 55.3825 157.768 55.2395L160.497 57.777C160.369 57.9965 160.233 58.213 160.09 58.426L157.049 62.923ZM162.024 53.406C161.889 54.0945 161.645 55.059 161.403 55.886L159.589 54.201C160.41 53.8955 161.349 53.588 162.024 53.406ZM163.742 51.5615C163.363 51.209 162.918 50.829 158.876 52.3305L158.809 52.358C157.783 52.8255 156.812 53.4165 155.921 54.115L151.669 57.459C151.124 57.888 150.368 57.919 149.789 57.5355L149.627 57.428C148.896 56.9445 147.932 57.059 147.335 57.701L145.749 59.407C145.373 59.8115 145.396 60.444 145.8 60.8205L148.23 63.08C148.057 63.127 147.893 63.219 147.762 63.3605L145.302 66.0055C144.926 66.41 144.949 67.0425 145.353 67.419C145.546 67.598 145.79 67.6865 146.034 67.6865C146.302 67.6865 146.57 67.5795 146.767 67.3675L149.226 64.7225C149.358 64.581 149.438 64.411 149.472 64.2345L150.094 64.813C149.921 64.8605 149.757 64.9525 149.626 65.094L144.912 70.163C144.536 70.5675 144.559 71.2 144.963 71.5765C145.156 71.7555 145.4 71.844 145.644 71.844C145.912 71.844 146.18 71.737 146.377 71.525L151.09 66.4555C151.222 66.314 151.301 66.1445 151.336 65.968L151.988 66.5745C151.815 66.622 151.651 66.7135 151.52 66.855L149.06 69.5C148.684 69.9045 148.707 70.537 149.112 70.9135C149.304 71.0925 149.548 71.181 149.792 71.181C150.06 71.181 150.328 71.0735 150.525 70.862L152.984 68.217C153.116 68.0755 153.196 67.9055 153.23 67.729L155.661 69.989C155.846 70.161 156.089 70.2565 156.341 70.2565L156.378 70.2555C156.643 70.246 156.893 70.1315 157.074 69.9375L158.66 68.231C159.257 67.589 159.301 66.6195 158.765 65.9255C158.34 65.3755 158.317 64.619 158.706 64.043L161.748 59.544C162.385 58.5975 162.904 57.59 163.29 56.5495L163.311 56.4845C164.543 52.306 164.117 51.91 163.742 51.5615" fill="#DCF5F9"/>
<path d="M88.0912 184.437C87.9102 184.437 87.7262 184.387 87.5617 184.284L82.8032 181.306C82.3352 181.013 82.1932 180.396 82.4862 179.928C82.7792 179.46 83.3962 179.318 83.8642 179.611L88.6227 182.589C89.0907 182.882 89.2327 183.499 88.9397 183.967C88.7502 184.27 88.4242 184.437 88.0912 184.437Z" fill="#DCF5F9"/>
<path d="M69.776 184.437C69.437 184.437 69.107 184.264 68.919 183.953C68.6335 183.48 68.7855 182.866 69.2585 182.58L74.193 179.602C74.666 179.317 75.2805 179.469 75.566 179.942C75.851 180.415 75.699 181.029 75.2265 181.315L70.292 184.293C70.13 184.39 69.952 184.437 69.776 184.437Z" fill="#DCF5F9"/>
<path d="M78.9944 179.018C78.6299 179.018 78.2654 178.903 77.9539 178.673L69.1809 172.191C68.7364 171.863 68.6424 171.236 68.9709 170.792C69.2989 170.348 69.9249 170.254 70.3694 170.582L78.9944 176.955L87.6194 170.582C88.0634 170.254 88.6899 170.348 89.0179 170.792C89.3464 171.236 89.2525 171.863 88.808 172.191L80.0349 178.673C79.7234 178.903 79.3589 179.018 78.9944 179.018" fill="#DCF5F9"/>
<path d="M70.7749 182.872H87.2134V172.386H70.7749V182.872ZM88.2134 184.872H69.7749C69.2229 184.872 68.7749 184.424 68.7749 183.872V171.386C68.7749 170.834 69.2229 170.386 69.7749 170.386H88.2134C88.7659 170.386 89.2134 170.834 89.2134 171.386V183.872C89.2134 184.424 88.7659 184.872 88.2134 184.872Z" fill="#DCF5F9"/>
<path d="M400.584 97.1877C400.312 97.3597 400.139 97.6528 400.12 97.9748C400.099 98.3403 400.036 98.7048 399.932 99.0583C399.841 99.3683 399.905 99.7033 400.105 99.9573L400.849 100.905L400.52 101.424L399.346 101.159C399.031 101.088 398.702 101.173 398.461 101.388C398.186 101.632 397.883 101.846 397.56 102.023C397.279 102.178 397.088 102.459 397.049 102.779L396.904 103.975L396.305 104.11L395.663 103.093C395.491 102.82 395.197 102.647 394.875 102.628C394.509 102.607 394.145 102.544 393.792 102.441C393.699 102.414 393.605 102.4 393.511 102.4C393.289 102.4 393.071 102.474 392.893 102.614L391.946 103.357L391.426 103.028L391.691 101.855C391.762 101.54 391.677 101.211 391.463 100.97C391.219 100.696 391.005 100.393 390.826 100.068C390.67 99.7862 390.389 99.5963 390.07 99.5583L388.876 99.4137L388.74 98.8137L389.757 98.1712C390.029 97.9997 390.202 97.7077 390.221 97.3867C390.244 97.0182 390.307 96.6518 390.411 96.2978C390.501 95.9888 390.436 95.6552 390.237 95.4012L389.494 94.4542L389.823 93.9343L390.997 94.1992C391.312 94.2697 391.641 94.1857 391.882 93.9712C392.159 93.7247 392.462 93.5113 392.781 93.3363C393.065 93.1813 393.256 92.8987 393.294 92.5782L393.438 91.3837L394.037 91.2492L394.681 92.2667C394.853 92.5392 395.146 92.7117 395.468 92.7302C395.832 92.7517 396.197 92.8147 396.554 92.9182C396.863 93.0082 397.197 92.9443 397.45 92.7448L398.397 92.0012L398.916 92.3297L398.651 93.5037C398.58 93.8187 398.665 94.1487 398.88 94.3897C399.124 94.6637 399.338 94.9667 399.515 95.2902C399.671 95.5727 399.953 95.7627 400.272 95.8012L401.467 95.9448L401.602 96.5448L400.584 97.1877ZM403.263 94.8162C403.169 94.4032 402.827 94.0937 402.406 94.0432L400.996 93.8738C400.906 93.7353 400.81 93.5997 400.71 93.4682L401.023 92.0827C401.117 91.6697 400.94 91.2427 400.582 91.0167L398.87 89.9337C398.512 89.7077 398.051 89.7307 397.718 89.9922L396.6 90.8698C396.437 90.8358 396.274 90.8072 396.11 90.7847L395.351 89.5837C395.125 89.2267 394.699 89.0512 394.286 89.1427L392.31 89.5877C391.897 89.6807 391.587 90.0237 391.536 90.4442L391.367 91.8542C391.228 91.9447 391.093 92.0402 390.961 92.1407L389.575 91.8282C389.162 91.7367 388.735 91.9117 388.509 92.2692L387.427 93.9817C387.201 94.3392 387.224 94.8003 387.485 95.1333L388.362 96.2512C388.328 96.4132 388.3 96.5767 388.277 96.7407L387.076 97.4998C386.718 97.7258 386.541 98.1522 386.634 98.5652L387.08 100.542C387.173 100.955 387.515 101.264 387.935 101.315L389.346 101.485C389.437 101.624 389.532 101.76 389.632 101.891L389.32 103.276C389.227 103.689 389.403 104.115 389.761 104.342L391.473 105.425C391.831 105.65 392.292 105.627 392.625 105.366L393.743 104.489C393.905 104.523 394.069 104.552 394.233 104.574L394.991 105.774C395.177 106.069 395.498 106.24 395.836 106.24C395.909 106.24 395.983 106.232 396.056 106.216L398.032 105.771C398.445 105.678 398.754 105.335 398.805 104.916L398.976 103.505C399.115 103.414 399.25 103.318 399.382 103.218L400.768 103.531C401.181 103.624 401.608 103.447 401.834 103.089L402.916 101.376C403.142 101.018 403.119 100.557 402.857 100.225L401.98 99.1077C402.015 98.9452 402.043 98.7817 402.066 98.6172L403.267 97.8587C403.624 97.6327 403.801 97.2062 403.708 96.7932L403.263 94.8162" fill="#DCF5F9"/>
<path d="M396.139 98.2917C395.976 98.5502 395.722 98.7297 395.423 98.7967C395.124 98.8647 394.817 98.8112 394.559 98.6482C394.3 98.4847 394.121 98.2302 394.054 97.9317C393.986 97.6327 394.039 97.3257 394.203 97.0667C394.366 96.8082 394.621 96.6287 394.92 96.5617C395.004 96.5427 395.089 96.5332 395.174 96.5332C395.388 96.5332 395.598 96.5936 395.783 96.7107C396.042 96.8742 396.221 97.1287 396.289 97.4272C396.356 97.7257 396.303 98.0327 396.139 98.2917V98.2917ZM396.852 95.0201C396.142 94.5711 395.299 94.4256 394.48 94.6106C393.66 94.7951 392.961 95.2882 392.512 95.9987C392.064 96.7087 391.918 97.5512 392.103 98.3712C392.287 99.1907 392.78 99.8892 393.49 100.338C393.999 100.66 394.576 100.826 395.164 100.826C395.397 100.826 395.631 100.8 395.863 100.748C396.683 100.563 397.381 100.071 397.83 99.3602C398.279 98.6497 398.424 97.8072 398.24 96.9877C398.055 96.1677 397.562 95.4691 396.852 95.0201" fill="#DCF5F9"/>
<path d="M408.241 89.6109L407.939 88.0345C407.86 87.6185 407.528 87.2979 407.109 87.2334L406.092 87.077C406.054 87.0165 406.015 86.9574 405.974 86.8984L406.235 85.9024C406.342 85.4929 406.18 85.0605 405.829 84.8225L404.502 83.9205C404.152 83.6825 403.69 83.691 403.349 83.941L402.518 84.5499C402.448 84.5339 402.378 84.5194 402.308 84.5064L401.787 83.618C401.573 83.253 401.153 83.0624 400.737 83.1419L399.161 83.4424C398.745 83.5214 398.424 83.854 398.36 84.2725L398.203 85.2899C398.143 85.3279 398.083 85.3669 398.024 85.4069L397.028 85.1475C396.619 85.0415 396.186 85.2034 395.949 85.5529L395.047 86.881C394.809 87.231 394.817 87.6924 395.067 88.0339L395.96 89.254C396.287 89.7 396.912 89.7965 397.358 89.47C397.804 89.144 397.9 88.518 397.574 88.0725L397.098 87.4214L397.206 87.2609L397.988 87.4645C398.299 87.545 398.631 87.472 398.879 87.266C399.093 87.0875 399.325 86.9354 399.568 86.8124C399.857 86.6669 400.057 86.391 400.106 86.072L400.229 85.2745L400.419 85.2384L400.828 85.9345C400.991 86.2125 401.278 86.395 401.599 86.4245C401.871 86.449 402.143 86.5054 402.408 86.5924C402.715 86.6924 403.05 86.6389 403.31 86.4484L403.961 85.9714L404.121 86.0799L403.917 86.8609C403.836 87.1729 403.91 87.5055 404.117 87.7535C404.293 87.965 404.446 88.1974 404.571 88.4439C404.717 88.7314 404.992 88.9309 405.31 88.9799L406.107 89.1029L406.144 89.2935L405.448 89.7015C405.17 89.8645 404.987 90.1519 404.958 90.4729C404.933 90.7464 404.876 91.0174 404.79 91.2794C404.689 91.5864 404.742 91.9234 404.933 92.1844L405.304 92.6905L404.252 92.3985C403.72 92.2525 403.169 92.5625 403.021 93.0945C402.873 93.6265 403.185 94.1774 403.717 94.3254L405.495 94.8195C405.584 94.844 405.674 94.856 405.763 94.856C406.055 94.856 406.338 94.7279 406.531 94.4969L407.402 93.454C407.696 93.1015 407.712 92.5929 407.44 92.2219L406.832 91.3925C406.848 91.323 406.863 91.2524 406.876 91.1824L407.765 90.6614C408.129 90.4474 408.32 90.0269 408.241 89.6109" fill="#DCF5F9"/>
<path d="M128.602 234.912C127.821 234.912 127.04 235.209 126.445 235.804C125.255 236.994 125.255 238.93 126.445 240.12L133.852 247.527L141.26 240.12C142.45 238.93 142.45 236.994 141.26 235.804C140.07 234.615 138.134 234.615 136.944 235.804L134.559 238.189C134.169 238.58 133.536 238.58 133.145 238.189L130.76 235.804C130.165 235.209 129.384 234.912 128.602 234.912V234.912ZM133.873 249.921C133.811 249.898 133.732 249.913 133.663 249.898C133.464 249.868 133.275 249.778 133.124 249.628L125.03 241.534C123.061 239.564 123.061 236.359 125.03 234.39C127 232.42 130.205 232.42 132.174 234.39L133.852 236.068L135.53 234.39C137.5 232.42 140.704 232.42 142.674 234.39C144.644 236.359 144.644 239.564 142.674 241.534L134.58 249.628C134.393 249.815 134.138 249.921 133.873 249.921Z" fill="#DCF5F9"/>
<path d="M73.8839 75.3174L72.2544 74.1574L76.3749 68.3704L82.4339 72.4539L81.3164 74.1119L76.8734 71.1184L73.8839 75.3174" fill="#DCF5F9"/>
<path d="M141.582 144.191L145.87 144.805L146.455 140.719L142.167 140.105L141.582 144.191ZM147.567 147.068L139.319 145.887L140.47 137.842L148.718 139.022L147.567 147.068" fill="#DCF5F9"/>
<path d="M439.656 160.796L439.336 158.821L442.278 158.344L442.598 160.319L439.656 160.796Z" fill="#DCF5F9"/>
<path d="M442.596 157.59L442.128 154.703L444.102 154.384L444.57 157.271L442.596 157.59Z" fill="#DCF5F9"/>
<path d="M445.814 159.799L445.494 157.824L448.277 157.374L448.597 159.348L445.814 159.799Z" fill="#DCF5F9"/>
<path d="M443.617 163.901L443.123 160.849L445.098 160.53L445.591 163.581L443.617 163.901" fill="#DCF5F9"/>
<path d="M278.353 62.8532C277.9 62.8532 277.455 62.9792 277.061 63.2247C276.505 63.5707 276.116 64.1132 275.967 64.7517C275.661 66.0697 276.484 67.3922 277.802 67.6987C279.121 68.0047 280.442 67.1822 280.749 65.8647C281.055 64.5467 280.232 63.2247 278.914 62.9177C278.728 62.8747 278.54 62.8532 278.353 62.8532V62.8532ZM278.358 69.7632C278.025 69.7632 277.687 69.7257 277.349 69.6467C274.956 69.0897 273.463 66.6907 274.02 64.2987C274.289 63.1397 274.994 62.1552 276.004 61.5262C277.015 60.8982 278.209 60.6997 279.368 60.9697C281.76 61.5267 283.253 63.9257 282.696 66.3177C282.218 68.3717 280.382 69.7632 278.358 69.7632" fill="#DCF5F9"/>
<path d="M60.9864 357.505L65.2749 358.119L65.8594 354.033L61.5714 353.419L60.9864 357.505ZM66.9714 360.383L58.7234 359.202L59.8749 351.157L68.1229 352.337L66.9714 360.383Z" fill="#DCF5F9"/>
</svg>
